<svg width="64" height="64" viewBox="0 0 64 64" fill="none" xmlns="http://www.w3.org/2000/svg">
<g clip-path="url(#clip0_115_2)">
<path d="M64 0H0V64H64V0Z" fill="#162330"/>
<g opacity="0.5">
<path fill-rule="evenodd" clip-rule="evenodd" d="M19.7798 43.4996C19.7798 44.2792 19.6728 44.9198 19.5001 45.6184L19.3273 46.2452C19.007 47.3237 18.524 48.3403 18.0271 49.3432L17.4737 50.3888C17.0235 51.2916 15.7722 52.9571 16.7942 53.7804C16.9983 53.9447 17.3621 54.1136 17.7206 54.1136H37.1349C37.3978 54.1136 37.835 53.8117 37.9711 53.6099C38.2982 53.1245 38.3151 52.8822 38.3151 52.2746C38.3151 51.8656 38.1836 51.4743 38.257 51.0775C38.2914 50.891 38.4297 50.7397 38.5153 50.5761C38.6369 50.343 38.7209 50.1465 38.7806 49.8423C38.9502 48.9801 38.1629 47.4292 39.3019 47.1456C39.3661 47.1296 39.4478 47.1097 39.4991 47.1028C39.5778 47.0921 39.6458 47.1021 39.7261 47.0891C40.4087 46.9828 42.1698 47.6165 42.8417 47.7495C43.9745 47.9734 45.1516 48.0476 46.2699 47.6753C46.516 47.5935 46.7522 47.4995 46.9861 47.3918C47.0495 47.3627 47.0793 47.3375 47.1389 47.3054C48.3658 46.6358 48.9314 45.6092 48.9314 44.16C48.9314 42.7107 48.1311 41.769 48.8573 41.4671C49.0483 41.3876 49.2035 41.2669 49.3205 41.1132C49.5498 40.8128 49.6919 40.4864 49.6919 40.0821C49.6919 39.6166 49.3327 39.4874 49.6293 39.3001C49.8616 39.1534 49.948 39.1465 50.1307 38.8621C50.6038 38.1238 50.0306 37.2111 49.6981 36.5377C49.6239 36.3871 49.5314 36.2381 49.5314 36.0447C49.5314 35.8177 49.7768 35.8849 49.9312 35.8849C50.9723 35.8849 52.2274 35.502 52.6248 34.4601C53.007 33.4588 52.339 32.4124 51.8146 31.6228C51.7718 31.5586 51.7351 31.5035 51.6908 31.447L50.4685 29.9106C50.3776 29.7959 50.2981 29.6828 50.211 29.5682C50.0818 29.3962 49.9648 29.1944 49.857 29.0025C49.7432 28.7984 49.6423 28.6066 49.5536 28.3864C49.1523 27.3851 49.3312 27.1826 49.3312 26.0903C49.3312 24.4247 49.1133 22.9441 48.7029 21.5017C48.4621 20.6556 48.167 19.8668 47.7848 19.084C47.5792 18.6621 47.382 18.2318 47.1282 17.8389L46.7285 17.1991C46.584 16.982 46.4487 16.7795 46.2958 16.5723L44.8581 14.8716C44.4193 14.4328 43.9569 14.0247 43.4784 13.6326L41.7754 12.457L40.946 11.9869C40.6426 11.8049 39.5365 11.3364 39.1238 11.1705C38.0812 10.7501 36.9789 10.4704 35.8675 10.2479C35.1146 10.0973 33.897 9.92153 33.0761 9.90013C32.9736 9.89784 32.953 9.87873 32.8376 9.87873L32.0571 9.85962C31.5886 9.85962 31.1567 9.90319 30.6966 9.93835C30.5414 9.94981 30.3862 9.95669 30.2525 9.97427C30.1004 9.99415 29.9582 9.9865 29.8068 10.0079L28.525 10.1654C27.1889 10.3588 25.865 10.6416 24.5717 11.0108C24.0794 11.1514 23.6017 11.3028 23.1232 11.4816C22.8954 11.5672 22.66 11.6505 22.4337 11.7514L20.7873 12.5043C20.7208 12.538 20.6963 12.5578 20.6344 12.5915L19.562 13.1984C19.4649 13.2565 19.3709 13.3192 19.2692 13.3857L18.1441 14.1798C18.0501 14.2502 17.9644 14.3128 17.8758 14.3916L17.0365 15.1116C16.7453 15.3791 16.4082 15.7246 16.146 16.0204L15.695 16.5295C15.3969 16.8842 15.1294 17.2389 14.8619 17.6149C14.3857 18.2837 13.9989 19.0068 13.6289 19.7406C13.3583 20.2772 13.116 20.8834 12.9249 21.4559C12.8447 21.6959 12.753 21.939 12.6865 22.1775C12.4067 23.1811 12.2569 23.9309 12.1139 24.9628C12.0948 25.1012 12.0704 25.2617 12.0635 25.3916C12.0551 25.5376 12.0406 25.7004 12.026 25.8334C12.0085 25.9901 11.9901 26.623 12.0062 26.7667C12.0222 26.9104 12.023 27.0572 12.023 27.2292C12.023 28.099 12.1376 29.0086 12.3012 29.8296C12.4663 30.6551 12.6781 31.275 12.9555 32.0539C13.0793 32.4017 13.2353 32.7265 13.3897 33.059C13.6779 33.6805 14.2641 34.6398 14.6387 35.1886C15.1523 35.9422 15.7218 36.663 16.2996 37.3663C16.3218 37.393 16.3325 37.4022 16.3562 37.432L16.5167 37.6284C16.6383 37.753 16.7277 37.8929 16.8469 38.0183L17.5066 38.7979C17.5547 38.8491 17.5731 38.8782 17.6167 38.9279C17.6625 38.9791 17.6824 39.0035 17.7275 39.0571L17.9476 39.3169C17.9866 39.3636 18.0179 39.4048 18.0569 39.4476C18.2129 39.6219 18.3413 39.7939 18.4964 39.9682C18.7624 40.2671 18.9971 40.6064 19.1813 40.9626C19.3212 41.2332 19.4351 41.516 19.5337 41.8096C19.6919 42.2812 19.7814 42.8812 19.7814 43.5011M20.3814 18.8547C20.4035 18.7607 20.412 18.6506 20.4326 18.5467C20.4899 18.2608 20.5855 17.9963 20.7009 17.7357C20.7361 17.6562 20.7842 17.5866 20.8316 17.5071C20.8798 17.4261 20.9241 17.3657 20.9776 17.2931C21.5608 16.4951 22.501 16.1565 23.5 16.1565C23.6361 15.8997 23.7423 15.7384 23.9349 15.532C24.1299 15.3241 24.2445 15.2018 24.4952 15.0329C25.2069 14.5536 26.1348 14.4168 26.9871 14.5888C27.9532 14.7845 27.1728 14.8005 28.4845 14.1439C29.2848 13.7434 30.4076 13.7694 31.1376 14.2578C32.1405 13.7273 33.2457 13.907 34.2104 14.4244C34.2891 14.4665 34.3617 14.5131 34.4328 14.5613C34.682 14.7317 34.6101 14.7401 34.8884 14.669C35.5442 14.5024 36.3285 14.5101 36.969 14.7241C37.29 14.8319 37.5843 14.9947 37.8297 15.2026C37.8832 15.2484 37.9329 15.2844 37.981 15.331L38.2409 15.6107C38.4137 15.8049 38.5543 16.0258 38.6758 16.2559C39.6902 16.2559 40.599 16.5761 41.2288 17.3214C41.5529 17.7051 41.835 18.406 41.835 18.8945C41.9955 18.9319 42.3792 19.1719 42.5229 19.266C43.1344 19.6634 43.7941 20.3919 43.7941 21.2335C43.7941 21.6218 43.749 21.942 43.6098 22.2707C43.5502 22.4106 43.6572 22.4626 43.7299 22.5772C44.3941 23.6191 44.7381 24.8742 43.8873 25.9252C43.7986 26.0345 43.6848 26.1766 43.5739 26.2516C43.7077 26.8241 43.7337 26.899 43.7337 27.5105C43.7337 28.3245 43.2644 29.017 42.6055 29.4206C42.4816 29.4963 42.4052 29.5307 42.2737 29.5888L41.8946 29.7294C41.8946 30.4388 41.5483 31.1084 41.1898 31.4638L40.9613 31.6748C40.7687 31.8368 40.534 31.9935 40.2986 32.0913C40.0678 32.1869 39.8423 32.2671 39.5954 32.3283C39.3569 32.3872 39.0917 32.4407 38.8325 32.4651C38.6193 32.485 38.779 32.576 38.5023 33.0743L38.2738 33.3656C38.0368 33.5926 37.7892 33.7615 37.4635 33.8754C36.7099 34.1391 35.7192 34.0405 34.9763 33.8677C34.8975 33.9205 34.841 33.9931 34.7714 34.0627C34.2937 34.5419 33.5156 34.947 32.8169 34.947C32.2796 34.947 31.8385 34.8897 31.3707 34.6543C30.9503 34.4425 31.1254 34.4517 30.6866 34.6359C29.9521 34.9447 28.9278 35.0342 28.2269 34.6191C27.9288 34.4425 27.6498 34.2331 27.4587 33.948C26.8579 34.0879 26.0706 34.0481 25.4774 33.9297C24.9607 33.8265 24.4463 33.6163 24.0549 33.2723C23.8409 33.0843 23.6567 32.8878 23.4993 32.6486C23.4052 32.5049 23.4519 32.4644 23.2203 32.4674C22.5293 32.4774 21.68 32.164 21.1954 31.6732C20.6825 31.1542 20.3791 30.5687 20.2568 29.8334C20.23 29.6736 20.1643 29.7073 20.013 29.6178C19.7233 29.4466 19.4565 29.2532 19.2165 29.0148C18.7166 28.5171 18.342 27.8009 18.342 27.071L18.3634 26.4526C18.417 25.9756 18.4192 26.2263 18.1685 25.7249C18.0852 25.5583 18.0202 25.4253 17.9545 25.2395C17.6885 24.492 17.5456 23.7284 17.9759 23.0068C18.1234 22.7591 18.3436 22.51 18.6019 22.3739C18.5568 22.1813 18.4888 22.0238 18.4559 21.8205C18.3336 21.0592 18.4483 20.2161 19.017 19.6504C19.1423 19.5259 19.2478 19.4112 19.3976 19.3111C19.552 19.2086 19.682 19.136 19.8547 19.0489C19.9602 18.9954 20.253 18.8586 20.3814 18.8555V18.8547Z" fill="#94C6E0"/>
</g>
<g opacity="0.75">
<path fill-rule="evenodd" clip-rule="evenodd" d="M19.7798 43.5133C19.7798 44.293 19.6728 44.9335 19.5 45.6322L19.3273 46.259C19.007 47.3375 18.5239 48.3541 18.0271 49.357L17.4737 50.4026C17.0234 51.3053 15.7722 52.9709 16.7941 53.7941C16.9982 53.9585 17.3621 54.1274 17.7205 54.1274H37.1348C37.3977 54.1274 37.8357 53.8255 37.971 53.6237C38.2982 53.1383 38.315 52.896 38.315 52.2883C38.315 51.8794 38.1835 51.488 38.2569 51.0913C38.2913 50.9048 38.4296 50.7535 38.5153 50.5899C38.6368 50.3567 38.7209 50.1603 38.7805 49.8561C38.9502 48.9939 38.1629 47.443 39.3018 47.1594C39.366 47.1433 39.4478 47.1235 39.499 47.1166C39.5777 47.1059 39.6458 47.1158 39.726 47.1028C40.4086 46.9966 42.1697 47.6302 42.8416 47.7632C43.9744 47.9872 45.1515 48.0613 46.2698 47.6891C46.5159 47.6073 46.7521 47.5133 46.986 47.4055C47.0495 47.3765 47.0793 47.3512 47.1389 47.3184C48.3657 46.6488 48.9313 45.6222 48.9313 44.173C48.9313 42.7237 48.131 41.782 48.8572 41.4801C49.0483 41.4006 49.2035 41.2798 49.3204 41.1262C49.5497 40.8258 49.6919 40.4994 49.6919 40.0951C49.6919 39.6296 49.3326 39.5004 49.6292 39.3131C49.8616 39.1664 49.9479 39.1595 50.1306 38.8751C50.6038 38.1368 50.0305 37.2241 49.698 36.5507C49.6239 36.4001 49.5314 36.2511 49.5314 36.0577C49.5314 35.8307 49.7767 35.8979 49.9311 35.8979C50.9722 35.8979 52.2273 35.515 52.6248 34.4731C53.007 33.4718 52.3389 32.4254 51.8145 31.6358C51.7717 31.5716 51.735 31.5165 51.6907 31.46L50.4685 29.9236C50.3775 29.8089 50.298 29.6958 50.2109 29.5812C50.0817 29.4092 49.9648 29.2074 49.857 29.0155C49.7431 28.8114 49.6422 28.6196 49.5535 28.3994C49.1522 27.3981 49.3311 27.1956 49.3311 26.1033C49.3311 24.4377 49.1133 22.9571 48.7028 21.5148C48.462 20.6686 48.167 19.8798 47.7848 19.097C47.5792 18.6751 47.382 18.2448 47.1282 17.8519L46.7284 17.2121C46.584 16.995 46.4487 16.7925 46.2958 16.5853L44.858 14.8846C44.4193 14.4458 43.9568 14.0377 43.4783 13.6456L41.7753 12.47L40.946 11.9999C40.6425 11.8179 39.5365 11.3494 39.1237 11.1835C38.0811 10.7631 36.9789 10.4834 35.8675 10.2609C35.1146 10.1103 33.8969 9.93453 33.076 9.91313C32.9736 9.91084 32.9529 9.89173 32.8375 9.89173L32.0571 9.87262C31.5885 9.87262 31.1567 9.91619 30.6965 9.95135C30.5413 9.96282 30.3862 9.96969 30.2524 9.98728C30.1003 10.0071 29.9581 9.99951 29.8068 10.0209L28.5249 10.1784C27.1888 10.3718 25.8649 10.6546 24.5716 11.0238C24.0793 11.1644 23.6016 11.3158 23.1231 11.4946C22.8953 11.5802 22.6599 11.6635 22.4337 11.7644L20.7872 12.5173C20.7207 12.551 20.6962 12.5708 20.6343 12.6045L19.5619 13.2114C19.4648 13.2695 19.3708 13.3322 19.2692 13.3987L18.144 14.1928C18.05 14.2632 17.9644 14.3258 17.8757 14.4046L17.0364 15.1246C16.7452 15.3921 16.4081 15.7376 16.1459 16.0334L15.695 16.5425C15.3969 16.8972 15.1293 17.2519 14.8618 17.6279C14.3856 18.2967 13.9988 19.0198 13.6289 19.7536C13.3583 20.2902 13.116 20.8964 12.9249 21.4689C12.8446 21.7089 12.7529 21.952 12.6864 22.1905C12.4066 23.1941 12.2568 23.9439 12.1139 24.9758C12.0948 25.1142 12.0703 25.2747 12.0634 25.4046C12.055 25.5506 12.0405 25.7134 12.026 25.8464C12.0084 26.0031 11.9901 26.636 12.0061 26.7797C12.0222 26.9234 12.0229 27.0702 12.0229 27.2422C12.0229 28.112 12.1376 29.0216 12.3012 29.8426C12.4663 30.6681 12.678 31.288 12.9555 32.0669C13.0793 32.4147 13.2352 32.7395 13.3896 33.072C13.6778 33.6935 14.2641 34.6528 14.6386 35.2016C15.1523 35.9552 15.7217 36.676 16.2996 37.3793C16.3217 37.406 16.3324 37.4152 16.3561 37.445L16.5167 37.6414C16.6382 37.766 16.7276 37.9059 16.8469 38.0313L17.5065 38.8109C17.5547 38.8621 17.573 38.8912 17.6166 38.9409C17.6625 38.9921 17.6823 39.0165 17.7274 39.0701L17.9476 39.3299C17.9865 39.3766 18.0179 39.4178 18.0569 39.4606C18.2128 39.6349 18.3412 39.8069 18.4964 39.9812C18.7624 40.2801 18.997 40.6194 19.1813 40.9756C19.3211 41.2462 19.435 41.529 19.5336 41.8226C19.6919 42.2942 19.7813 42.8942 19.7813 43.5141M20.3813 18.8677C20.4035 18.7737 20.4119 18.6636 20.4325 18.5597C20.4899 18.2738 20.5854 18.0093 20.7008 17.7487C20.736 17.6692 20.7841 17.5996 20.8315 17.5201C20.8797 17.4391 20.924 17.3787 20.9775 17.3061C21.5607 16.5081 22.5009 16.1695 23.5 16.1695C23.636 15.9127 23.7423 15.7514 23.9349 15.545C24.1298 15.3371 24.2445 15.2148 24.4952 15.0459C25.2068 14.5666 26.1347 14.4298 26.987 14.6018C27.9532 14.7975 27.1728 14.8135 28.4844 14.1569C29.2847 13.7564 30.4076 13.7824 31.1375 14.2708C32.1404 13.7403 33.2457 13.92 34.2103 14.4374C34.289 14.4795 34.3617 14.5261 34.4327 14.5743C34.6819 14.7447 34.6101 14.7531 34.8883 14.682C35.5441 14.5154 36.3284 14.5231 36.9689 14.7371C37.29 14.8449 37.5843 15.0077 37.8296 15.2156C37.8831 15.2614 37.9328 15.2974 37.981 15.344L38.2408 15.6237C38.4144 15.8179 38.5542 16.0388 38.6758 16.2689C39.6901 16.2689 40.5989 16.5891 41.2288 17.3344C41.5529 17.7181 41.8349 18.419 41.8349 18.9075C41.9954 18.9449 42.3791 19.1849 42.5228 19.279C43.1343 19.6764 43.794 20.4049 43.794 21.2465C43.794 21.6348 43.7489 21.955 43.6098 22.2837C43.5502 22.4236 43.6572 22.4756 43.7298 22.5902C44.394 23.6321 44.738 24.8872 43.8873 25.9382C43.7986 26.0475 43.6847 26.1896 43.5739 26.2645C43.7076 26.8371 43.7336 26.912 43.7336 27.5235C43.7336 28.3375 43.2643 29.03 42.6054 29.4336C42.4816 29.5093 42.4051 29.5437 42.2737 29.6018L41.8945 29.7424C41.8945 30.4518 41.5483 31.1214 41.1898 31.4768L40.9612 31.6878C40.7686 31.8498 40.534 32.0065 40.2985 32.1043C40.0677 32.1999 39.8422 32.2801 39.5953 32.3413C39.3568 32.4002 39.0916 32.4537 38.8325 32.4781C38.6192 32.498 38.779 32.589 38.5023 33.0873L38.2737 33.3785C38.0368 33.6056 37.7891 33.7745 37.4635 33.8884C36.7098 34.1521 35.7192 34.0535 34.9762 33.8807C34.8975 33.9335 34.8409 34.0061 34.7714 34.0757C34.2936 34.5549 33.5155 34.96 32.8169 34.96C32.2795 34.96 31.8385 34.9027 31.3707 34.6673C30.9503 34.4555 31.1253 34.4647 30.6866 34.6489C29.952 34.9577 28.9278 35.0472 28.2268 34.6321C27.9287 34.4555 27.6497 34.2461 27.4586 33.961C26.8578 34.1009 26.0705 34.0611 25.4774 33.9427C24.9607 33.8395 24.4462 33.6293 24.0549 33.2853C23.8409 33.0973 23.6566 32.9008 23.4992 32.6616C23.4052 32.5179 23.4518 32.4774 23.2202 32.4804C22.5292 32.4904 21.68 32.177 21.1954 31.6862C20.6825 31.1672 20.379 30.5817 20.2567 29.8464C20.23 29.6866 20.1642 29.7203 20.0129 29.6308C19.7232 29.4596 19.4564 29.2662 19.2164 29.0278C18.7165 28.5301 18.342 27.8139 18.342 27.084L18.3634 26.4656C18.4169 25.9886 18.4192 26.2393 18.1685 25.7379C18.0852 25.5713 18.0202 25.4383 17.9544 25.2525C17.6884 24.505 17.5455 23.7414 17.9751 23.0198C18.1226 22.7721 18.3427 22.523 18.6011 22.3869C18.556 22.1943 18.488 22.0368 18.4551 21.8335C18.3328 21.0722 18.4475 20.2291 19.0162 19.6634C19.1415 19.5389 19.247 19.4242 19.3968 19.3241C19.5512 19.2216 19.6812 19.149 19.8539 19.0619C19.9594 19.0084 20.2521 18.8716 20.3806 18.8685L20.3813 18.8677Z" fill="#96D1CC"/>
</g>
<g opacity="0.7">
<path fill-rule="evenodd" clip-rule="evenodd" d="M19.7798 43.5279C19.7798 44.3075 19.6727 44.9481 19.5 45.6467L19.3273 46.2735C19.007 47.352 18.5239 48.3686 18.0271 49.3715L17.4737 50.4171C17.0234 51.3198 15.7722 52.9854 16.7941 53.8086C16.9982 53.973 17.3621 54.1419 17.7205 54.1419H37.1348C37.3977 54.1419 37.8357 53.84 37.971 53.6382C38.2982 53.1528 38.315 52.9105 38.315 52.3028C38.315 51.8939 38.1835 51.5025 38.2569 51.1058C38.2913 50.9193 38.4296 50.768 38.5153 50.6044C38.6368 50.3713 38.7209 50.1748 38.7805 49.8706C38.9502 49.0084 38.1629 47.4575 39.3018 47.1739C39.366 47.1578 39.4478 47.138 39.499 47.1311C39.5777 47.1204 39.6458 47.1303 39.726 47.1173C40.4086 47.0111 42.1697 47.6448 42.8416 47.7778C43.9744 48.0017 45.1515 48.0759 46.2698 47.7036C46.5159 47.6218 46.7521 47.5278 46.986 47.42C47.0495 47.391 47.0793 47.3658 47.1389 47.3329C48.3657 46.6633 48.9313 45.6368 48.9313 44.1875C48.9313 42.7383 48.131 41.7966 48.8572 41.4946C49.0483 41.4151 49.2034 41.2936 49.3204 41.1407C49.5497 40.8403 49.6919 40.5139 49.6919 40.1096C49.6919 39.6441 49.3326 39.5149 49.6292 39.3276C49.8616 39.1809 49.9479 39.174 50.1306 38.8897C50.6038 38.1513 50.0305 37.2386 49.698 36.5652C49.6239 36.4146 49.5314 36.2656 49.5314 36.0722C49.5314 35.8452 49.7767 35.9124 49.9311 35.9124C50.9722 35.9124 52.2273 35.5295 52.6248 34.4876C53.007 33.4863 52.3389 32.4399 51.8145 31.6503C51.7717 31.5853 51.735 31.5311 51.6907 31.4745L50.4685 29.9381C50.3775 29.8235 50.298 29.7103 50.2109 29.5957C50.0817 29.4237 49.9648 29.2219 49.857 29.03C49.7431 28.8259 49.6422 28.6341 49.5535 28.414C49.1522 27.4126 49.3311 27.2101 49.3311 26.1178C49.3311 24.4522 49.1133 22.9716 48.7028 21.5293C48.462 20.6831 48.167 19.8943 47.7848 19.1116C47.5792 18.6896 47.382 18.2593 47.1282 17.8664L46.7284 17.2266C46.584 17.0095 46.4487 16.807 46.2958 16.5998L44.858 14.8991C44.4193 14.4604 43.9568 14.0522 43.4783 13.6601L41.7753 12.4845L40.946 12.0144C40.6425 11.8325 39.5365 11.3639 39.1237 11.198C38.0811 10.7776 36.9789 10.4979 35.8675 10.2754C35.1146 10.1248 33.8969 9.94904 33.076 9.92764C32.9736 9.92535 32.9529 9.90624 32.8375 9.90624L32.0571 9.88713C31.5885 9.88713 31.1567 9.9307 30.6965 9.96586C30.5413 9.97733 30.3862 9.98421 30.2524 10.0018C30.1003 10.0217 29.9581 10.014 29.8068 10.0354L28.5249 10.1929C27.1888 10.3863 25.8649 10.6691 24.5716 11.0383C24.0793 11.1789 23.6016 11.3303 23.1231 11.5091C22.8953 11.5947 22.6599 11.6781 22.4337 11.7789L20.7872 12.5319C20.7207 12.5655 20.6962 12.5854 20.6343 12.619L19.5619 13.2259C19.4648 13.284 19.3708 13.3467 19.2692 13.4132L18.144 14.2074C18.05 14.2777 17.9644 14.3404 17.8757 14.4191L17.0364 15.1391C16.7452 15.4067 16.4081 15.7521 16.1459 16.048L15.695 16.557C15.3969 16.9117 15.1293 17.2664 14.8618 17.6424C14.3856 18.3113 13.9988 19.0344 13.6289 19.7682C13.3583 20.3047 13.116 20.9109 12.9249 21.4834C12.8446 21.7234 12.7529 21.9665 12.6864 22.205C12.4066 23.2086 12.2568 23.9584 12.1139 24.9903C12.0948 25.1287 12.0703 25.2892 12.0634 25.4191C12.055 25.5651 12.0405 25.7279 12.026 25.8609C12.0084 26.0176 11.9901 26.6505 12.0061 26.7942C12.0222 26.938 12.0229 27.0847 12.0229 27.2567C12.0229 28.1265 12.1376 29.0361 12.3012 29.8571C12.4663 30.6826 12.678 31.3025 12.9555 32.0814C13.0793 32.4292 13.2352 32.754 13.3896 33.0865C13.6778 33.708 14.2641 34.6673 14.6386 35.2161C15.1523 35.9698 15.7217 36.6906 16.2996 37.3938C16.3217 37.4205 16.3324 37.4297 16.3561 37.4595L16.5167 37.656C16.6382 37.7806 16.7276 37.9204 16.8469 38.0458L17.5065 38.8254C17.5547 38.8767 17.573 38.9057 17.6166 38.9554C17.6625 39.0066 17.6823 39.0311 17.7274 39.0846L17.9476 39.3445C17.9865 39.3911 18.0179 39.4324 18.0569 39.4752C18.2128 39.6494 18.3412 39.8214 18.4964 39.9957C18.7624 40.2946 18.997 40.6339 19.1813 40.9901C19.3211 41.2607 19.435 41.5435 19.5336 41.8371C19.6919 42.3087 19.7813 42.9087 19.7813 43.5286M20.3813 18.8822C20.4035 18.7882 20.4119 18.6782 20.4325 18.5742C20.4899 18.2883 20.5854 18.0239 20.7008 17.7632C20.736 17.6837 20.7841 17.6142 20.8315 17.5347C20.8797 17.4536 20.924 17.3933 20.9775 17.3206C21.5607 16.5226 22.5009 16.184 23.5 16.184C23.636 15.9272 23.7423 15.7659 23.9349 15.5595C24.1298 15.3516 24.2445 15.2293 24.4952 15.0604C25.2068 14.5811 26.1347 14.4443 26.987 14.6163C27.9532 14.812 27.1728 14.828 28.4844 14.1714C29.2847 13.7709 30.4076 13.7969 31.1375 14.2853C32.1404 13.7548 33.2457 13.9345 34.2103 14.452C34.289 14.494 34.3617 14.5406 34.4327 14.5888C34.6819 14.7592 34.6101 14.7676 34.8883 14.6966C35.5441 14.5299 36.3284 14.5376 36.9689 14.7516C37.29 14.8594 37.5843 15.0222 37.8296 15.2301C37.8831 15.2759 37.9328 15.3119 37.981 15.3585L38.2408 15.6383C38.4144 15.8324 38.5542 16.0533 38.6758 16.2834C39.6901 16.2834 40.5989 16.6037 41.2288 17.3489C41.5529 17.7326 41.8349 18.4336 41.8349 18.922C41.9954 18.9594 42.3791 19.1995 42.5228 19.2935C43.1343 19.691 43.794 20.4194 43.794 21.261C43.794 21.6493 43.7489 21.9695 43.6098 22.2982C43.5502 22.4381 43.6572 22.4901 43.7298 22.6047C44.394 23.6466 44.738 24.9017 43.8873 25.9527C43.7986 26.062 43.6847 26.2042 43.5739 26.2791C43.7076 26.8516 43.7336 26.9265 43.7336 27.5387C43.7336 28.3528 43.2643 29.0453 42.6054 29.4489C42.4816 29.5246 42.4051 29.559 42.2737 29.6171L41.8945 29.7577C41.8945 30.467 41.5483 31.1366 41.1898 31.4921L40.9612 31.703C40.7686 31.8651 40.534 32.0218 40.2985 32.1196C40.0677 32.2152 39.8422 32.2954 39.5953 32.3566C39.3568 32.4154 39.0916 32.4689 38.8325 32.4934C38.6192 32.5133 38.779 32.6042 38.5023 33.1026L38.2737 33.3938C38.0368 33.6208 37.7891 33.7898 37.4635 33.9037C36.7098 34.1674 35.7192 34.0688 34.9762 33.896C34.8975 33.9488 34.8409 34.0214 34.7714 34.0909C34.2936 34.5702 33.5155 34.9753 32.8169 34.9753C32.2795 34.9753 31.8385 34.918 31.3707 34.6826C30.9503 34.4708 31.1253 34.48 30.6866 34.6642C29.952 34.973 28.9278 35.0624 28.2268 34.6474C27.9287 34.4708 27.6497 34.2614 27.4586 33.9763C26.8578 34.1162 26.0705 34.0764 25.4774 33.9579C24.9607 33.8547 24.4462 33.6445 24.0549 33.3006C23.8409 33.1125 23.6566 32.9161 23.4992 32.6768C23.4052 32.5331 23.4518 32.4926 23.2202 32.4957C22.5292 32.5056 21.68 32.1922 21.1954 31.7015C20.6825 31.1825 20.379 30.597 20.2567 29.8617C20.23 29.7019 20.1642 29.7355 20.0129 29.6461C19.7232 29.4749 19.4564 29.2815 19.2164 29.043C18.7165 28.5454 18.342 27.8292 18.342 27.0992L18.3634 26.4809C18.4169 26.0039 18.4192 26.2546 18.1685 25.7532C18.0852 25.5865 18.0202 25.4535 17.9544 25.2678C17.6884 24.5202 17.5455 23.7566 17.9751 23.0351C18.1226 22.7874 18.3427 22.5382 18.6011 22.4022C18.556 22.2096 18.488 22.0521 18.4551 21.8488C18.3328 21.0875 18.4475 20.2444 19.0162 19.6787C19.1415 19.5541 19.247 19.4395 19.3968 19.3393C19.5512 19.2369 19.6812 19.1643 19.8539 19.0772C19.9594 19.0237 20.2521 18.8868 20.3806 18.8838L20.3813 18.8822Z" fill="#98CDA5"/>
</g>
</g>
<defs>
<clipPath id="clip0_115_2">
<rect width="64" height="64" fill="white"/>
</clipPath>
</defs>
</svg>
