<svg width="149" height="64" viewBox="0 0 149 64" fill="none" xmlns="http://www.w3.org/2000/svg">
<g clip-path="url(#clip0_12_448)">
<path d="M64 0H0V64H64V0Z" fill="#162330"/>
<g opacity="0.5">
<path fill-rule="evenodd" clip-rule="evenodd" d="M27.6373 43.4996C27.6373 44.2792 27.5303 44.9198 27.3576 45.6184L27.1848 46.2452C26.8646 47.3237 26.3815 48.3403 25.8846 49.3432L25.3312 50.3888C24.881 51.2916 23.6297 52.9571 24.6517 53.7804C24.8558 53.9447 25.2196 54.1136 25.5781 54.1136H44.9924C45.2553 54.1136 45.6925 53.8117 45.8286 53.6099C46.1557 53.1245 46.1726 52.8822 46.1726 52.2746C46.1726 51.8656 46.0411 51.4743 46.1145 51.0775C46.1489 50.891 46.2872 50.7397 46.3728 50.5761C46.4944 50.343 46.5784 50.1465 46.6381 49.8423C46.8078 48.9801 46.0205 47.4292 47.1594 47.1456C47.2236 47.1296 47.3054 47.1097 47.3566 47.1028C47.4353 47.0921 47.5033 47.1021 47.5836 47.0891C48.2662 46.9828 50.0273 47.6165 50.6992 47.7495C51.832 47.9734 53.0091 48.0476 54.1274 47.6753C54.3735 47.5935 54.6097 47.4995 54.8436 47.3918C54.907 47.3627 54.9368 47.3375 54.9965 47.3054C56.2233 46.6358 56.7889 45.6092 56.7889 44.16C56.7889 42.7107 55.9886 41.769 56.7148 41.4671C56.9059 41.3876 57.061 41.2669 57.178 41.1132C57.4073 40.8128 57.5495 40.4864 57.5495 40.0821C57.5495 39.6166 57.1902 39.4874 57.4868 39.3001C57.7192 39.1534 57.8055 39.1465 57.9882 38.8621C58.4614 38.1238 57.8881 37.2111 57.5556 36.5377C57.4814 36.3871 57.3889 36.2381 57.3889 36.0447C57.3889 35.8177 57.6343 35.8849 57.7887 35.8849C58.8298 35.8849 60.0849 35.502 60.4824 34.4601C60.8645 33.4588 60.1965 32.4124 59.6721 31.6228C59.6293 31.5586 59.5926 31.5035 59.5483 31.447L58.3261 29.9106C58.2351 29.7959 58.1556 29.6828 58.0685 29.5682C57.9393 29.3962 57.8223 29.1944 57.7146 29.0025C57.6007 28.7984 57.4998 28.6066 57.4111 28.3864C57.0098 27.3851 57.1887 27.1826 57.1887 26.0903C57.1887 24.4247 56.9708 22.9441 56.5604 21.5017C56.3196 20.6556 56.0245 19.8668 55.6424 19.084C55.4367 18.6621 55.2395 18.2318 54.9858 17.8389L54.586 17.1991C54.4415 16.982 54.3062 16.7795 54.1534 16.5723L52.7156 14.8716C52.2768 14.4328 51.8144 14.0247 51.3359 13.6326L49.6329 12.457L48.8035 11.9869C48.5001 11.8049 47.394 11.3364 46.9813 11.1705C45.9387 10.7501 44.8364 10.4704 43.725 10.2479C42.9721 10.0973 41.7545 9.92153 40.9336 9.90013C40.8311 9.89784 40.8105 9.87873 40.6951 9.87873L39.9147 9.85962C39.4461 9.85962 39.0142 9.90319 38.5541 9.93835C38.3989 9.94981 38.2437 9.95669 38.11 9.97427C37.9579 9.99415 37.8157 9.9865 37.6644 10.0079L36.3825 10.1654C35.0464 10.3588 33.7225 10.6416 32.4292 11.0108C31.9369 11.1514 31.4592 11.3028 30.9807 11.4816C30.7529 11.5672 30.5175 11.6505 30.2912 11.7514L28.6448 12.5043C28.5783 12.538 28.5538 12.5578 28.4919 12.5915L27.4195 13.1984C27.3224 13.2565 27.2284 13.3192 27.1267 13.3857L26.0016 14.1798C25.9076 14.2502 25.822 14.3128 25.7333 14.3916L24.894 15.1116C24.6028 15.3791 24.2657 15.7246 24.0035 16.0204L23.5525 16.5295C23.2544 16.8842 22.9869 17.2389 22.7194 17.6149C22.2432 18.2837 21.8564 19.0068 21.4864 19.7406C21.2159 20.2772 20.9736 20.8834 20.7825 21.4559C20.7022 21.6959 20.6105 21.939 20.544 22.1775C20.2642 23.1811 20.1144 23.9309 19.9715 24.9628C19.9524 25.1012 19.9279 25.2617 19.921 25.3916C19.9126 25.5376 19.8981 25.7004 19.8836 25.8334C19.866 25.9901 19.8476 26.623 19.8637 26.7667C19.8797 26.9104 19.8805 27.0572 19.8805 27.2292C19.8805 28.099 19.9952 29.0086 20.1587 29.8296C20.3238 30.6551 20.5356 31.275 20.813 32.0539C20.9369 32.4017 21.0928 32.7265 21.2472 33.059C21.5354 33.6805 22.1216 34.6398 22.4962 35.1886C23.0098 35.9422 23.5793 36.663 24.1572 37.3663C24.1793 37.393 24.19 37.4022 24.2137 37.432L24.3742 37.6284C24.4958 37.753 24.5852 37.8929 24.7044 38.0183L25.3641 38.7979C25.4123 38.8491 25.4306 38.8782 25.4742 38.9279C25.52 38.9791 25.5399 39.0035 25.585 39.0571L25.8051 39.3169C25.8441 39.3636 25.8755 39.4048 25.9144 39.4476C26.0704 39.6219 26.1988 39.7939 26.354 39.9682C26.62 40.2671 26.8546 40.6064 27.0388 40.9626C27.1787 41.2332 27.2926 41.516 27.3912 41.8096C27.5494 42.2812 27.6389 42.8812 27.6389 43.5011M28.2389 18.8547C28.2611 18.7607 28.2695 18.6506 28.2901 18.5467C28.3474 18.2608 28.443 17.9963 28.5584 17.7357C28.5936 17.6562 28.6417 17.5866 28.6891 17.5071C28.7373 17.4261 28.7816 17.3657 28.8351 17.2931C29.4183 16.4951 30.3585 16.1565 31.3575 16.1565C31.4936 15.8997 31.5998 15.7384 31.7925 15.532C31.9874 15.3241 32.102 15.2018 32.3527 15.0329C33.0644 14.5536 33.9923 14.4168 34.8446 14.5888C35.8108 14.7845 35.0303 14.8005 36.342 14.1439C37.1423 13.7434 38.2651 13.7694 38.9951 14.2578C39.998 13.7273 41.1033 13.907 42.0679 14.4244C42.1466 14.4665 42.2192 14.5131 42.2903 14.5613C42.5395 14.7317 42.4677 14.7401 42.7459 14.669C43.4017 14.5024 44.186 14.5101 44.8265 14.7241C45.1475 14.8319 45.4418 14.9947 45.6872 15.2026C45.7407 15.2484 45.7904 15.2844 45.8385 15.331L46.0984 15.6107C46.2712 15.8049 46.4118 16.0258 46.5333 16.2559C47.5477 16.2559 48.4565 16.5761 49.0863 17.3214C49.4104 17.7051 49.6925 18.406 49.6925 18.8945C49.853 18.9319 50.2367 19.1719 50.3804 19.266C50.9919 19.6634 51.6516 20.3919 51.6516 21.2335C51.6516 21.6218 51.6065 21.942 51.4674 22.2707C51.4077 22.4106 51.5148 22.4626 51.5874 22.5772C52.2516 23.6191 52.5956 24.8742 51.7448 25.9252C51.6562 26.0345 51.5423 26.1766 51.4314 26.2516C51.5652 26.8241 51.5912 26.899 51.5912 27.5105C51.5912 28.3245 51.1219 29.017 50.463 29.4206C50.3391 29.4963 50.2627 29.5307 50.1312 29.5888L49.7521 29.7294C49.7521 30.4388 49.4059 31.1084 49.0474 31.4638L48.8188 31.6748C48.6262 31.8368 48.3915 31.9935 48.1561 32.0913C47.9253 32.1869 47.6998 32.2671 47.4529 32.3283C47.2144 32.3872 46.9492 32.4407 46.69 32.4651C46.4768 32.485 46.6365 32.576 46.3598 33.0743L46.1313 33.3656C45.8943 33.5926 45.6467 33.7615 45.3211 33.8754C44.5674 34.1391 43.5768 34.0405 42.8338 33.8677C42.7551 33.9205 42.6985 33.9931 42.6289 34.0627C42.1512 34.5419 41.3731 34.947 40.6744 34.947C40.1371 34.947 39.6961 34.8897 39.2283 34.6543C38.8079 34.4425 38.9829 34.4517 38.5441 34.6359C37.8096 34.9447 36.7853 35.0342 36.0844 34.6191C35.7863 34.4425 35.5073 34.2331 35.3162 33.948C34.7154 34.0879 33.9281 34.0481 33.335 33.9297C32.8182 33.8265 32.3038 33.6163 31.9125 33.2723C31.6984 33.0843 31.5142 32.8878 31.3568 32.6486C31.2627 32.5049 31.3094 32.4644 31.0778 32.4674C30.3868 32.4774 29.5376 32.164 29.053 31.6732C28.5401 31.1542 28.2366 30.5687 28.1143 29.8334C28.0876 29.6736 28.0218 29.7073 27.8705 29.6178C27.5808 29.4466 27.314 29.2532 27.074 29.0148C26.5741 28.5171 26.1996 27.8009 26.1996 27.071L26.221 26.4526C26.2745 25.9756 26.2768 26.2263 26.026 25.7249C25.9427 25.5583 25.8778 25.4253 25.812 25.2395C25.546 24.492 25.4031 23.7284 25.8334 23.0068C25.9809 22.7591 26.2011 22.51 26.4594 22.3739C26.4143 22.1813 26.3463 22.0238 26.3134 21.8205C26.1911 21.0592 26.3058 20.2161 26.8745 19.6504C26.9999 19.5259 27.1053 19.4112 27.2552 19.3111C27.4096 19.2086 27.5395 19.136 27.7122 19.0489C27.8177 18.9954 28.1105 18.8586 28.2389 18.8555V18.8547Z" fill="#94C6E0"/>
</g>
<g opacity="0.75">
<path fill-rule="evenodd" clip-rule="evenodd" d="M19.4051 43.5133C19.4051 44.293 19.2981 44.9335 19.1253 45.6322L18.9526 46.259C18.6323 47.3375 18.1492 48.3541 17.6524 49.3569L17.099 50.4026C16.6487 51.3053 15.3975 52.9709 16.4194 53.7941C16.6235 53.9585 16.9874 54.1274 17.3459 54.1274H36.7601C37.023 54.1274 37.461 53.8255 37.5963 53.6237C37.9235 53.1383 37.9403 52.896 37.9403 52.2883C37.9403 51.8794 37.8088 51.488 37.8822 51.0913C37.9166 50.9048 38.0549 50.7535 38.1406 50.5899C38.2621 50.3567 38.3462 50.1603 38.4058 49.8561C38.5755 48.9939 37.7882 47.443 38.9271 47.1594C38.9913 47.1433 39.0731 47.1235 39.1243 47.1166C39.203 47.1059 39.2711 47.1158 39.3513 47.1028C40.0339 46.9966 41.795 47.6302 42.4669 47.7632C43.5997 47.9872 44.7768 48.0613 45.8951 47.6891C46.1412 47.6073 46.3774 47.5133 46.6113 47.4055C46.6748 47.3765 46.7046 47.3512 46.7642 47.3184C47.991 46.6488 48.5566 45.6222 48.5566 44.173C48.5566 42.7237 47.7563 41.782 48.4825 41.4801C48.6736 41.4006 48.8288 41.2798 48.9457 41.1262C49.175 40.8258 49.3172 40.4994 49.3172 40.0951C49.3172 39.6296 48.9579 39.5004 49.2545 39.3131C49.4869 39.1664 49.5733 39.1595 49.7559 38.8751C50.2291 38.1368 49.6558 37.2241 49.3233 36.5507C49.2492 36.4001 49.1567 36.251 49.1567 36.0577C49.1567 35.8306 49.402 35.8979 49.5564 35.8979C50.5975 35.8979 51.8526 35.515 52.2501 34.4731C52.6323 33.4718 51.9642 32.4254 51.4398 31.6358C51.397 31.5716 51.3604 31.5165 51.316 31.46L50.0938 29.9236C50.0028 29.8089 49.9233 29.6958 49.8362 29.5811C49.707 29.4092 49.5901 29.2074 49.4823 29.0155C49.3684 28.8114 49.2675 28.6196 49.1788 28.3994C48.7775 27.3981 48.9564 27.1955 48.9564 26.1033C48.9564 24.4377 48.7386 22.9571 48.3281 21.5147C48.0873 20.6686 47.7923 19.8798 47.4101 19.097C47.2045 18.6751 47.0073 18.2448 46.7535 17.8519L46.3537 17.2121C46.2093 16.995 46.074 16.7925 45.9211 16.5853L44.4833 14.8846C44.0446 14.4458 43.5821 14.0377 43.1036 13.6455L41.4006 12.4699L40.5713 11.9999C40.2678 11.8179 39.1618 11.3494 38.749 11.1835C37.7064 10.7631 36.6042 10.4833 35.4928 10.2609C34.7399 10.1103 33.5222 9.93453 32.7013 9.91312C32.5989 9.91083 32.5782 9.89172 32.4628 9.89172L31.6824 9.87261C31.2138 9.87261 30.782 9.91618 30.3218 9.95134C30.1666 9.96281 30.0115 9.96969 29.8777 9.98727C29.7256 10.0071 29.5834 9.9995 29.4321 10.0209L28.1502 10.1784C26.8141 10.3717 25.4902 10.6546 24.1969 11.0238C23.7047 11.1644 23.2269 11.3157 22.7484 11.4946C22.5206 11.5802 22.2852 11.6635 22.059 11.7644L20.4125 12.5173C20.346 12.551 20.3215 12.5708 20.2596 12.6045L19.1872 13.2114C19.0901 13.2695 18.9961 13.3322 18.8945 13.3987L17.7693 14.1928C17.6753 14.2632 17.5897 14.3258 17.501 14.4046L16.6617 15.1246C16.3705 15.3921 16.0334 15.7376 15.7712 16.0334L15.3203 16.5425C15.0222 16.8972 14.7546 17.2518 14.4871 17.6279C14.0109 18.2967 13.6241 19.0198 13.2542 19.7536C12.9836 20.2902 12.7413 20.8964 12.5502 21.4689C12.4699 21.7089 12.3782 21.952 12.3117 22.1904C12.0319 23.1941 11.8821 23.9439 11.7392 24.9758C11.7201 25.1142 11.6956 25.2747 11.6887 25.4046C11.6803 25.5506 11.6658 25.7134 11.6513 25.8464C11.6337 26.0031 11.6154 26.636 11.6314 26.7797C11.6475 26.9234 11.6482 27.0702 11.6482 27.2422C11.6482 28.112 11.7629 29.0216 11.9265 29.8426C12.0916 30.6681 12.3033 31.288 12.5808 32.0669C12.7046 32.4147 12.8605 32.7395 13.0149 33.072C13.3031 33.6935 13.8894 34.6527 14.2639 35.2016C14.7776 35.9552 15.347 36.676 15.9249 37.3793C15.9471 37.406 15.9578 37.4152 15.9815 37.445L16.142 37.6414C16.2635 37.766 16.3529 37.9059 16.4722 38.0313L17.1318 38.8109C17.18 38.8621 17.1983 38.8912 17.2419 38.9409C17.2878 38.9921 17.3076 39.0165 17.3527 39.07L17.5729 39.3299C17.6119 39.3766 17.6432 39.4178 17.6822 39.4606C17.8381 39.6349 17.9665 39.8069 18.1217 39.9812C18.3877 40.28 18.6224 40.6194 18.8066 40.9756C18.9464 41.2462 19.0603 41.529 19.1589 41.8225C19.3172 42.2942 19.4066 42.8942 19.4066 43.5141M20.0066 18.8677C20.0288 18.7737 20.0372 18.6636 20.0578 18.5597C20.1152 18.2738 20.2107 18.0093 20.3261 17.7487C20.3613 17.6692 20.4095 17.5996 20.4568 17.5201C20.505 17.4391 20.5493 17.3787 20.6028 17.3061C21.1861 16.5081 22.1262 16.1695 23.1253 16.1695C23.2613 15.9127 23.3676 15.7514 23.5602 15.545C23.7551 15.3371 23.8698 15.2148 24.1205 15.0459C24.8321 14.5666 25.76 14.4298 26.6123 14.6018C27.5785 14.7975 26.7981 14.8135 28.1097 14.1569C28.91 13.7564 30.0329 13.7824 30.7629 14.2708C31.7657 13.7403 32.871 13.92 33.8356 14.4374C33.9144 14.4795 33.987 14.5261 34.0581 14.5743C34.3072 14.7447 34.2354 14.7531 34.5136 14.682C35.1694 14.5154 35.9537 14.523 36.5942 14.7371C36.9153 14.8448 37.2096 15.0077 37.4549 15.2156C37.5084 15.2614 37.5581 15.2974 37.6063 15.344L37.8662 15.6237C38.0397 15.8179 38.1795 16.0388 38.3011 16.2689C39.3154 16.2689 40.2242 16.5891 40.8541 17.3344C41.1782 17.7181 41.4602 18.419 41.4602 18.9075C41.6207 18.9449 42.0045 19.1849 42.1482 19.279C42.7596 19.6764 43.4193 20.4049 43.4193 21.2464C43.4193 21.6347 43.3742 21.955 43.2351 22.2837C43.1755 22.4236 43.2825 22.4756 43.3551 22.5902C44.0193 23.6321 44.3633 24.8871 43.5126 25.9382C43.4239 26.0475 43.31 26.1896 43.1992 26.2645C43.3329 26.8371 43.3589 26.912 43.3589 27.5235C43.3589 28.3375 42.8896 29.03 42.2307 29.4336C42.1069 29.5093 42.0304 29.5437 41.899 29.6018L41.5198 29.7424C41.5198 30.4518 41.1736 31.1214 40.8151 31.4768L40.5865 31.6878C40.3939 31.8498 40.1593 32.0065 39.9238 32.1043C39.693 32.1999 39.4675 32.2801 39.2206 32.3413C38.9821 32.4001 38.7169 32.4537 38.4578 32.4781C38.2445 32.498 38.4043 32.5889 38.1276 33.0873L37.899 33.3785C37.6621 33.6056 37.4144 33.7745 37.0888 33.8884C36.3351 34.1521 35.3445 34.0535 34.6015 33.8807C34.5228 33.9335 34.4662 34.0061 34.3967 34.0756C33.9189 34.5549 33.1408 34.96 32.4422 34.96C31.9048 34.96 31.4638 34.9027 30.996 34.6673C30.5756 34.4555 30.7506 34.4647 30.3119 34.6489C29.5773 34.9577 28.5531 35.0472 27.8521 34.6321C27.554 34.4555 27.275 34.2461 27.0839 33.961C26.4831 34.1009 25.6958 34.0611 25.1027 33.9426C24.586 33.8395 24.0715 33.6293 23.6802 33.2853C23.4662 33.0973 23.282 32.9008 23.1245 32.6616C23.0305 32.5179 23.0771 32.4773 22.8455 32.4804C22.1545 32.4903 21.3053 32.177 20.8207 31.6862C20.3078 31.1672 20.0043 30.5817 19.882 29.8464C19.8553 29.6866 19.7895 29.7203 19.6382 29.6308C19.3485 29.4596 19.0817 29.2662 18.8417 29.0277C18.3418 28.5301 17.9673 27.8139 17.9673 27.0839L17.9887 26.4656C18.0422 25.9886 18.0445 26.2393 17.7938 25.7379C17.7105 25.5713 17.6455 25.4383 17.5797 25.2525C17.3137 24.505 17.1708 23.7414 17.6004 23.0198C17.7479 22.7721 17.968 22.5229 18.2264 22.3869C18.1813 22.1943 18.1133 22.0368 18.0804 21.8335C17.9581 21.0722 18.0728 20.2291 18.6415 19.6634C18.7668 19.5388 18.8723 19.4242 19.0221 19.3241C19.1765 19.2216 19.3065 19.149 19.4792 19.0619C19.5847 19.0084 19.8774 18.8716 20.0059 18.8685L20.0066 18.8677Z" fill="#96D1CC"/>
</g>
<g opacity="0.7">
<path fill-rule="evenodd" clip-rule="evenodd" d="M11.1858 43.5279C11.1858 44.3075 11.0788 44.9481 10.906 45.6467L10.7333 46.2735C10.413 47.352 9.92994 48.3686 9.4331 49.3715L8.87969 50.4171C8.42948 51.3199 7.1782 52.9854 8.20017 53.8086C8.40425 53.973 8.76809 54.1419 9.12658 54.1419H28.5408C28.8038 54.1419 29.2418 53.84 29.3771 53.6382C29.7042 53.1528 29.721 52.9105 29.721 52.3028C29.721 51.8939 29.5896 51.5025 29.6629 51.1058C29.6973 50.9193 29.8357 50.768 29.9213 50.6044C30.0428 50.3713 30.1269 50.1748 30.1865 49.8706C30.3562 49.0084 29.5689 47.4575 30.7078 47.1739C30.772 47.1579 30.8538 47.138 30.905 47.1311C30.9838 47.1204 31.0518 47.1303 31.1321 47.1173C31.8146 47.0111 33.5757 47.6448 34.2476 47.7778C35.3804 48.0017 36.5576 48.0759 37.6758 47.7036C37.922 47.6218 38.1581 47.5278 38.392 47.42C38.4555 47.391 38.4853 47.3658 38.5449 47.3329C39.7717 46.6633 40.3374 45.6368 40.3374 44.1875C40.3374 42.7383 39.5371 41.7966 40.2632 41.4946C40.4543 41.4151 40.6095 41.2936 40.7264 41.1407C40.9557 40.8403 41.0979 40.5139 41.0979 40.1096C41.0979 39.6441 40.7387 39.5149 41.0352 39.3276C41.2676 39.1809 41.354 39.174 41.5367 38.8897C42.0098 38.1513 41.4365 37.2386 41.104 36.5652C41.0299 36.4146 40.9374 36.2656 40.9374 36.0722C40.9374 35.8452 41.1828 35.9124 41.3372 35.9124C42.3782 35.9124 43.6333 35.5295 44.0308 34.4876C44.413 33.4863 43.7449 32.4399 43.2206 31.6503C43.1778 31.5853 43.1411 31.5311 43.0967 31.4745L41.8745 29.9381C41.7836 29.8235 41.7041 29.7103 41.6169 29.5957C41.4878 29.4237 41.3708 29.2219 41.263 29.03C41.1491 28.826 41.0482 28.6341 40.9596 28.414C40.5583 27.4126 40.7371 27.2101 40.7371 26.1178C40.7371 24.4522 40.5193 22.9716 40.1088 21.5293C39.868 20.6831 39.573 19.8943 39.1908 19.1116C38.9852 18.6896 38.788 18.2593 38.5342 17.8664L38.1345 17.2266C37.99 17.0095 37.8547 16.807 37.7018 16.5998L36.264 14.8991C35.8253 14.4604 35.3628 14.0522 34.8843 13.6601L33.1813 12.4845L32.352 12.0144C32.0485 11.8325 30.9425 11.3639 30.5297 11.198C29.4871 10.7776 28.3849 10.4979 27.2735 10.2754C26.5206 10.1249 25.303 9.94905 24.482 9.92765C24.3796 9.92535 24.359 9.90625 24.2435 9.90625L23.4631 9.88714C22.9946 9.88714 22.5627 9.93071 22.1025 9.96587C21.9474 9.97733 21.7922 9.98421 21.6584 10.0018C21.5063 10.0217 21.3642 10.014 21.2128 10.0354L19.931 10.1929C18.5948 10.3863 17.271 10.6691 15.9776 11.0383C15.4854 11.1789 15.0077 11.3303 14.5292 11.5091C14.3014 11.5947 14.0659 11.6781 13.8397 11.779L12.1932 12.5319C12.1267 12.5655 12.1023 12.5854 12.0404 12.619L10.968 13.2259C10.8709 13.284 10.7769 13.3467 10.6752 13.4132L9.55004 14.2074C9.45603 14.2777 9.37042 14.3404 9.28175 14.4191L8.44247 15.1391C8.15125 15.4067 7.81416 15.7522 7.55198 16.048L7.101 16.557C6.8029 16.9117 6.53537 17.2664 6.26784 17.6424C5.79163 18.3113 5.40486 19.0344 5.03491 19.7682C4.76432 20.3047 4.52201 20.9109 4.33092 21.4834C4.25066 21.7234 4.15894 21.9665 4.09244 22.205C3.81268 23.2086 3.66286 23.9584 3.51992 24.9903C3.50081 25.1287 3.47635 25.2892 3.46947 25.4191C3.46107 25.5651 3.44654 25.728 3.43202 25.861C3.41444 26.0177 3.3961 26.6506 3.41215 26.7943C3.4282 26.938 3.42896 27.0847 3.42896 27.2567C3.42896 28.1266 3.54362 29.0362 3.70719 29.8571C3.8723 30.6826 4.08403 31.3025 4.3615 32.0814C4.48532 32.4292 4.64126 32.7541 4.79566 33.0866C5.08383 33.708 5.6701 34.6673 6.04464 35.2161C6.5583 35.9698 7.12775 36.6906 7.70562 37.3938C7.72778 37.4205 7.73849 37.4297 7.76218 37.4595L7.9227 37.656C8.04423 37.7806 8.13367 37.9204 8.25291 38.0458L8.91256 38.8254C8.96071 38.8767 8.97906 38.9057 9.02263 38.9554C9.06849 39.0066 9.08836 39.0311 9.13346 39.0846L9.3536 39.3445C9.39258 39.3911 9.42392 39.4324 9.46291 39.4752C9.61884 39.6494 9.74725 39.8214 9.90242 39.9957C10.1684 40.2946 10.4031 40.634 10.5873 40.9901C10.7272 41.2607 10.8411 41.5436 10.9397 41.8371C11.0979 42.3087 11.1873 42.9087 11.1873 43.5286M11.7874 18.8823C11.8095 18.7882 11.8179 18.6782 11.8386 18.5742C11.8959 18.2883 11.9914 18.0239 12.1069 17.7632C12.142 17.6837 12.1902 17.6142 12.2376 17.5347C12.2857 17.4536 12.3301 17.3933 12.3836 17.3206C12.9668 16.5226 13.907 16.184 14.906 16.184C15.042 15.9272 15.1483 15.7659 15.3409 15.5595C15.5358 15.3516 15.6505 15.2293 15.9012 15.0604C16.6128 14.5811 17.5408 14.4443 18.393 14.6163C19.3592 14.812 18.5788 14.828 19.8905 14.1714C20.6907 13.7709 21.8136 13.7969 22.5436 14.2853C23.5464 13.7549 24.6517 13.9345 25.6164 14.452C25.6951 14.494 25.7677 14.5406 25.8388 14.5888C26.088 14.7592 26.0161 14.7676 26.2944 14.6966C26.9502 14.5299 27.7344 14.5376 28.375 14.7516C28.696 14.8594 28.9903 15.0222 29.2356 15.2301C29.2892 15.276 29.3388 15.3119 29.387 15.3585L29.6469 15.6383C29.8204 15.8324 29.9603 16.0533 30.0818 16.2834C31.0961 16.2834 32.005 16.6037 32.6348 17.3489C32.9589 17.7326 33.241 18.4336 33.241 18.922C33.4015 18.9595 33.7852 19.1995 33.9289 19.2935C34.5404 19.691 35.2 20.4194 35.2 21.261C35.2 21.6493 35.1549 21.9695 35.0158 22.2982C34.9562 22.4381 35.0632 22.4901 35.1358 22.6047C35.8001 23.6466 36.144 24.9017 35.2933 25.9527C35.2046 26.062 35.0907 26.2042 34.9799 26.2791C35.1137 26.8516 35.1396 26.9265 35.1396 27.5388C35.1396 28.3528 34.6703 29.0453 34.0114 29.4489C33.8876 29.5246 33.8112 29.559 33.6797 29.6171L33.3006 29.7577C33.3006 30.4671 32.9543 31.1366 32.5958 31.4921L32.3673 31.703C32.1747 31.8651 31.94 32.0218 31.7046 32.1196C31.4737 32.2152 31.2482 32.2954 31.0013 32.3566C30.7629 32.4154 30.4976 32.4689 30.2385 32.4934C30.0252 32.5133 30.185 32.6042 29.9083 33.1026L29.6797 33.3938C29.4428 33.6208 29.1951 33.7898 28.8695 33.9037C28.1158 34.1674 27.1252 34.0688 26.3823 33.896C26.3035 33.9488 26.247 34.0214 26.1774 34.0909C25.6997 34.5702 24.9215 34.9753 24.2229 34.9753C23.6856 34.9753 23.2445 34.918 22.7767 34.6826C22.3563 34.4708 22.5314 34.48 22.0926 34.6642C21.358 34.973 20.3338 35.0625 19.6329 34.6474C19.3348 34.4708 19.0558 34.2614 18.8647 33.9763C18.2639 34.1162 17.4766 34.0764 16.8834 33.9579C16.3667 33.8547 15.8523 33.6445 15.4609 33.3006C15.2469 33.1125 15.0627 32.9161 14.9052 32.6769C14.8112 32.5331 14.8578 32.4926 14.6262 32.4957C13.9352 32.5056 13.086 32.1922 12.6014 31.7015C12.0885 31.1825 11.7851 30.597 11.6628 29.8617C11.636 29.7019 11.5703 29.7356 11.4189 29.6461C11.1292 29.4749 10.8625 29.2815 10.6225 29.043C10.1226 28.5454 9.74802 27.8292 9.74802 27.0992L9.76942 26.4809C9.82292 26.0039 9.82522 26.2546 9.5745 25.7532C9.49119 25.5865 9.42622 25.4535 9.36048 25.2678C9.09448 24.5203 8.95154 23.7566 9.38112 23.0351C9.52864 22.7874 9.74878 22.5382 10.0071 22.4022C9.96204 22.2096 9.89401 22.0521 9.86114 21.8488C9.73884 21.0875 9.8535 20.2444 10.4222 19.6787C10.5475 19.5541 10.653 19.4395 10.8028 19.3393C10.9573 19.2369 11.0872 19.1643 11.2599 19.0772C11.3654 19.0237 11.6582 18.8868 11.7866 18.8838L11.7874 18.8823Z" fill="#98CDA5"/>
</g>
</g>
<path d="M72.75 18.5V6.86364H75.9091V15.9545H80.6136V18.5H72.75ZM84.9134 18.5H81.5043L85.3452 6.86364H89.6634L93.5043 18.5H90.0952L87.5497 10.0682H87.4588L84.9134 18.5ZM84.277 13.9091H90.6861V16.2727H84.277V13.9091ZM72.75 37.5V25.8636H81.1364V28.4091H75.9091V30.4091H80.7045V32.9545H75.9091V34.9545H81.1136V37.5H72.75ZM88.9759 29.5C88.9455 29.1212 88.8035 28.8258 88.5497 28.6136C88.2997 28.4015 87.919 28.2955 87.4077 28.2955C87.0819 28.2955 86.8149 28.3352 86.6065 28.4148C86.402 28.4905 86.2505 28.5947 86.152 28.7273C86.0535 28.8598 86.0024 29.0114 85.9986 29.1818C85.991 29.322 86.0156 29.4489 86.0724 29.5625C86.133 29.6723 86.2277 29.7727 86.3565 29.8636C86.4853 29.9508 86.6501 30.0303 86.8509 30.1023C87.0516 30.1742 87.2902 30.2386 87.5668 30.2955L88.5213 30.5C89.1652 30.6364 89.7164 30.8163 90.1747 31.0398C90.633 31.2633 91.008 31.5265 91.2997 31.8295C91.5914 32.1288 91.8054 32.4659 91.9418 32.8409C92.0819 33.2159 92.1539 33.625 92.1577 34.0682C92.1539 34.8333 91.9626 35.4811 91.5838 36.0114C91.205 36.5417 90.6634 36.9451 89.9588 37.2216C89.258 37.4981 88.4152 37.6364 87.4304 37.6364C86.419 37.6364 85.5365 37.4867 84.7827 37.1875C84.0327 36.8883 83.4493 36.428 83.0327 35.8068C82.6198 35.1818 82.4115 34.3826 82.4077 33.4091H85.4077C85.4266 33.7652 85.5156 34.0644 85.6747 34.3068C85.8338 34.5492 86.0573 34.733 86.3452 34.858C86.6368 34.983 86.9834 35.0455 87.3849 35.0455C87.7221 35.0455 88.0043 35.0038 88.2315 34.9205C88.4588 34.8371 88.6312 34.7216 88.7486 34.5739C88.866 34.4261 88.9266 34.2576 88.9304 34.0682C88.9266 33.8902 88.8679 33.7348 88.7543 33.6023C88.6444 33.4659 88.4626 33.3447 88.2088 33.2386C87.955 33.1288 87.6122 33.0265 87.1804 32.9318L86.0213 32.6818C84.991 32.4583 84.1785 32.0852 83.5838 31.5625C82.9929 31.036 82.6993 30.3182 82.7031 29.4091C82.6993 28.6705 82.8963 28.0246 83.294 27.4716C83.6955 26.9148 84.2505 26.4811 84.9588 26.1705C85.6709 25.8598 86.4872 25.7045 87.4077 25.7045C88.3471 25.7045 89.1596 25.8617 89.8452 26.1761C90.5308 26.4905 91.0592 26.9337 91.4304 27.5057C91.8054 28.0739 91.9948 28.7386 91.9986 29.5H88.9759ZM104.223 30.2273H101.018C100.996 29.9621 100.935 29.7216 100.837 29.5057C100.742 29.2898 100.609 29.1042 100.439 28.9489C100.272 28.7898 100.07 28.6686 99.831 28.5852C99.5923 28.4981 99.3215 28.4545 99.0185 28.4545C98.4882 28.4545 98.0393 28.5833 97.6719 28.8409C97.3082 29.0985 97.0317 29.4678 96.8423 29.9489C96.6567 30.4299 96.5639 31.0076 96.5639 31.6818C96.5639 32.3939 96.6586 32.9905 96.848 33.4716C97.0412 33.9489 97.3196 34.3087 97.6832 34.5511C98.0469 34.7898 98.4844 34.9091 98.9957 34.9091C99.2874 34.9091 99.5488 34.8731 99.7798 34.8011C100.011 34.7254 100.212 34.6174 100.382 34.4773C100.553 34.3371 100.691 34.1686 100.797 33.9716C100.907 33.7708 100.981 33.5455 101.018 33.2955L104.223 33.3182C104.185 33.8106 104.047 34.3125 103.808 34.8239C103.57 35.3314 103.231 35.8011 102.791 36.233C102.356 36.661 101.816 37.0057 101.172 37.267C100.528 37.5284 99.7798 37.6591 98.9276 37.6591C97.8594 37.6591 96.901 37.4299 96.0526 36.9716C95.2079 36.5133 94.5393 35.839 94.0469 34.9489C93.5582 34.0587 93.3139 32.9697 93.3139 31.6818C93.3139 30.3864 93.5639 29.2955 94.0639 28.4091C94.5639 27.5189 95.2382 26.8466 96.0866 26.392C96.9351 25.9337 97.8821 25.7045 98.9276 25.7045C99.6624 25.7045 100.339 25.8049 100.956 26.0057C101.573 26.2064 102.115 26.5 102.581 26.8864C103.047 27.2689 103.422 27.7405 103.706 28.3011C103.99 28.8617 104.162 29.5038 104.223 30.2273ZM112.543 25.8636H115.702V33.3182C115.702 34.2045 115.49 34.9716 115.065 35.6193C114.645 36.2633 114.058 36.7614 113.304 37.1136C112.55 37.4621 111.675 37.6364 110.679 37.6364C109.675 37.6364 108.796 37.4621 108.043 37.1136C107.289 36.7614 106.702 36.2633 106.281 35.6193C105.865 34.9716 105.656 34.2045 105.656 33.3182V25.8636H108.815V33.0455C108.815 33.4053 108.895 33.7273 109.054 34.0114C109.213 34.2917 109.433 34.5114 109.713 34.6705C109.997 34.8295 110.319 34.9091 110.679 34.9091C111.043 34.9091 111.365 34.8295 111.645 34.6705C111.925 34.5114 112.145 34.2917 112.304 34.0114C112.463 33.7273 112.543 33.4053 112.543 33.0455V25.8636ZM117.203 37.5V25.8636H125.589V28.4091H120.362V30.4091H125.158V32.9545H120.362V34.9545H125.567V37.5H117.203ZM127.156 37.5V25.8636H130.315V34.9545H135.02V37.5H127.156ZM139.32 37.5H135.911L139.751 25.8636H144.07L147.911 37.5H144.501L141.956 29.0682H141.865L139.32 37.5ZM138.683 32.9091H145.092V35.2727H138.683V32.9091ZM75.9091 44.8636V56.5H72.75V44.8636H75.9091ZM87.4744 44.8636V56.5H84.8381L80.6335 50.3864H80.5653V56.5H77.4062V44.8636H80.0881L84.2244 50.9545H84.3153V44.8636H87.4744ZM88.9688 56.5V44.8636H97.1506V47.4091H92.1278V49.4091H96.6506V51.9545H92.1278V56.5H88.9688ZM101.472 44.8636V56.5H98.3125V44.8636H101.472ZM113.037 44.8636V56.5H110.401L106.196 50.3864H106.128V56.5H102.969V44.8636H105.651L109.787 50.9545H109.878V44.8636H113.037ZM117.69 44.8636V56.5H114.531V44.8636H117.69ZM118.869 47.4091V44.8636H128.983V47.4091H125.483V56.5H122.369V47.4091H118.869ZM131.726 56.5H128.317L132.158 44.8636H136.476L140.317 56.5H136.908L134.362 48.0682H134.271L131.726 56.5ZM131.089 51.9091H137.499V54.2727H131.089V51.9091Z" fill="black"/>
<defs>
<clipPath id="clip0_12_448">
<rect width="64" height="64" fill="white"/>
</clipPath>
</defs>
</svg>
