<svg width="77" height="58" viewBox="0 0 77 58" fill="none" xmlns="http://www.w3.org/2000/svg">
<path d="M0.75 15.5V3.86364H3.90909V12.9545H8.61364V15.5H0.75ZM12.9134 15.5H9.50426L13.3452 3.86364H17.6634L21.5043 15.5H18.0952L15.5497 7.06818H15.4588L12.9134 15.5ZM12.277 10.9091H18.6861V13.2727H12.277V10.9091ZM0.75 34.5V22.8636H9.13636V25.4091H3.90909V27.4091H8.70455V29.9545H3.90909V31.9545H9.11364V34.5H0.75ZM16.9759 26.5C16.9455 26.1212 16.8035 25.8258 16.5497 25.6136C16.2997 25.4015 15.919 25.2955 15.4077 25.2955C15.0819 25.2955 14.8149 25.3352 14.6065 25.4148C14.402 25.4905 14.2505 25.5947 14.152 25.7273C14.0535 25.8598 14.0024 26.0114 13.9986 26.1818C13.991 26.322 14.0156 26.4489 14.0724 26.5625C14.133 26.6723 14.2277 26.7727 14.3565 26.8636C14.4853 26.9508 14.6501 27.0303 14.8509 27.1023C15.0516 27.1742 15.2902 27.2386 15.5668 27.2955L16.5213 27.5C17.1652 27.6364 17.7164 27.8163 18.1747 28.0398C18.633 28.2633 19.008 28.5265 19.2997 28.8295C19.5914 29.1288 19.8054 29.4659 19.9418 29.8409C20.0819 30.2159 20.1539 30.625 20.1577 31.0682C20.1539 31.8333 19.9626 32.4811 19.5838 33.0114C19.205 33.5417 18.6634 33.9451 17.9588 34.2216C17.258 34.4981 16.4152 34.6364 15.4304 34.6364C14.419 34.6364 13.5365 34.4867 12.7827 34.1875C12.0327 33.8883 11.4493 33.428 11.0327 32.8068C10.6198 32.1818 10.4115 31.3826 10.4077 30.4091H13.4077C13.4266 30.7652 13.5156 31.0644 13.6747 31.3068C13.8338 31.5492 14.0573 31.733 14.3452 31.858C14.6368 31.983 14.9834 32.0455 15.3849 32.0455C15.7221 32.0455 16.0043 32.0038 16.2315 31.9205C16.4588 31.8371 16.6312 31.7216 16.7486 31.5739C16.866 31.4261 16.9266 31.2576 16.9304 31.0682C16.9266 30.8902 16.8679 30.7348 16.7543 30.6023C16.6444 30.4659 16.4626 30.3447 16.2088 30.2386C15.955 30.1288 15.6122 30.0265 15.1804 29.9318L14.0213 29.6818C12.991 29.4583 12.1785 29.0852 11.5838 28.5625C10.9929 28.036 10.6993 27.3182 10.7031 26.4091C10.6993 25.6705 10.8963 25.0246 11.294 24.4716C11.6955 23.9148 12.2505 23.4811 12.9588 23.1705C13.6709 22.8598 14.4872 22.7045 15.4077 22.7045C16.3471 22.7045 17.1596 22.8617 17.8452 23.1761C18.5308 23.4905 19.0592 23.9337 19.4304 24.5057C19.8054 25.0739 19.9948 25.7386 19.9986 26.5H16.9759ZM32.223 27.2273H29.0185C28.9957 26.9621 28.9351 26.7216 28.8366 26.5057C28.742 26.2898 28.6094 26.1042 28.4389 25.9489C28.2723 25.7898 28.0696 25.6686 27.831 25.5852C27.5923 25.4981 27.3215 25.4545 27.0185 25.4545C26.4882 25.4545 26.0393 25.5833 25.6719 25.8409C25.3082 26.0985 25.0317 26.4678 24.8423 26.9489C24.6567 27.4299 24.5639 28.0076 24.5639 28.6818C24.5639 29.3939 24.6586 29.9905 24.848 30.4716C25.0412 30.9489 25.3196 31.3087 25.6832 31.5511C26.0469 31.7898 26.4844 31.9091 26.9957 31.9091C27.2874 31.9091 27.5488 31.8731 27.7798 31.8011C28.0109 31.7254 28.2116 31.6174 28.3821 31.4773C28.5526 31.3371 28.6908 31.1686 28.7969 30.9716C28.9067 30.7708 28.9806 30.5455 29.0185 30.2955L32.223 30.3182C32.1851 30.8106 32.0469 31.3125 31.8082 31.8239C31.5696 32.3314 31.2306 32.8011 30.7912 33.233C30.3556 33.661 29.8158 34.0057 29.1719 34.267C28.5279 34.5284 27.7798 34.6591 26.9276 34.6591C25.8594 34.6591 24.901 34.4299 24.0526 33.9716C23.2079 33.5133 22.5393 32.839 22.0469 31.9489C21.5582 31.0587 21.3139 29.9697 21.3139 28.6818C21.3139 27.3864 21.5639 26.2955 22.0639 25.4091C22.5639 24.5189 23.2382 23.8466 24.0866 23.392C24.9351 22.9337 25.8821 22.7045 26.9276 22.7045C27.6624 22.7045 28.3385 22.8049 28.956 23.0057C29.5734 23.2064 30.1151 23.5 30.581 23.8864C31.0469 24.2689 31.4219 24.7405 31.706 25.3011C31.9901 25.8617 32.1624 26.5038 32.223 27.2273ZM40.5426 22.8636H43.7017V30.3182C43.7017 31.2045 43.4896 31.9716 43.0653 32.6193C42.6449 33.2633 42.0578 33.7614 41.304 34.1136C40.5502 34.4621 39.6752 34.6364 38.679 34.6364C37.6752 34.6364 36.7964 34.4621 36.0426 34.1136C35.2888 33.7614 34.7017 33.2633 34.2812 32.6193C33.8646 31.9716 33.6562 31.2045 33.6562 30.3182V22.8636H36.8153V30.0455C36.8153 30.4053 36.8949 30.7273 37.054 31.0114C37.2131 31.2917 37.4328 31.5114 37.7131 31.6705C37.9972 31.8295 38.3191 31.9091 38.679 31.9091C39.0426 31.9091 39.3646 31.8295 39.6449 31.6705C39.9252 31.5114 40.1449 31.2917 40.304 31.0114C40.4631 30.7273 40.5426 30.4053 40.5426 30.0455V22.8636ZM45.2031 34.5V22.8636H53.5895V25.4091H48.3622V27.4091H53.1577V29.9545H48.3622V31.9545H53.5668V34.5H45.2031ZM55.1562 34.5V22.8636H58.3153V31.9545H63.0199V34.5H55.1562ZM67.3196 34.5H63.9105L67.7514 22.8636H72.0696L75.9105 34.5H72.5014L69.956 26.0682H69.8651L67.3196 34.5ZM66.6832 29.9091H73.0923V32.2727H66.6832V29.9091ZM3.90909 41.8636V53.5H0.75V41.8636H3.90909ZM15.4744 41.8636V53.5H12.8381L8.63352 47.3864H8.56534V53.5H5.40625V41.8636H8.08807L12.2244 47.9545H12.3153V41.8636H15.4744ZM16.9688 53.5V41.8636H25.1506V44.4091H20.1278V46.4091H24.6506V48.9545H20.1278V53.5H16.9688ZM29.4716 41.8636V53.5H26.3125V41.8636H29.4716ZM41.0369 41.8636V53.5H38.4006L34.196 47.3864H34.1278V53.5H30.9688V41.8636H33.6506L37.7869 47.9545H37.8778V41.8636H41.0369ZM45.6903 41.8636V53.5H42.5312V41.8636H45.6903ZM46.8693 44.4091V41.8636H56.983V44.4091H53.483V53.5H50.3693V44.4091H46.8693ZM59.7259 53.5H56.3168L60.1577 41.8636H64.4759L68.3168 53.5H64.9077L62.3622 45.0682H62.2713L59.7259 53.5ZM59.0895 48.9091H65.4986V51.2727H59.0895V48.9091Z" fill="black"/>
</svg>
