<svg width="902" height="613" viewBox="0 0 902 613" fill="none" xmlns="http://www.w3.org/2000/svg">
<g clip-path="url(#clip0_454_190)">
<mask id="mask0_454_190" style="mask-type:luminance" maskUnits="userSpaceOnUse" x="0" y="-117" width="234" height="730">
<path d="M0 612.62H233.86L0 -116.52V612.62Z" fill="white"/>
</mask>
<g mask="url(#mask0_454_190)">
<mask id="mask1_454_190" style="mask-type:luminance" maskUnits="userSpaceOnUse" x="-310" y="-449" width="1111" height="1281">
<path d="M800.21 -448.15H-309.55V831.5H800.21V-448.15Z" fill="white"/>
</mask>
<g mask="url(#mask1_454_190)">
<mask id="mask2_454_190" style="mask-type:luminance" maskUnits="userSpaceOnUse" x="-310" y="-449" width="1111" height="1281">
<path d="M61.0102 831.5L-309.55 -93.5799L429.64 -448.15L800.2 476.93L61.0102 831.5Z" fill="white"/>
</mask>
<g mask="url(#mask2_454_190)">
<path d="M621.337 -856.205L-780.067 -241.907L-130.684 1239.54L1270.72 625.237L621.337 -856.205Z" fill="url(#paint0_linear_454_190)"/>
</g>
</g>
</g>
<g style="mix-blend-mode:color-dodge">
<mask id="mask3_454_190" style="mask-type:luminance" maskUnits="userSpaceOnUse" x="-152" y="0" width="989" height="653">
<path d="M836.73 0H-152V652.27H836.73V0Z" fill="white"/>
</mask>
<g mask="url(#mask3_454_190)">
<g opacity="0.11">
<mask id="mask4_454_190" style="mask-type:luminance" maskUnits="userSpaceOnUse" x="394" y="151" width="395" height="467">
<path d="M788.07 151.22H394.75V617.02H788.07V151.22Z" fill="white"/>
</mask>
<g mask="url(#mask4_454_190)">
<path fill-rule="evenodd" clip-rule="evenodd" d="M693.03 303.14C693.03 362.45 642.02 410.53 579.09 410.53C516.16 410.53 465.15 362.45 465.15 303.14C465.15 243.83 516.16 195.75 579.09 195.75C642.02 195.75 693.03 243.83 693.03 303.14ZM469.87 505.31C469.87 513.52 468.84 520.26 467.17 527.61L465.5 534.21C462.41 545.57 457.74 556.26 452.95 566.81L447.61 577.82C443.26 587.32 431.18 604.85 441.05 613.51C443.02 615.24 446.54 617.02 449.99 617.02H637.43C639.97 617.02 644.19 613.84 645.5 611.72C648.65 606.61 648.82 604.06 648.82 597.66C648.82 593.36 647.55 589.24 648.26 585.06C648.59 583.1 649.93 581.51 650.75 579.78C651.92 577.33 652.74 575.26 653.31 572.05C654.95 562.98 647.35 546.65 658.35 543.66C658.97 543.49 659.76 543.28 660.25 543.21C661.01 543.1 661.66 543.2 662.44 543.07C669.03 541.95 686.03 548.62 692.52 550.02C703.46 552.38 714.82 553.16 725.62 549.24C728 548.38 730.28 547.39 732.53 546.25C733.14 545.94 733.43 545.68 734.01 545.34C745.86 538.29 751.32 527.49 751.32 512.24C751.32 496.99 743.6 487.07 750.6 483.9C752.45 483.06 753.94 481.79 755.07 480.18C757.29 477.02 758.65 473.59 758.65 469.33C758.65 464.43 755.18 463.07 758.05 461.1C760.29 459.55 761.13 459.48 762.89 456.49C767.46 448.72 761.92 439.11 758.71 432.02C757.99 430.44 757.1 428.87 757.1 426.83C757.1 424.44 759.47 425.15 760.96 425.15C771.01 425.15 783.13 421.12 786.97 410.16C790.66 399.62 784.21 388.61 779.14 380.3C778.73 379.62 778.37 379.05 777.95 378.45L766.15 362.28C765.27 361.08 764.5 359.89 763.67 358.68C762.42 356.87 761.29 354.75 760.26 352.72C759.16 350.57 758.18 348.55 757.33 346.23C753.45 335.69 755.18 333.56 755.18 322.07C755.18 304.54 753.08 288.95 749.11 273.77C746.78 264.86 743.94 256.56 740.25 248.33C738.26 243.89 736.36 239.36 733.91 235.22L730.05 228.49C728.65 226.2 727.35 224.08 725.87 221.89L711.99 203.99C707.75 199.37 703.29 195.07 698.67 190.95L682.23 178.58L674.22 173.63C671.29 171.72 660.61 166.79 656.63 165.03C646.57 160.6 635.92 157.66 625.19 155.32C617.92 153.74 606.17 151.89 598.24 151.66C597.25 151.63 597.05 151.44 595.94 151.44L588.4 151.24C583.88 151.24 579.71 151.7 575.26 152.07C573.77 152.19 572.26 152.26 570.97 152.45C569.5 152.66 568.13 152.58 566.66 152.81L554.28 154.47C541.38 156.5 528.6 159.48 516.11 163.36C511.36 164.84 506.75 166.43 502.13 168.32C499.93 169.22 497.65 170.1 495.47 171.16L479.58 179.08C478.94 179.43 478.7 179.64 478.1 179.99L467.75 186.38C466.81 186.99 465.9 187.65 464.92 188.35L454.06 196.71C453.15 197.45 452.33 198.11 451.47 198.94L443.37 206.52C440.56 209.34 437.31 212.97 434.77 216.09L430.42 221.45C427.54 225.18 424.96 228.91 422.37 232.88C417.77 239.92 414.04 247.53 410.47 255.25C407.86 260.9 405.52 267.28 403.67 273.3C402.9 275.83 402.01 278.38 401.37 280.89C398.67 291.46 397.22 299.34 395.84 310.21C395.66 311.67 395.42 313.35 395.35 314.72C395.27 316.26 395.13 317.97 394.99 319.37C394.82 321.02 394.64 327.68 394.8 329.2C394.96 330.71 394.97 332.26 394.97 334.07C394.97 343.22 396.08 352.8 397.66 361.44C399.25 370.13 401.3 376.66 403.98 384.85C405.17 388.51 406.68 391.93 408.17 395.43C410.95 401.97 416.62 412.07 420.23 417.84C425.19 425.77 430.69 433.36 436.27 440.76C436.48 441.05 436.59 441.14 436.82 441.46L438.37 443.53C439.54 444.84 440.41 446.31 441.56 447.63L447.93 455.84C448.39 456.38 448.57 456.69 449 457.2C449.44 457.74 449.64 458 450.07 458.56L452.19 461.3C452.57 461.79 452.87 462.22 453.24 462.68C454.74 464.52 455.98 466.32 457.48 468.16C460.05 471.3 462.31 474.88 464.09 478.63C465.44 481.48 466.54 484.45 467.49 487.54C469.02 492.5 469.88 498.82 469.88 505.35" fill="#AEDDEF"/>
</g>
</g>
<g opacity="0.22">
<mask id="mask5_454_190" style="mask-type:luminance" maskUnits="userSpaceOnUse" x="326" y="132" width="414" height="490">
<path d="M739.4 132.32H326.4V621.43H739.4V132.32Z" fill="white"/>
</mask>
<g mask="url(#mask5_454_190)">
<path fill-rule="evenodd" clip-rule="evenodd" d="M639.621 291.83C639.621 354.11 586.051 404.59 519.981 404.59C453.911 404.59 400.331 354.1 400.331 291.83C400.331 229.56 453.901 179.07 519.981 179.07C586.061 179.07 639.621 229.56 639.621 291.83ZM405.291 504.12C405.291 512.74 404.211 519.82 402.451 527.54L400.701 534.47C397.461 546.39 392.551 557.62 387.521 568.7L381.911 580.26C377.341 590.23 364.661 608.64 375.021 617.74C377.091 619.56 380.781 621.43 384.411 621.43H581.231C583.901 621.43 588.331 618.09 589.701 615.86C593.011 610.49 593.181 607.82 593.181 601.1C593.181 596.58 591.851 592.25 592.591 587.87C592.941 585.81 594.341 584.14 595.211 582.33C596.441 579.76 597.291 577.58 597.901 574.22C599.621 564.69 591.641 547.55 603.191 544.41C603.841 544.23 604.671 544.01 605.191 543.94C605.991 543.82 606.681 543.93 607.491 543.79C614.411 542.62 632.261 549.62 639.071 551.08C650.561 553.56 662.491 554.38 673.821 550.26C676.321 549.35 678.711 548.32 681.081 547.13C681.721 546.81 682.021 546.53 682.631 546.17C695.071 538.77 700.801 527.43 700.801 511.41C700.801 495.39 692.691 484.99 700.041 481.65C701.981 480.77 703.551 479.43 704.741 477.74C707.071 474.42 708.501 470.82 708.501 466.34C708.501 461.2 704.861 459.77 707.871 457.7C710.221 456.08 711.101 456 712.961 452.86C717.761 444.7 711.941 434.61 708.571 427.17C707.821 425.51 706.881 423.86 706.881 421.72C706.881 419.21 709.371 419.95 710.941 419.95C721.491 419.95 734.221 415.72 738.251 404.21C742.131 393.14 735.351 381.58 730.031 372.85C729.591 372.14 729.221 371.53 728.771 370.9L716.381 353.92C715.461 352.66 714.651 351.41 713.771 350.14C712.461 348.24 711.271 346.01 710.181 343.89C709.021 341.63 708.001 339.51 707.111 337.08C703.041 326.02 704.851 323.78 704.851 311.71C704.851 293.3 702.641 276.94 698.481 261C696.041 251.64 693.051 242.93 689.171 234.28C687.081 229.62 685.091 224.86 682.511 220.52L678.461 213.45C676.991 211.05 675.621 208.81 674.071 206.52L659.491 187.72C655.041 182.87 650.361 178.36 645.501 174.03L628.231 161.04L619.821 155.84C616.741 153.83 605.531 148.66 601.351 146.81C590.781 142.16 579.601 139.07 568.341 136.61C560.711 134.95 548.371 133 540.041 132.77C539.011 132.74 538.801 132.54 537.621 132.53L529.711 132.32C524.961 132.32 520.581 132.8 515.911 133.19C514.341 133.32 512.761 133.39 511.411 133.59C509.871 133.81 508.431 133.73 506.891 133.97L493.891 135.71C480.341 137.84 466.921 140.97 453.811 145.05C448.821 146.6 443.981 148.28 439.131 150.26C436.821 151.2 434.431 152.13 432.141 153.24L415.451 161.56C414.771 161.93 414.531 162.15 413.901 162.52L403.031 169.23C402.041 169.88 401.091 170.57 400.061 171.3L388.661 180.08C387.701 180.86 386.841 181.55 385.941 182.42L377.431 190.38C374.481 193.34 371.061 197.16 368.401 200.43L363.831 206.05C360.811 209.97 358.101 213.89 355.381 218.05C350.551 225.45 346.631 233.43 342.881 241.54C340.141 247.47 337.681 254.17 335.741 260.49C334.931 263.14 334.001 265.83 333.321 268.46C330.481 279.56 328.961 287.84 327.511 299.25C327.321 300.78 327.071 302.55 327.001 303.99C326.921 305.61 326.771 307.41 326.621 308.88C326.441 310.61 326.251 317.61 326.421 319.2C326.581 320.79 326.591 322.41 326.591 324.31C326.591 333.92 327.751 343.98 329.411 353.05C331.081 362.18 333.231 369.03 336.041 377.64C337.291 381.48 338.881 385.08 340.441 388.75C343.361 395.61 349.311 406.22 353.101 412.28C358.311 420.61 364.081 428.58 369.941 436.34C370.171 436.64 370.271 436.73 370.521 437.07L372.141 439.24C373.371 440.62 374.281 442.16 375.491 443.55L382.181 452.17C382.671 452.74 382.851 453.06 383.301 453.6C383.761 454.17 383.971 454.44 384.421 455.03L386.651 457.9C387.051 458.41 387.361 458.87 387.761 459.35C389.341 461.28 390.641 463.17 392.211 465.1C394.911 468.4 397.291 472.15 399.151 476.09C400.571 479.08 401.721 482.21 402.721 485.45C404.331 490.66 405.231 497.29 405.231 504.14" fill="#B0DEED"/>
</g>
</g>
<g opacity="0.33">
<mask id="mask6_454_190" style="mask-type:luminance" maskUnits="userSpaceOnUse" x="258" y="113" width="433" height="513">
<path d="M690.741 113.42H258.061V625.84H690.741V113.42Z" fill="white"/>
</mask>
<g mask="url(#mask6_454_190)">
<path fill-rule="evenodd" clip-rule="evenodd" d="M586.201 280.53C586.201 345.78 530.081 398.67 460.851 398.67C391.621 398.67 335.501 345.78 335.501 280.53C335.501 215.28 391.621 162.39 460.851 162.39C530.081 162.39 586.201 215.28 586.201 280.53ZM340.711 502.94C340.711 511.97 339.571 519.39 337.741 527.47L335.911 534.73C332.511 547.22 327.371 558.99 322.101 570.6L316.221 582.71C311.431 593.16 298.151 612.45 309.001 621.97C311.171 623.87 315.041 625.83 318.841 625.83H525.041C527.831 625.83 532.481 622.33 533.921 620C537.391 614.38 537.571 611.57 537.571 604.54C537.571 599.81 536.171 595.27 536.961 590.68C537.331 588.52 538.801 586.77 539.701 584.87C540.991 582.17 541.881 579.9 542.521 576.37C544.321 566.39 535.961 548.43 548.061 545.14C548.741 544.96 549.611 544.72 550.161 544.65C551.001 544.53 551.721 544.64 552.571 544.49C559.821 543.26 578.521 550.59 585.661 552.13C597.691 554.73 610.191 555.58 622.071 551.27C624.681 550.32 627.191 549.24 629.671 547.99C630.341 547.65 630.661 547.37 631.301 546.99C644.331 539.23 650.341 527.35 650.341 510.57C650.341 493.79 641.841 482.89 649.551 479.39C651.581 478.47 653.231 477.07 654.471 475.29C656.911 471.81 658.411 468.04 658.411 463.35C658.411 457.96 654.591 456.46 657.741 454.29C660.211 452.59 661.131 452.51 663.071 449.22C668.101 440.67 662.011 430.1 658.481 422.31C657.691 420.57 656.711 418.84 656.711 416.6C656.711 413.97 659.321 414.75 660.961 414.75C672.021 414.75 685.351 410.32 689.571 398.25C693.631 386.65 686.541 374.54 680.961 365.4C680.501 364.65 680.111 364.02 679.651 363.36L666.671 345.57C665.701 344.25 664.861 342.94 663.941 341.61C662.571 339.62 661.331 337.28 660.181 335.06C658.971 332.7 657.901 330.48 656.961 327.92C652.701 316.33 654.591 313.99 654.591 301.34C654.591 282.05 652.281 264.91 647.921 248.21C645.361 238.41 642.231 229.28 638.171 220.22C635.981 215.34 633.891 210.35 631.191 205.8L626.941 198.39C625.401 195.87 623.971 193.53 622.341 191.13L607.071 171.43C602.411 166.35 597.501 161.62 592.411 157.08L574.321 143.47L565.511 138.02C562.291 135.92 550.541 130.49 546.161 128.57C535.091 123.7 523.381 120.46 511.581 117.89C503.591 116.15 490.661 114.11 481.931 113.87C480.851 113.84 480.631 113.63 479.401 113.62L471.111 113.4C466.131 113.4 461.551 113.9 456.661 114.31C455.011 114.45 453.361 114.52 451.941 114.72C450.321 114.95 448.821 114.86 447.201 115.11L433.581 116.94C419.391 119.17 405.331 122.45 391.591 126.72C386.361 128.35 381.291 130.1 376.211 132.17C373.791 133.16 371.291 134.13 368.891 135.3L351.411 144.02C350.701 144.41 350.451 144.64 349.791 145.03L338.401 152.06C337.361 152.73 336.371 153.46 335.291 154.23L323.341 163.43C322.341 164.25 321.441 164.97 320.491 165.88L311.571 174.22C308.481 177.32 304.901 181.32 302.111 184.74L297.321 190.63C294.151 194.74 291.321 198.84 288.471 203.2C283.411 210.95 279.301 219.31 275.371 227.81C272.491 234.02 269.921 241.04 267.891 247.67C267.041 250.45 266.071 253.26 265.361 256.02C262.391 267.64 260.801 276.32 259.281 288.27C259.081 289.87 258.821 291.73 258.741 293.24C258.651 294.94 258.501 296.82 258.341 298.36C258.151 300.17 257.951 307.5 258.131 309.17C258.301 310.83 258.311 312.53 258.311 314.53C258.311 324.6 259.521 335.13 261.271 344.64C263.021 354.2 265.271 361.38 268.221 370.4C269.531 374.43 271.191 378.19 272.831 382.04C275.891 389.23 282.121 400.34 286.091 406.7C291.551 415.43 297.601 423.77 303.731 431.91C303.971 432.22 304.081 432.32 304.331 432.67L306.031 434.94C307.321 436.38 308.271 438 309.541 439.45L316.551 448.48C317.061 449.08 317.251 449.41 317.721 449.98C318.201 450.57 318.421 450.86 318.901 451.48L321.241 454.49C321.661 455.03 321.991 455.5 322.401 456C324.051 458.02 325.421 460.01 327.071 462.03C329.901 465.48 332.391 469.42 334.341 473.54C335.831 476.67 337.041 479.95 338.081 483.35C339.761 488.81 340.711 495.76 340.711 502.94Z" fill="#B2DEEB"/>
</g>
</g>
<g opacity="0.44">
<mask id="mask7_454_190" style="mask-type:luminance" maskUnits="userSpaceOnUse" x="189" y="94" width="454" height="537">
<path d="M642.091 94.5098H189.721V630.24H642.091V94.5098Z" fill="white"/>
</mask>
<g mask="url(#mask7_454_190)">
<path fill-rule="evenodd" clip-rule="evenodd" d="M532.781 269.23C532.781 337.44 474.111 392.74 401.731 392.74C329.351 392.74 270.681 337.44 270.681 269.23C270.681 201.02 329.351 145.72 401.731 145.72C474.111 145.72 532.781 201.02 532.781 269.23ZM276.121 501.75C276.121 511.19 274.931 518.95 273.011 527.4L271.091 534.99C267.541 548.05 262.171 560.35 256.651 572.49L250.511 585.15C245.511 596.07 231.621 616.24 242.961 626.2C245.231 628.19 249.271 630.24 253.241 630.24H468.811C471.731 630.24 476.591 626.58 478.091 624.15C481.721 618.27 481.911 615.34 481.911 607.98C481.911 603.03 480.451 598.29 481.271 593.49C481.661 591.23 483.191 589.4 484.141 587.42C485.491 584.6 486.421 582.22 487.091 578.53C488.971 568.1 480.231 549.32 492.881 545.88C493.591 545.69 494.501 545.45 495.071 545.36C495.951 545.23 496.701 545.35 497.591 545.2C505.171 543.92 524.721 551.58 532.191 553.19C544.771 555.9 557.841 556.8 570.261 552.29C572.991 551.3 575.621 550.17 578.211 548.86C578.911 548.51 579.241 548.21 579.911 547.81C593.531 539.7 599.821 527.28 599.821 509.74C599.821 492.2 590.941 480.8 598.991 477.14C601.111 476.18 602.831 474.71 604.131 472.86C606.681 469.22 608.251 465.28 608.251 460.38C608.251 454.75 604.261 453.18 607.551 450.91C610.131 449.13 611.091 449.05 613.121 445.61C618.381 436.68 612.011 425.62 608.321 417.47C607.501 415.65 606.471 413.84 606.471 411.5C606.471 408.75 609.201 409.56 610.911 409.56C622.471 409.56 636.411 404.92 640.821 392.31C645.061 380.19 637.651 367.52 631.821 357.97C631.341 357.19 630.931 356.53 630.451 355.84L616.881 337.24C615.871 335.86 614.981 334.49 614.021 333.1C612.581 331.02 611.291 328.57 610.091 326.25C608.821 323.78 607.701 321.46 606.721 318.79C602.261 306.67 604.251 304.22 604.251 291C604.251 270.84 601.831 252.91 597.271 235.45C594.591 225.2 591.321 215.66 587.081 206.19C584.791 201.08 582.611 195.87 579.791 191.12L575.351 183.38C573.741 180.75 572.241 178.3 570.541 175.79L554.581 155.2C549.711 149.89 544.581 144.95 539.261 140.2L520.351 125.97L511.141 120.27C507.771 118.07 495.491 112.4 490.911 110.38C479.331 105.29 467.091 101.9 454.761 99.2098C446.401 97.3898 432.881 95.2598 423.761 94.9998C422.621 94.9698 422.401 94.7398 421.111 94.7398L412.441 94.5098C407.241 94.5098 402.441 95.0398 397.331 95.4598C395.611 95.5998 393.881 95.6798 392.401 95.8898C390.711 96.1298 389.141 96.0398 387.451 96.2998L373.221 98.2098C358.381 100.55 343.681 103.97 329.321 108.44C323.851 110.14 318.551 111.97 313.241 114.14C310.711 115.17 308.091 116.18 305.581 117.41L287.301 126.52C286.561 126.92 286.291 127.17 285.601 127.57L273.691 134.92C272.611 135.63 271.561 136.38 270.441 137.19L257.951 146.8C256.901 147.66 255.961 148.41 254.981 149.36L245.661 158.08C242.431 161.32 238.691 165.5 235.771 169.08L230.771 175.24C227.461 179.53 224.491 183.82 221.511 188.38C216.221 196.48 211.931 205.23 207.821 214.11C204.821 220.61 202.121 227.95 200.001 234.87C199.111 237.77 198.091 240.71 197.351 243.6C194.241 255.75 192.581 264.82 190.991 277.32C190.781 279 190.511 280.93 190.431 282.51C190.341 284.28 190.181 286.25 190.011 287.86C189.811 289.75 189.611 297.42 189.791 299.16C189.971 300.9 189.981 302.68 189.981 304.76C189.981 315.29 191.251 326.3 193.071 336.24C194.901 346.24 197.261 353.74 200.331 363.17C201.701 367.38 203.441 371.32 205.151 375.34C208.351 382.86 214.861 394.48 219.021 401.12C224.731 410.24 231.051 418.97 237.471 427.48C237.721 427.81 237.841 427.91 238.101 428.28L239.881 430.66C241.231 432.17 242.221 433.86 243.551 435.38L250.881 444.82C251.411 445.44 251.621 445.79 252.111 446.39C252.621 447.01 252.841 447.3 253.341 447.95L255.781 451.1C256.211 451.67 256.561 452.16 256.991 452.68C258.721 454.79 260.141 456.87 261.871 458.98C264.831 462.59 267.431 466.71 269.481 471.02C271.031 474.29 272.301 477.72 273.391 481.27C275.151 486.98 276.141 494.24 276.141 501.75" fill="#B3DEEA"/>
</g>
</g>
<g opacity="0.56">
<mask id="mask8_454_190" style="mask-type:luminance" maskUnits="userSpaceOnUse" x="121" y="75" width="473" height="560">
<path d="M593.43 75.6099H121.38V634.65H593.43V75.6099Z" fill="white"/>
</mask>
<g mask="url(#mask8_454_190)">
<path fill-rule="evenodd" clip-rule="evenodd" d="M479.36 257.93C479.36 329.11 418.13 386.81 342.61 386.81C267.09 386.81 205.86 329.11 205.86 257.93C205.86 186.75 267.09 129.05 342.61 129.05C418.13 129.05 479.36 186.75 479.36 257.93ZM211.53 500.57C211.53 510.42 210.29 518.51 208.29 527.34L206.29 535.26C202.58 548.89 196.98 561.72 191.22 574.39L184.81 587.6C179.59 599 165.09 620.04 176.94 630.44C179.31 632.52 183.52 634.65 187.67 634.65H412.62C415.67 634.65 420.74 630.83 422.31 628.29C426.1 622.15 426.29 619.1 426.29 611.42C426.29 606.25 424.77 601.31 425.62 596.3C426.02 593.94 427.62 592.04 428.61 589.97C430.02 587.03 430.99 584.54 431.69 580.7C433.65 569.81 424.53 550.22 437.73 546.63C438.47 546.43 439.42 546.18 440.02 546.09C440.93 545.96 441.72 546.08 442.65 545.92C450.56 544.58 470.96 552.58 478.75 554.26C491.88 557.09 505.51 558.03 518.47 553.32C521.32 552.29 524.06 551.1 526.77 549.74C527.5 549.37 527.85 549.06 528.54 548.64C542.76 540.18 549.31 527.22 549.31 508.91C549.31 490.6 540.04 478.71 548.45 474.89C550.67 473.89 552.46 472.35 553.81 470.42C556.47 466.63 558.11 462.51 558.11 457.39C558.11 451.51 553.95 449.88 557.38 447.51C560.07 445.66 561.08 445.57 563.19 441.98C568.67 432.66 562.03 421.12 558.18 412.62C557.32 410.72 556.25 408.83 556.25 406.39C556.25 403.52 559.09 404.37 560.88 404.37C572.94 404.37 587.49 399.53 592.09 386.37C596.52 373.72 588.78 360.5 582.7 350.53C582.2 349.71 581.77 349.02 581.27 348.3L567.11 328.89C566.05 327.44 565.13 326.02 564.13 324.56C562.63 322.39 561.28 319.84 560.03 317.41C558.71 314.83 557.54 312.41 556.52 309.62C551.87 296.98 553.94 294.42 553.94 280.62C553.94 259.58 551.42 240.88 546.66 222.65C543.87 211.96 540.45 202 536.02 192.11C533.63 186.78 531.35 181.34 528.41 176.38L523.78 168.3C522.1 165.56 520.54 163 518.76 160.38L502.1 138.89C497.02 133.35 491.66 128.19 486.11 123.24L466.38 108.39L456.77 102.45C453.25 100.15 440.44 94.2401 435.66 92.1301C423.58 86.8201 410.8 83.2801 397.93 80.4801C389.21 78.5801 375.1 76.3601 365.59 76.0901C364.41 76.0601 364.17 75.8201 362.82 75.8201L353.78 75.5801C348.35 75.5801 343.35 76.1301 338.01 76.5701C336.22 76.7201 334.41 76.8001 332.87 77.0201C331.1 77.2701 329.46 77.1801 327.7 77.4501L312.85 79.4401C297.36 81.8801 282.02 85.4501 267.04 90.1101C261.33 91.8901 255.8 93.7901 250.26 96.0601C247.62 97.1401 244.89 98.1901 242.27 99.4701L223.2 108.98C222.43 109.4 222.15 109.65 221.43 110.08L209.01 117.75C207.88 118.49 206.79 119.28 205.62 120.11L192.58 130.14C191.49 131.03 190.5 131.82 189.48 132.82L179.75 141.92C176.38 145.3 172.47 149.67 169.43 153.4L164.21 159.83C160.75 164.31 157.66 168.79 154.55 173.54C149.03 181.99 144.55 191.12 140.26 200.39C137.12 207.17 134.31 214.83 132.1 222.05C131.17 225.08 130.11 228.15 129.34 231.16C126.09 243.84 124.36 253.31 122.7 266.35C122.48 268.1 122.2 270.12 122.11 271.77C122.02 273.62 121.85 275.67 121.67 277.35C121.47 279.33 121.25 287.32 121.44 289.14C121.63 290.96 121.64 292.81 121.64 294.98C121.64 305.97 122.97 317.46 124.86 327.83C126.77 338.26 129.23 346.09 132.44 355.93C133.87 360.32 135.68 364.43 137.47 368.63C140.81 376.48 147.61 388.6 151.94 395.53C157.89 405.05 164.49 414.15 171.19 423.03C171.45 423.37 171.57 423.48 171.85 423.86L173.71 426.34C175.12 427.91 176.15 429.68 177.54 431.26L185.18 441.11C185.74 441.76 185.95 442.12 186.46 442.75C186.99 443.4 187.22 443.7 187.74 444.38L190.29 447.66C190.75 448.25 191.11 448.77 191.55 449.31C193.35 451.51 194.84 453.68 196.64 455.88C199.72 459.65 202.44 463.94 204.57 468.44C206.19 471.86 207.51 475.43 208.65 479.14C210.49 485.09 211.52 492.68 211.52 500.51" fill="#B5DFE8"/>
</g>
</g>
<g opacity="0.67">
<mask id="mask9_454_190" style="mask-type:luminance" maskUnits="userSpaceOnUse" x="53" y="56" width="492" height="584">
<path d="M544.76 56.71H53.0303V639.06H544.76V56.71Z" fill="white"/>
</mask>
<g mask="url(#mask9_454_190)">
<path fill-rule="evenodd" clip-rule="evenodd" d="M425.94 246.63C425.94 320.78 362.16 380.89 283.49 380.89C204.82 380.89 141.04 320.78 141.04 246.63C141.04 172.48 204.82 112.37 283.49 112.37C362.16 112.37 425.94 172.48 425.94 246.63ZM146.95 499.39C146.95 509.65 145.66 518.08 143.57 527.27L141.49 535.52C137.63 549.72 131.79 563.09 125.8 576.28L119.12 590.04C113.68 601.92 98.5798 623.83 110.92 634.66C113.39 636.83 117.78 639.05 122.1 639.05H356.43C359.61 639.05 364.89 635.07 366.52 632.42C370.46 626.03 370.67 622.84 370.67 614.85C370.67 609.47 369.08 604.32 369.97 599.09C370.39 596.64 372.06 594.65 373.09 592.49C374.55 589.43 375.57 586.84 376.29 582.83C378.34 571.49 368.83 551.08 382.59 547.34C383.36 547.13 384.35 546.87 384.97 546.78C385.92 546.64 386.74 546.77 387.71 546.6C395.95 545.2 417.2 553.54 425.31 555.28C438.99 558.23 453.19 559.2 466.69 554.3C469.66 553.22 472.51 551.99 475.33 550.57C476.09 550.18 476.45 549.86 477.18 549.43C491.99 540.62 498.82 527.11 498.82 508.05C498.82 488.99 489.16 476.59 497.92 472.62C500.23 471.57 502.1 469.98 503.51 467.97C506.28 464.02 507.99 459.73 507.99 454.4C507.99 448.28 503.66 446.57 507.23 444.11C510.03 442.18 511.08 442.09 513.28 438.35C518.99 428.64 512.07 416.62 508.06 407.76C507.16 405.78 506.05 403.81 506.05 401.27C506.05 398.28 509.01 399.17 510.88 399.17C523.45 399.17 538.6 394.13 543.4 380.42C548.01 367.24 539.95 353.47 533.62 343.09C533.1 342.24 532.66 341.52 532.13 340.77L517.37 320.55C516.27 319.04 515.31 317.56 514.26 316.04C512.7 313.78 511.29 311.12 509.99 308.59C508.61 305.91 507.4 303.38 506.33 300.48C501.48 287.31 503.64 284.64 503.64 270.27C503.64 248.35 501.01 228.87 496.06 209.89C493.15 198.75 489.59 188.38 484.98 178.08C482.5 172.53 480.12 166.86 477.05 161.69L472.22 153.27C470.47 150.41 468.84 147.75 466.99 145.02L449.64 122.64C444.34 116.87 438.76 111.49 432.98 106.34L412.42 90.8702L402.41 84.6802C398.75 82.2902 385.4 76.1302 380.42 73.9302C367.84 68.4002 354.53 64.7102 341.12 61.7902C332.03 59.8102 317.34 57.5002 307.43 57.2202C306.2 57.1902 305.95 56.9402 304.55 56.9402L295.13 56.6802C289.47 56.6802 284.26 57.2502 278.7 57.7102C276.83 57.8702 274.95 57.9502 273.34 58.1802C271.5 58.4402 269.79 58.3402 267.96 58.6302L252.49 60.7002C236.36 63.2402 220.38 66.9602 204.77 71.8202C198.83 73.6702 193.07 75.6602 187.29 78.0202C184.54 79.1402 181.69 80.2402 178.97 81.5702L159.1 91.4802C158.29 91.9202 158.01 92.1802 157.25 92.6202L144.31 100.61C143.14 101.38 142 102.2 140.78 103.07L127.2 113.52C126.06 114.45 125.03 115.27 123.97 116.31L113.84 125.79C110.33 129.31 106.26 133.86 103.09 137.75L97.6498 144.45C94.0498 149.12 90.8298 153.78 87.5898 158.74C81.8398 167.55 77.1698 177.05 72.7098 186.71C69.4398 193.77 66.5198 201.75 64.2098 209.28C63.2498 212.44 62.1398 215.63 61.3298 218.77C57.9498 231.98 56.1398 241.84 54.4198 255.43C54.1898 257.25 53.8898 259.36 53.8098 261.07C53.7098 263 53.5398 265.14 53.3598 266.89C53.1498 268.95 52.9198 277.28 53.1198 279.18C53.3198 281.07 53.3298 283 53.3298 285.27C53.3298 296.71 54.7098 308.69 56.6898 319.48C58.6798 330.35 61.2398 338.5 64.5798 348.75C66.0698 353.33 67.9598 357.6 69.8198 361.98C73.2898 370.15 80.3798 382.78 84.8998 390C91.0998 399.92 97.9698 409.4 104.95 418.65C105.22 419.01 105.35 419.12 105.64 419.52L107.58 422.1C109.04 423.74 110.12 425.58 111.57 427.23L119.53 437.49C120.11 438.17 120.33 438.55 120.86 439.2C121.41 439.87 121.65 440.19 122.2 440.9L124.85 444.32C125.32 444.94 125.7 445.47 126.17 446.04C128.05 448.34 129.6 450.59 131.47 452.89C134.68 456.82 137.51 461.29 139.74 465.97C141.43 469.53 142.8 473.25 143.99 477.11C145.9 483.31 146.98 491.21 146.98 499.37" fill="#B6DFE6"/>
</g>
</g>
<g opacity="0.78">
<mask id="mask10_454_190" style="mask-type:luminance" maskUnits="userSpaceOnUse" x="-16" y="37" width="513" height="607">
<path d="M496.1 37.7998H-15.3096V643.45H496.1V37.7998Z" fill="white"/>
</mask>
<g mask="url(#mask10_454_190)">
<path fill-rule="evenodd" clip-rule="evenodd" d="M372.531 235.33C372.531 312.45 306.201 374.96 224.381 374.96C142.561 374.96 76.2307 312.45 76.2307 235.33C76.2307 158.21 142.551 95.6998 224.371 95.6998C306.191 95.6998 372.521 158.21 372.521 235.33M82.3707 498.2C82.3707 508.87 81.0307 517.64 78.8607 527.2L76.6907 535.78C72.6707 550.54 66.6007 564.45 60.3707 578.17L53.4307 592.49C47.7707 604.84 32.0707 627.64 44.9007 638.9C47.4607 641.15 52.0307 643.46 56.5307 643.46H300.241C303.541 643.46 309.031 639.32 310.731 636.57C314.831 629.92 315.051 626.61 315.051 618.29C315.051 612.69 313.401 607.34 314.321 601.9C314.761 599.35 316.491 597.28 317.561 595.04C319.081 591.85 320.141 589.16 320.891 584.99C323.021 573.19 313.131 551.97 327.441 548.08C328.251 547.86 329.271 547.59 329.921 547.5C330.911 547.36 331.761 547.49 332.771 547.32C341.341 545.87 363.441 554.53 371.881 556.35C386.111 559.42 400.881 560.43 414.921 555.34C418.011 554.22 420.971 552.94 423.911 551.46C424.701 551.06 425.081 550.72 425.831 550.27C441.231 541.1 448.331 527.06 448.331 507.23C448.331 487.4 438.291 474.51 447.401 470.38C449.801 469.29 451.741 467.63 453.211 465.54C456.091 461.43 457.871 456.97 457.871 451.43C457.871 445.06 453.361 443.29 457.081 440.73C460.001 438.72 461.081 438.63 463.381 434.73C469.321 424.63 462.121 412.14 457.951 402.92C457.021 400.86 455.861 398.82 455.861 396.17C455.861 393.06 458.941 393.98 460.881 393.98C473.951 393.98 489.711 388.74 494.701 374.48C499.501 360.77 491.121 346.46 484.531 335.65C483.991 334.77 483.531 334.02 482.981 333.24L467.631 312.22C466.491 310.65 465.491 309.11 464.401 307.53C462.781 305.18 461.311 302.41 459.961 299.79C458.531 297 457.261 294.37 456.151 291.35C451.111 277.65 453.351 274.88 453.351 259.93C453.351 237.14 450.621 216.87 445.461 197.13C442.441 185.55 438.731 174.76 433.941 164.05C431.361 158.28 428.881 152.38 425.701 147.01L420.681 138.26C418.861 135.29 417.171 132.52 415.251 129.68L397.201 106.4C391.691 100.4 385.891 94.8098 379.881 89.4498L358.501 73.3598L348.091 66.9198C344.281 64.4298 330.391 58.0198 325.211 55.7398C312.121 49.9798 298.281 46.1498 284.341 43.1198C274.891 41.0598 259.611 38.6498 249.301 38.3598C248.021 38.3198 247.761 38.0698 246.311 38.0698L236.511 37.7998C230.631 37.7998 225.211 38.3998 219.431 38.8798C217.491 39.0398 215.531 39.1298 213.861 39.3698C211.951 39.6398 210.171 39.5398 208.261 39.8298L192.171 41.9898C175.391 44.6298 158.771 48.4998 142.541 53.5598C136.361 55.4798 130.371 57.5498 124.361 60.0098C121.501 61.1798 118.541 62.3198 115.701 63.7098L95.0307 74.0098C94.1907 74.4698 93.8907 74.7398 93.1107 75.1998L79.6507 83.5098C78.4307 84.3098 77.2507 85.1598 75.9807 86.0698L61.8607 96.9398C60.6807 97.9098 59.6107 98.7598 58.5007 99.8398L47.9607 109.69C44.3107 113.35 40.0707 118.08 36.7807 122.13L31.1207 129.09C27.3807 133.94 24.0207 138.79 20.6607 143.95C14.6807 153.11 9.82067 163 5.18067 173.04C1.78067 180.39 -1.25933 188.68 -3.65933 196.51C-4.65933 199.8 -5.81933 203.12 -6.64933 206.38C-10.1593 220.12 -12.0493 230.37 -13.8393 244.5C-14.0793 246.4 -14.3893 248.59 -14.4793 250.37C-14.5793 252.37 -14.7693 254.6 -14.9493 256.42C-15.1693 258.56 -15.4093 267.22 -15.1993 269.2C-14.9993 271.16 -14.9893 273.18 -14.9893 275.53C-14.9893 287.43 -13.5493 299.88 -11.4993 311.12C-9.42933 322.42 -6.76933 330.91 -3.28933 341.56C-1.73933 346.32 0.220665 350.77 2.16067 355.32C5.77067 363.82 13.1407 376.95 17.8407 384.46C24.2907 394.77 31.4407 404.64 38.6907 414.26C38.9707 414.63 39.1107 414.75 39.4007 415.16L41.4107 417.85C42.9407 419.56 44.0607 421.47 45.5607 423.18L53.8407 433.85C54.4407 434.56 54.6707 434.95 55.2307 435.62C55.8007 436.32 56.0607 436.65 56.6207 437.39L59.3807 440.94C59.8707 441.58 60.2607 442.14 60.7507 442.73C62.7007 445.12 64.3207 447.47 66.2707 449.85C69.6107 453.93 72.5607 458.59 74.8707 463.46C76.6307 467.16 78.0607 471.03 79.3007 475.05C81.2907 481.5 82.4107 489.72 82.4107 498.2" fill="#B8DFE5"/>
</g>
</g>
<g opacity="0.89">
<mask id="mask11_454_190" style="mask-type:luminance" maskUnits="userSpaceOnUse" x="-84" y="18" width="532" height="630">
<path d="M447.43 18.8999H-83.6602V647.86H447.43V18.8999Z" fill="white"/>
</mask>
<g mask="url(#mask11_454_190)">
<path fill-rule="evenodd" clip-rule="evenodd" d="M319.11 224.03C319.11 304.11 250.23 369.04 165.26 369.04C80.2896 369.04 11.3996 304.11 11.3996 224.03C11.3996 143.95 80.2796 79.0199 165.26 79.0199C250.24 79.0199 319.11 143.94 319.11 224.03ZM17.7796 497.02C17.7796 508.11 16.3896 517.21 14.1296 527.13L11.8796 536.04C7.70961 551.37 1.39961 565.81 -5.07039 580.06L-12.2804 594.93C-18.1504 607.75 -34.4604 631.43 -21.1404 643.12C-18.4804 645.46 -13.7304 647.86 -9.07039 647.86H244.03C247.46 647.86 253.16 643.57 254.93 640.7C259.19 633.8 259.41 630.36 259.41 621.72C259.41 615.91 257.7 610.34 258.65 604.7C259.1 602.05 260.9 599.9 262.01 597.57C263.59 594.26 264.69 591.47 265.47 587.14C267.68 574.89 257.42 552.85 272.27 548.81C273.11 548.58 274.17 548.3 274.84 548.2C275.87 548.05 276.75 548.19 277.8 548.01C286.7 546.5 309.65 555.5 318.42 557.39C333.19 560.57 348.53 561.63 363.11 556.33C366.32 555.16 369.4 553.84 372.44 552.3C373.26 551.88 373.65 551.53 374.44 551.07C390.43 541.55 397.81 526.97 397.81 506.37C397.81 485.77 387.38 472.39 396.84 468.1C399.33 466.97 401.35 465.25 402.88 463.07C405.87 458.8 407.72 454.17 407.72 448.42C407.72 441.8 403.04 439.97 406.9 437.3C409.93 435.21 411.06 435.12 413.44 431.07C419.61 420.58 412.14 407.61 407.8 398.04C406.83 395.9 405.63 393.78 405.63 391.03C405.63 387.8 408.83 388.76 410.84 388.76C424.41 388.76 440.78 383.32 445.96 368.51C450.94 354.27 442.24 339.41 435.39 328.19C434.83 327.27 434.35 326.5 433.78 325.69L417.84 303.85C416.65 302.23 415.61 300.62 414.49 298.99C412.8 296.55 411.28 293.68 409.88 290.95C408.39 288.05 407.08 285.32 405.93 282.19C400.7 267.97 403.03 265.09 403.03 249.56C403.03 225.89 400.19 204.84 394.84 184.34C391.7 172.31 387.85 161.11 382.87 149.98C380.19 143.99 377.62 137.86 374.31 132.28L369.1 123.19C367.21 120.1 365.45 117.23 363.46 114.28L344.72 90.1099C339 83.8799 332.98 78.0699 326.73 72.4999L304.53 55.7899L293.72 49.0999C289.76 46.5199 275.34 39.8599 269.96 37.4899C256.37 31.5099 242 27.5399 227.51 24.3799C217.7 22.2399 201.82 19.7399 191.12 19.4399C189.79 19.3999 189.52 19.1399 188.01 19.1399L177.83 18.8599C171.72 18.8599 166.09 19.4799 160.09 19.9799C158.07 20.1499 156.04 20.2399 154.3 20.4899C152.31 20.7699 150.47 20.6699 148.49 20.9699L131.78 23.2099C114.36 25.9499 97.0996 29.9699 80.2396 35.2199C73.8196 37.2199 67.5996 39.3699 61.3596 41.9199C58.3896 43.1299 55.3196 44.3199 52.3696 45.7599L30.9096 56.4599C30.0396 56.9299 29.7296 57.2199 28.9196 57.6899L14.9396 66.3199C13.6696 67.1499 12.4396 68.0399 11.1196 68.9799L-3.55039 80.2699C-4.78039 81.2699 -5.89039 82.1599 -7.04039 83.2799L-17.9804 93.5099C-21.7704 97.3099 -26.1704 102.22 -29.5904 106.43L-35.4704 113.66C-39.3604 118.7 -42.8404 123.74 -46.3404 129.09C-52.5504 138.6 -57.5904 148.87 -62.4104 159.3C-65.9404 166.93 -69.1004 175.54 -71.5904 183.67C-72.6304 187.08 -73.8304 190.53 -74.7004 193.92C-78.3504 208.19 -80.3004 218.84 -82.1704 233.51C-82.4204 235.48 -82.7404 237.75 -82.8304 239.61C-82.9404 241.69 -83.1304 244 -83.3204 245.89C-83.5504 248.11 -83.7904 257.11 -83.5804 259.16C-83.3704 261.2 -83.3604 263.29 -83.3604 265.73C-83.3604 278.09 -81.8704 291.02 -79.7304 302.68C-77.5804 314.42 -74.8204 323.23 -71.2004 334.3C-69.5904 339.24 -67.5504 343.86 -65.5404 348.59C-61.7904 357.42 -54.1404 371.06 -49.2604 378.85C-42.5604 389.56 -35.1404 399.8 -27.6004 409.79C-27.3104 410.18 -27.1704 410.3 -26.8604 410.73L-24.7704 413.52C-23.1904 415.29 -22.0204 417.28 -20.4604 419.06L-11.8604 430.14C-11.2304 430.87 -11.0004 431.28 -10.4204 431.98C-9.83039 432.71 -9.56039 433.05 -8.98039 433.82L-6.11039 437.51C-5.60039 438.17 -5.19039 438.75 -4.69039 439.37C-2.66039 441.85 -0.990388 444.29 1.03961 446.76C4.50961 451 7.56961 455.83 9.96961 460.89C11.7896 464.73 13.2796 468.76 14.5696 472.93C16.6396 479.63 17.7996 488.16 17.7996 496.97" fill="#B9E0E3"/>
</g>
</g>
<path fill-rule="evenodd" clip-rule="evenodd" d="M265.69 212.73C265.69 295.78 194.25 363.11 106.13 363.11C18.0102 363.11 -53.4198 295.78 -53.4198 212.73C-53.4198 129.68 18.0102 62.35 106.13 62.35C194.25 62.35 265.69 129.68 265.69 212.73ZM-46.7998 495.83C-46.7998 507.33 -48.2498 516.77 -50.5798 527.06L-52.9098 536.3C-57.2398 552.2 -63.7698 567.18 -70.4898 581.95L-77.9698 597.37C-84.0598 610.67 -100.97 635.22 -87.1598 647.35C-84.3998 649.78 -79.4798 652.26 -74.6398 652.26H187.83C191.39 652.26 197.3 647.81 199.13 644.84C203.55 637.68 203.78 634.11 203.78 625.16C203.78 619.13 202 613.36 203 607.51C203.47 604.76 205.34 602.53 206.49 600.12C208.13 596.69 209.27 593.79 210.08 589.3C212.37 576.6 201.73 553.74 217.13 549.55C218 549.31 219.1 549.02 219.8 548.92C220.87 548.76 221.78 548.9 222.87 548.72C232.1 547.16 255.9 556.49 264.99 558.45C280.31 561.75 296.22 562.85 311.34 557.36C314.67 556.15 317.86 554.77 321.02 553.18C321.87 552.75 322.28 552.39 323.09 551.9C339.68 542.03 347.32 526.9 347.32 505.55C347.32 484.2 336.5 470.31 346.31 465.86C348.9 464.69 350.99 462.9 352.57 460.65C355.67 456.22 357.59 451.42 357.59 445.45C357.59 438.59 352.73 436.69 356.74 433.92C359.88 431.75 361.05 431.66 363.52 427.46C369.92 416.58 362.17 403.13 357.67 393.2C356.67 390.98 355.42 388.78 355.42 385.93C355.42 382.59 358.74 383.57 360.83 383.57C374.9 383.57 391.88 377.93 397.25 362.57C402.42 347.81 393.39 332.39 386.29 320.75C385.71 319.8 385.21 319 384.62 318.16L368.09 295.52C366.86 293.84 365.78 292.17 364.61 290.47C362.86 287.94 361.28 284.96 359.83 282.13C358.29 279.12 356.93 276.29 355.73 273.05C350.3 258.3 352.72 255.31 352.72 239.21C352.72 214.66 349.78 192.84 344.22 171.58C340.96 159.1 336.97 147.49 331.81 135.95C329.03 129.74 326.36 123.38 322.93 117.6L317.52 108.17C315.56 104.97 313.74 101.99 311.67 98.93L292.23 73.86C286.3 67.39 280.05 61.38 273.57 55.6L250.54 38.27L239.33 31.34C235.22 28.66 220.27 21.76 214.69 19.3C200.6 13.1 185.69 8.98 170.67 5.7C160.49 3.48 144.03 0.89 132.93 0.58C131.55 0.54 131.27 0.27 129.7 0.27L119.17 0C112.83 0 106.99 0.64 100.77 1.16C98.6802 1.33 96.5702 1.43 94.7702 1.69C92.7102 1.98 90.8002 1.87 88.7402 2.19L71.4102 4.51C53.3402 7.36 35.4402 11.52 17.9602 16.97C11.3002 19.04 4.8502 21.27 -1.6198 23.91C-4.6998 25.17 -7.88979 26.4 -10.9398 27.89L-33.1998 38.99C-34.0998 39.48 -34.4298 39.78 -35.2698 40.27L-49.7698 49.22C-51.0898 50.08 -52.3598 51 -53.7298 51.98L-68.9398 63.69C-70.2098 64.73 -71.3698 65.65 -72.5598 66.81L-83.9098 77.42C-87.8398 81.36 -92.3998 86.46 -95.9498 90.82L-102.04 98.32C-106.07 103.55 -109.68 108.77 -113.31 114.32C-119.75 124.18 -124.98 134.83 -129.98 145.64C-133.64 153.55 -136.92 162.49 -139.5 170.92C-140.58 174.46 -141.82 178.03 -142.72 181.55C-146.51 196.35 -148.53 207.39 -150.46 222.61C-150.72 224.65 -151.05 227.01 -151.15 228.93C-151.26 231.09 -151.46 233.48 -151.66 235.44C-151.9 237.75 -152.15 247.08 -151.93 249.2C-151.71 251.32 -151.7 253.48 -151.7 256.02C-151.7 268.84 -150.15 282.25 -147.94 294.34C-145.71 306.51 -142.84 315.65 -139.1 327.13C-137.43 332.26 -135.32 337.05 -133.23 341.95C-129.34 351.1 -121.4 365.25 -116.34 373.33C-109.4 384.44 -101.69 395.06 -93.8798 405.42C-93.5798 405.82 -93.4298 405.94 -93.1098 406.39L-90.9398 409.28C-89.2998 411.12 -88.0898 413.18 -86.4798 415.02L-77.5598 426.51C-76.9098 427.27 -76.6598 427.69 -76.0698 428.42C-75.4598 429.17 -75.1798 429.53 -74.5698 430.32L-71.5998 434.15C-71.0698 434.84 -70.6498 435.44 -70.1298 436.08C-68.0198 438.65 -66.2898 441.18 -64.1898 443.75C-60.5898 448.15 -57.4198 453.16 -54.9298 458.4C-53.0398 462.39 -51.4998 466.56 -50.1598 470.88C-48.0198 477.83 -46.8098 486.68 -46.8098 495.81" fill="#BBE0E1"/>
</g>
</g>
<mask id="mask12_454_190" style="mask-type:luminance" maskUnits="userSpaceOnUse" x="0" y="-230" width="596" height="545">
<path d="M0 -229.27V314.35L595.28 -229.27H0Z" fill="white"/>
</mask>
<g mask="url(#mask12_454_190)">
<mask id="mask13_454_190" style="mask-type:luminance" maskUnits="userSpaceOnUse" x="-66" y="-354" width="775" height="718">
<path d="M708.57 -353.39H-65.0195V363.05H708.57V-353.39Z" fill="white"/>
</mask>
<g mask="url(#mask13_454_190)">
<mask id="mask14_454_190" style="mask-type:luminance" maskUnits="userSpaceOnUse" x="-66" y="-354" width="775" height="718">
<path d="M689.73 363.04L708.57 -311.78L-65.0195 -353.39L-31.8895 321.43L689.73 363.04Z" fill="white"/>
</mask>
<g mask="url(#mask14_454_190)">
<path opacity="0.45" d="M-28.3691 366.89L-3.77914 -386.49L791.921 -347.24L767.331 406.14L-28.3691 366.89Z" fill="url(#paint1_linear_454_190)"/>
</g>
</g>
</g>
</g>
<defs>
<linearGradient id="paint0_linear_454_190" x1="487.278" y1="752.599" x2="189.561" y2="73.4147" gradientUnits="userSpaceOnUse">
<stop stop-color="#C6D300"/>
<stop offset="0.15" stop-color="#ACBC06"/>
<stop offset="0.48" stop-color="#6C8117"/>
<stop offset="0.95" stop-color="#052432"/>
<stop offset="0.97" stop-color="#001F34"/>
<stop offset="1" stop-color="#001F34"/>
</linearGradient>
<linearGradient id="paint1_linear_454_190" x1="973.6" y1="-17992.8" x2="992.857" y2="-18582.6" gradientUnits="userSpaceOnUse">
<stop stop-color="#C6D300"/>
<stop offset="0.14" stop-color="#C2CF00"/>
<stop offset="0.26" stop-color="#B6C503"/>
<stop offset="0.39" stop-color="#A3B308"/>
<stop offset="0.51" stop-color="#899B10"/>
<stop offset="0.63" stop-color="#667C19"/>
<stop offset="0.75" stop-color="#3C5524"/>
<stop offset="0.86" stop-color="#0B2931"/>
<stop offset="0.89" stop-color="#001F34"/>
<stop offset="1" stop-color="#001F34"/>
</linearGradient>
<clipPath id="clip0_454_190">
<rect width="901.11" height="612.72" fill="white"/>
</clipPath>
</defs>
</svg>
