<?xml version="1.0" encoding="UTF-8"?>
<svg id="Layer_2" data-name="Layer 2" xmlns="http://www.w3.org/2000/svg" viewBox="0 0 72.55 82.55">
  <defs>
    <style>
      .cls-1 {
        fill: #fff;
      }
    </style>
  </defs>
  <g id="Layer_2-2" data-name="Layer 2">
    <g>
      <polygon class="cls-1" points="55.81 14.79 59.59 11.44 53.62 11.44 55.81 14.79"/>
      <path class="cls-1" d="M0,0V71.55H8.25v-21.23h-2.16v-6.69h6.69v6.69h-2.16v24.23h6.24v-13.26h-2.16v-6.69h6.69v6.69h-2.16v16.26h8.88v-12.24h-2.16v-6.69h6.69v6.69h-2.16v17.24h8.84v-28.28h-2.16v-6.69h6.69v6.69h-2.16v24.28h9.03v-17.54h-2.16v-6.69h6.69v6.69h-2.16v7.54h9.71v-13.61l-4.94-4.94-1.22,1.22-3.85-3.85,3.85-3.85,3.85,3.85-1.22,1.22,5.53,5.53v20.43h7.7V0H0ZM62.84,16.07l-6.23,7.59-1.92,.57-1.82,1.82-1.65,7.51-7,6.78,.54-8.05-10.13,4.21-1.09,9.8-7.05,6.95-2.59-14.25-12.93-6.99,6.69-3.22,10.78,1.12,3.66-10.38,.3-.22-1.49-.4-7,.56,6.28-5.01,12.08-2.49,4.85-3.6h15.95l-.08,3.11,2.15,.61-2.29,4Z"/>
    </g>
  </g>
</svg>