<svg width="1920" height="292" viewBox="0 0 1920 292" fill="none" xmlns="http://www.w3.org/2000/svg">
<g clip-path="url(#clip0_339_703)">
<rect width="1920" height="292" fill="#174563"/>
<path opacity="0.5" fill-rule="evenodd" clip-rule="evenodd" d="M497.18 278.54C497.18 288.35 495.83 296.41 493.66 305.19L491.49 313.08C487.46 326.65 481.38 339.43 475.13 352.05L468.17 365.21C462.5 376.56 446.77 397.51 459.62 407.87C462.19 409.94 466.77 412.06 471.27 412.06H715.49C718.8 412.06 724.3 408.26 726.01 405.73C730.12 399.62 730.33 396.58 730.33 388.93C730.33 383.79 728.68 378.86 729.6 373.87C730.03 371.52 731.77 369.62 732.85 367.56C734.38 364.63 735.44 362.16 736.19 358.33C738.32 347.49 728.42 327.98 742.75 324.41C743.56 324.21 744.59 323.96 745.23 323.87C746.22 323.74 747.07 323.86 748.09 323.7C756.68 322.37 778.83 330.33 787.28 332C801.53 334.82 816.34 335.75 830.4 331.07C833.5 330.04 836.47 328.86 839.41 327.5C840.2 327.13 840.58 326.82 841.34 326.41C856.77 317.98 863.89 305.08 863.89 286.85C863.89 268.62 853.83 256.78 862.95 252.98C865.36 251.98 867.3 250.46 868.78 248.53C871.67 244.75 873.45 240.65 873.45 235.56C873.45 229.71 868.93 228.08 872.66 225.72C875.58 223.87 876.67 223.79 878.97 220.21C884.93 210.92 877.71 199.44 873.53 190.97C872.6 189.08 871.44 187.2 871.44 184.77C871.44 181.91 874.53 182.76 876.47 182.76C889.57 182.76 905.36 177.94 910.36 164.84C915.17 152.24 906.77 139.08 900.16 129.15C899.62 128.34 899.16 127.65 898.6 126.93L883.22 107.6C882.07 106.16 881.07 104.74 879.98 103.29C878.35 101.13 876.88 98.5899 875.53 96.1699C874.1 93.5999 872.83 91.1899 871.72 88.4199C866.67 75.8299 868.92 73.2799 868.92 59.5399C868.92 38.5899 866.18 19.9599 861.01 1.81989C857.98 -8.83011 854.27 -18.7401 849.46 -28.5901C846.87 -33.8901 844.39 -39.3201 841.2 -44.2501L836.17 -52.2901C834.35 -55.0201 832.65 -57.5701 830.72 -60.1701L812.64 -81.5701C807.12 -87.0901 801.31 -92.2301 795.28 -97.1601L773.86 -111.95L763.43 -117.87C759.61 -120.16 745.7 -126.05 740.51 -128.14C727.4 -133.43 713.53 -136.95 699.55 -139.74C690.08 -141.63 674.77 -143.84 664.44 -144.11C663.15 -144.14 662.89 -144.37 661.44 -144.38L651.62 -144.62C645.73 -144.62 640.29 -144.07 634.5 -143.63C632.55 -143.48 630.59 -143.4 628.91 -143.18C626.99 -142.93 625.21 -143.02 623.3 -142.75L607.17 -140.77C590.36 -138.34 573.7 -134.78 557.44 -130.14C551.24 -128.37 545.24 -126.47 539.22 -124.21C536.36 -123.14 533.39 -122.09 530.55 -120.81L509.84 -111.34C509 -110.92 508.7 -110.67 507.92 -110.25L494.43 -102.61C493.2 -101.88 492.02 -101.09 490.75 -100.26L476.6 -90.2701C475.42 -89.3801 474.34 -88.6001 473.23 -87.6101L462.67 -78.5501C459.01 -75.1901 454.77 -70.8401 451.47 -67.1201L445.8 -60.7201C442.05 -56.2601 438.69 -51.8001 435.31 -47.0601C429.32 -38.6401 424.45 -29.5501 419.8 -20.3201C416.4 -13.5701 413.34 -5.94012 410.95 1.24988C409.94 4.26988 408.79 7.31989 407.95 10.3199C404.43 22.9499 402.54 32.3699 400.75 45.3599C400.51 47.0999 400.2 49.1199 400.11 50.7599C400.01 52.5999 399.82 54.6499 399.64 56.3199C399.42 58.2899 399.19 66.2499 399.39 68.0599C399.59 69.8699 399.6 71.7199 399.6 73.8799C399.6 84.8199 401.04 96.2699 403.1 106.59C405.17 116.98 407.84 124.78 411.33 134.57C412.89 138.95 414.85 143.03 416.79 147.22C420.41 155.03 427.79 167.11 432.5 174.01C438.96 183.49 446.13 192.56 453.4 201.4C453.68 201.74 453.82 201.85 454.11 202.23L456.13 204.7C457.66 206.27 458.78 208.02 460.28 209.6L468.58 219.41C469.18 220.06 469.41 220.42 469.97 221.04C470.54 221.68 470.8 221.99 471.36 222.66L474.13 225.93C474.62 226.52 475.02 227.03 475.5 227.57C477.46 229.77 479.07 231.92 481.03 234.11C484.38 237.86 487.33 242.14 489.64 246.62C491.4 250.02 492.83 253.58 494.07 257.27C496.06 263.2 497.18 270.75 497.18 278.55M504.73 -31.4801C505.01 -32.6601 505.12 -34.0501 505.38 -35.3601C506.1 -38.9601 507.31 -42.2801 508.76 -45.5601C509.2 -46.5601 509.81 -47.4401 510.41 -48.4401C511.02 -49.4601 511.57 -50.2201 512.24 -51.1401C519.57 -61.1801 531.4 -65.4301 543.97 -65.4301C545.68 -68.6601 547.01 -70.6901 549.44 -73.2801C551.89 -75.9001 553.33 -77.4301 556.49 -79.5601C565.44 -85.5901 577.12 -87.3101 587.84 -85.1401C599.99 -82.6801 590.18 -82.4701 606.68 -90.7401C616.75 -95.7801 630.88 -95.4501 640.05 -89.3101C652.66 -95.9801 666.57 -93.7301 678.7 -87.2201C679.69 -86.6901 680.61 -86.1101 681.5 -85.5001C684.64 -83.3601 683.73 -83.2501 687.23 -84.1401C695.48 -86.2301 705.35 -86.1401 713.4 -83.4501C717.44 -82.1001 721.14 -80.0501 724.23 -77.4301C724.91 -76.8501 725.53 -76.4001 726.14 -75.8101L729.41 -72.2901C731.59 -69.8501 733.35 -67.0701 734.88 -64.1801C747.64 -64.1801 759.07 -60.1501 767 -50.7801C771.08 -45.9601 774.62 -37.1301 774.62 -30.9901C776.64 -30.5201 781.46 -27.5001 783.27 -26.3201C790.96 -21.3201 799.26 -12.1601 799.26 -1.57013C799.26 3.31987 798.69 7.34988 796.94 11.4699C796.19 13.2299 797.54 13.8799 798.45 15.3199C806.81 28.4299 811.14 44.2099 800.43 57.4299C799.32 58.8099 797.88 60.5999 796.48 61.5299C798.16 68.7399 798.49 69.6699 798.49 77.3699C798.49 87.6099 792.59 96.3299 784.3 101.4C782.74 102.35 781.78 102.78 780.12 103.51L775.35 105.28C775.35 114.2 770.99 122.63 766.48 127.09L763.6 129.74C761.18 131.78 758.22 133.75 755.26 134.98C752.36 136.19 749.52 137.19 746.42 137.96C743.41 138.7 740.08 139.38 736.82 139.68C734.14 139.93 736.15 141.08 732.67 147.35L729.79 151.01C726.81 153.86 723.69 155.99 719.6 157.42C710.12 160.74 697.66 159.5 688.32 157.32C687.33 157.98 686.61 158.9 685.74 159.77C679.73 165.8 669.94 170.9 661.15 170.9C654.39 170.9 648.84 170.18 642.96 167.21C637.67 164.55 639.87 164.66 634.35 166.98C625.11 170.86 612.23 171.99 603.41 166.77C599.66 164.55 596.15 161.91 593.75 158.33C586.2 160.09 576.29 159.59 568.83 158.1C562.33 156.8 555.86 154.16 550.94 149.83C548.25 147.46 545.93 145 543.95 141.98C542.76 140.18 543.35 139.66 540.44 139.71C531.75 139.84 521.06 135.89 514.97 129.72C508.52 123.19 504.7 115.83 503.16 106.58C502.83 104.57 502 105 500.09 103.87C496.45 101.71 493.08 99.2799 490.07 96.2799C483.78 90.0199 479.07 81.0099 479.07 71.8299L479.34 64.0499C480.01 58.0499 480.04 61.1999 476.89 54.8899C475.84 52.7999 475.03 51.1199 474.2 48.7799C470.86 39.3799 469.05 29.7699 474.46 20.6899C476.32 17.5699 479.09 14.4399 482.34 12.7299C481.77 10.3099 480.91 8.31987 480.5 5.75987C478.96 -3.82013 480.4 -14.4201 487.55 -21.5301C489.13 -23.1001 490.46 -24.5401 492.34 -25.8001C494.28 -27.0901 495.91 -28.0001 498.1 -29.1001C499.43 -29.7701 503.11 -31.5001 504.72 -31.5301L504.73 -31.4801Z" fill="#94C6E0"/>
<path opacity="0.75" fill-rule="evenodd" clip-rule="evenodd" d="M393.62 278.72C393.62 288.53 392.27 296.59 390.1 305.37L387.93 313.26C383.9 326.83 377.82 339.61 371.57 352.23L364.61 365.39C358.94 376.74 343.21 397.69 356.06 408.05C358.63 410.12 363.21 412.24 367.71 412.24H611.93C615.24 412.24 620.74 408.44 622.45 405.91C626.56 399.8 626.77 396.76 626.77 389.11C626.77 383.97 625.12 379.04 626.04 374.05C626.47 371.7 628.21 369.8 629.29 367.74C630.82 364.81 631.88 362.34 632.63 358.51C634.76 347.67 624.86 328.16 639.19 324.59C640 324.39 641.03 324.14 641.67 324.05C642.66 323.92 643.51 324.04 644.53 323.88C653.12 322.55 675.27 330.51 683.72 332.18C697.97 335 712.78 335.93 726.84 331.25C729.94 330.22 732.91 329.04 735.85 327.68C736.65 327.31 737.02 327 737.78 326.59C753.21 318.16 760.33 305.26 760.33 287.03C760.33 268.8 750.27 256.95 759.39 253.15C761.79 252.15 763.74 250.63 765.21 248.7C768.1 244.92 769.88 240.82 769.88 235.73C769.88 229.87 765.36 228.25 769.09 225.89C772.01 224.04 773.1 223.96 775.4 220.38C781.36 211.09 774.14 199.61 769.96 191.14C769.03 189.25 767.87 187.37 767.87 184.94C767.87 182.08 770.96 182.93 772.9 182.93C786 182.93 801.79 178.11 806.79 165.01C811.6 152.41 803.2 139.25 796.59 129.32C796.05 128.51 795.59 127.82 795.03 127.1L779.65 107.77C778.5 106.33 777.5 104.91 776.41 103.46C774.78 101.3 773.31 98.76 771.96 96.34C770.52 93.77 769.26 91.36 768.15 88.59C763.1 76 765.35 73.4501 765.35 59.7101C765.35 38.7601 762.61 20.1301 757.44 1.99005C754.41 -8.65994 750.7 -18.57 745.89 -28.42C743.3 -33.72 740.82 -39.1499 737.63 -44.09L732.6 -52.13C730.78 -54.86 729.08 -57.41 727.15 -60.0099L709.07 -81.41C703.55 -86.93 697.74 -92.0699 691.71 -96.9899L670.29 -111.78L659.86 -117.7C656.04 -119.99 642.13 -125.88 636.94 -127.97C623.83 -133.26 609.96 -136.78 595.98 -139.57C586.51 -141.46 571.2 -143.67 560.87 -143.94C559.58 -143.97 559.32 -144.21 557.87 -144.21L548.05 -144.45C542.16 -144.45 536.72 -143.9 530.93 -143.46C528.98 -143.31 527.02 -143.23 525.34 -143.01C523.42 -142.76 521.64 -142.86 519.73 -142.58L503.6 -140.6C486.79 -138.17 470.13 -134.61 453.87 -129.97C447.67 -128.2 441.67 -126.3 435.65 -124.04C432.79 -122.97 429.82 -121.92 426.98 -120.64L406.27 -111.17C405.43 -110.75 405.13 -110.5 404.35 -110.08L390.86 -102.44C389.63 -101.71 388.45 -100.92 387.18 -100.09L373.03 -90.0999C371.85 -89.2099 370.77 -88.43 369.66 -87.44L359.1 -78.3799C355.44 -75.0199 351.2 -70.67 347.9 -66.95L342.23 -60.55C338.48 -56.09 335.12 -51.63 331.74 -46.89C325.75 -38.47 320.88 -29.38 316.23 -20.16C312.83 -13.41 309.77 -5.77995 307.38 1.41005C306.37 4.43005 305.22 7.48004 304.38 10.48C300.86 23.11 298.97 32.53 297.18 45.5201C296.94 47.2601 296.63 49.28 296.54 50.92C296.44 52.76 296.25 54.81 296.07 56.48C295.85 58.45 295.61 66.41 295.82 68.22C296.02 70.03 296.04 71.8801 296.04 74.0401C296.04 84.9801 297.48 96.42 299.54 106.75C301.61 117.14 304.28 124.94 307.77 134.73C309.33 139.11 311.29 143.19 313.23 147.38C316.85 155.19 324.23 167.27 328.94 174.17C335.4 183.65 342.57 192.72 349.84 201.56C350.12 201.9 350.26 202.01 350.55 202.39L352.57 204.86C354.1 206.43 355.22 208.18 356.72 209.76L365.02 219.57C365.62 220.22 365.85 220.58 366.41 221.2C366.98 221.84 367.24 222.15 367.8 222.82L370.57 226.09C371.06 226.68 371.46 227.19 371.94 227.73C373.9 229.93 375.51 232.08 377.47 234.27C380.82 238.02 383.77 242.3 386.08 246.78C387.84 250.18 389.27 253.74 390.51 257.43C392.5 263.36 393.62 270.91 393.62 278.71M401.17 -31.32C401.45 -32.5 401.56 -33.89 401.82 -35.2C402.54 -38.7999 403.75 -42.1199 405.2 -45.3999C405.64 -46.3999 406.25 -47.28 406.85 -48.28C407.46 -49.2999 408.01 -50.06 408.68 -50.9799C416.01 -61.02 427.84 -65.2699 440.41 -65.2699C442.12 -68.4999 443.45 -70.5299 445.88 -73.1299C448.33 -75.7499 449.77 -77.28 452.93 -79.41C461.88 -85.44 473.56 -87.16 484.28 -84.9899C496.43 -82.5299 486.61 -82.3299 503.12 -90.5899C513.19 -95.6299 527.32 -95.3 536.49 -89.16C549.1 -95.83 563.01 -93.5799 575.14 -87.07C576.13 -86.54 577.05 -85.9599 577.94 -85.3499C581.08 -83.2099 580.17 -83.0999 583.67 -83.9899C591.92 -86.0799 601.79 -85.99 609.84 -83.3C613.88 -81.95 617.58 -79.9 620.67 -77.28C621.35 -76.7 621.97 -76.25 622.57 -75.66L625.84 -72.14C628.02 -69.7 629.78 -66.92 631.31 -64.03C644.07 -64.03 655.5 -60 663.43 -50.63C667.51 -45.81 671.05 -36.9799 671.05 -30.84C673.07 -30.3699 677.89 -27.35 679.71 -26.17C687.4 -21.17 695.7 -12.0099 695.7 -1.41995C695.7 3.47005 695.13 7.50005 693.38 11.62C692.63 13.38 693.98 14.03 694.89 15.47C703.24 28.58 707.58 44.36 696.87 57.58C695.75 58.9601 694.32 60.75 692.92 61.68C694.6 68.89 694.93 69.82 694.93 77.52C694.93 87.76 689.03 96.48 680.74 101.55C679.18 102.5 678.22 102.93 676.56 103.66L671.79 105.43C671.79 114.35 667.43 122.78 662.93 127.24L660.05 129.89C657.63 131.93 654.67 133.9 651.71 135.13C648.81 136.34 645.97 137.34 642.87 138.11C639.87 138.85 636.53 139.53 633.27 139.83C630.59 140.08 632.6 141.23 629.12 147.5L626.24 151.16C623.26 154.01 620.14 156.14 616.05 157.57C606.57 160.89 594.11 159.65 584.76 157.47C583.77 158.13 583.06 159.05 582.18 159.92C576.17 165.95 566.38 171.05 557.6 171.05C550.84 171.05 545.29 170.33 539.41 167.36C534.12 164.7 536.32 164.81 530.8 167.13C521.56 171.01 508.68 172.14 499.86 166.92C496.11 164.7 492.6 162.06 490.2 158.48C482.65 160.24 472.74 159.74 465.28 158.25C458.78 156.95 452.31 154.31 447.39 149.98C444.7 147.61 442.38 145.15 440.4 142.13C439.21 140.33 439.8 139.81 436.89 139.86C428.2 139.99 417.51 136.04 411.42 129.87C404.97 123.34 401.15 115.98 399.61 106.73C399.28 104.72 398.45 105.15 396.54 104.02C392.9 101.86 389.53 99.43 386.52 96.43C380.23 90.17 375.52 81.1601 375.52 71.9801L375.79 64.2001C376.46 58.2001 376.49 61.35 373.34 55.04C372.29 52.95 371.48 51.27 370.65 48.93C367.31 39.53 365.5 29.92 370.91 20.84C372.77 17.72 375.54 14.5901 378.79 12.8801C378.22 10.4601 377.36 8.47005 376.95 5.91005C375.41 -3.66995 376.85 -14.27 384 -21.38C385.58 -22.95 386.91 -24.3899 388.79 -25.6499C390.73 -26.9399 392.36 -27.85 394.55 -28.95C395.88 -29.6199 399.56 -31.35 401.17 -31.38V-31.32Z" fill="#96D1CC"/>
<path opacity="0.7" fill-rule="evenodd" clip-rule="evenodd" d="M290.23 278.89C290.23 288.7 288.88 296.76 286.71 305.54L284.54 313.43C280.51 327 274.43 339.78 268.19 352.4L261.23 365.56C255.56 376.91 239.83 397.86 252.68 408.22C255.25 410.29 259.83 412.41 264.33 412.41H508.55C511.86 412.41 517.36 408.61 519.07 406.08C523.18 399.97 523.39 396.93 523.39 389.28C523.39 384.14 521.74 379.21 522.66 374.22C523.09 371.87 524.83 369.97 525.91 367.91C527.44 364.98 528.5 362.51 529.25 358.68C531.38 347.84 521.48 328.33 535.81 324.76C536.62 324.56 537.65 324.31 538.29 324.22C539.28 324.09 540.13 324.21 541.15 324.05C549.74 322.72 571.89 330.68 580.34 332.35C594.59 335.17 609.4 336.1 623.46 331.42C626.56 330.39 629.53 329.21 632.47 327.85C633.27 327.48 633.64 327.17 634.4 326.76C649.83 318.33 656.95 305.43 656.95 287.2C656.95 268.97 646.89 257.13 656.01 253.33C658.41 252.33 660.36 250.81 661.83 248.88C664.72 245.1 666.5 241 666.5 235.91C666.5 230.06 661.98 228.43 665.71 226.07C668.63 224.22 669.72 224.14 672.02 220.56C677.98 211.27 670.76 199.79 666.58 191.32C665.65 189.43 664.49 187.55 664.49 185.12C664.49 182.26 667.58 183.11 669.52 183.11C682.62 183.11 698.41 178.29 703.41 165.19C708.22 152.59 699.82 139.43 693.21 129.5C692.67 128.69 692.21 128 691.65 127.29L676.27 107.96C675.12 106.52 674.12 105.1 673.03 103.65C671.4 101.49 669.93 98.95 668.58 96.53C667.14 93.96 665.88 91.55 664.77 88.78C659.72 76.19 661.97 73.64 661.97 59.9C661.97 38.95 659.23 20.32 654.06 2.17999C651.03 -8.47 647.32 -18.38 642.51 -28.23C639.92 -33.53 637.44 -38.96 634.25 -43.89L629.22 -51.93C627.4 -54.66 625.7 -57.21 623.78 -59.81L605.7 -81.21C600.18 -86.73 594.37 -91.87 588.34 -96.79L566.92 -111.58L556.49 -117.5C552.67 -119.79 538.76 -125.68 533.57 -127.77C520.46 -133.06 506.59 -136.58 492.61 -139.37C483.14 -141.26 467.83 -143.47 457.5 -143.74C456.21 -143.77 455.95 -144 454.5 -144.01L444.68 -144.25C438.79 -144.25 433.35 -143.7 427.56 -143.26C425.61 -143.11 423.65 -143.03 421.97 -142.81C420.06 -142.56 418.27 -142.65 416.36 -142.38L400.23 -140.4C383.42 -137.97 366.77 -134.41 350.5 -129.77C344.31 -128 338.3 -126.1 332.28 -123.84C329.42 -122.77 326.45 -121.72 323.61 -120.44L302.9 -110.97C302.06 -110.55 301.76 -110.3 300.98 -109.88L287.49 -102.24C286.26 -101.51 285.08 -100.72 283.81 -99.89L269.66 -89.9C268.48 -89.01 267.4 -88.23 266.29 -87.24L255.73 -78.18C252.07 -74.82 247.83 -70.47 244.53 -66.75L238.86 -60.35C235.11 -55.89 231.75 -51.43 228.37 -46.69C222.38 -38.27 217.51 -29.18 212.86 -19.95C209.46 -13.2 206.4 -5.57001 204.01 1.62C203 4.64 201.85 7.69 201.01 10.69C197.49 23.32 195.6 32.74 193.81 45.73C193.57 47.47 193.26 49.49 193.17 51.13C193.07 52.97 192.88 55.02 192.7 56.69C192.48 58.66 192.24 66.62 192.45 68.43C192.65 70.24 192.67 72.09 192.67 74.25C192.67 85.19 194.11 96.63 196.17 106.96C198.24 117.35 200.91 125.15 204.4 134.94C205.96 139.32 207.92 143.4 209.86 147.59C213.48 155.4 220.86 167.48 225.57 174.38C232.03 183.86 239.2 192.93 246.47 201.77C246.75 202.11 246.89 202.22 247.18 202.6L249.2 205.07C250.73 206.64 251.85 208.39 253.35 209.97L261.65 219.78C262.25 220.43 262.48 220.79 263.04 221.41C263.61 222.05 263.87 222.36 264.43 223.03L267.2 226.3C267.69 226.89 268.09 227.4 268.57 227.94C270.53 230.14 272.14 232.29 274.1 234.48C277.45 238.23 280.4 242.51 282.71 246.99C284.47 250.39 285.9 253.95 287.14 257.64C289.13 263.57 290.25 271.12 290.25 278.92M297.8 -31.11C298.07 -32.29 298.19 -33.68 298.45 -34.99C299.17 -38.59 300.38 -41.91 301.83 -45.19C302.27 -46.19 302.88 -47.07 303.48 -48.07C304.09 -49.09 304.64 -49.85 305.31 -50.77C312.64 -60.81 324.47 -65.06 337.04 -65.06C338.75 -68.29 340.08 -70.32 342.51 -72.91C344.96 -75.53 346.4 -77.06 349.56 -79.19C358.51 -85.22 370.19 -86.94 380.91 -84.77C393.06 -82.31 383.25 -82.1 399.75 -90.37C409.82 -95.41 423.95 -95.08 433.12 -88.94C445.73 -95.61 459.64 -93.36 471.77 -86.85C472.76 -86.32 473.68 -85.74 474.57 -85.13C477.71 -82.99 476.8 -82.88 480.3 -83.77C488.55 -85.86 498.42 -85.77 506.47 -83.08C510.51 -81.73 514.21 -79.68 517.3 -77.06C517.98 -76.48 518.6 -76.03 519.2 -75.44L522.47 -71.92C524.65 -69.48 526.41 -66.7 527.94 -63.81C540.7 -63.81 552.13 -59.78 560.06 -50.41C564.14 -45.59 567.68 -36.76 567.68 -30.62C569.7 -30.15 574.52 -27.13 576.33 -25.95C584.02 -20.95 592.32 -11.79 592.32 -1.2C592.32 3.69 591.75 7.72 590 11.84C589.25 13.6 590.6 14.25 591.51 15.69C599.86 28.8 604.2 44.58 593.49 57.8C592.37 59.18 590.94 60.97 589.54 61.9C591.22 69.11 591.55 70.04 591.55 77.74C591.55 87.98 585.65 96.7 577.36 101.77C575.8 102.72 574.84 103.15 573.18 103.88L568.41 105.65C568.41 114.57 564.05 123 559.55 127.46L556.67 130.11C554.25 132.15 551.29 134.12 548.33 135.35C545.43 136.56 542.59 137.56 539.49 138.33C536.48 139.07 533.15 139.75 529.89 140.05C527.21 140.3 529.21 141.45 525.74 147.72L522.86 151.38C519.88 154.23 516.76 156.36 512.67 157.79C503.19 161.11 490.73 159.87 481.39 157.69C480.4 158.35 479.68 159.27 478.81 160.14C472.8 166.17 463.01 171.27 454.22 171.27C447.46 171.27 441.91 170.55 436.03 167.58C430.74 164.92 432.94 165.03 427.42 167.35C418.18 171.23 405.3 172.36 396.48 167.14C392.73 164.92 389.22 162.28 386.82 158.7C379.27 160.46 369.36 159.96 361.9 158.47C355.4 157.17 348.93 154.53 344.01 150.2C341.32 147.83 339 145.37 337.02 142.35C335.83 140.55 336.42 140.03 333.51 140.08C324.82 140.21 314.13 136.26 308.04 130.09C301.59 123.56 297.77 116.2 296.23 106.95C295.9 104.94 295.07 105.37 293.16 104.24C289.52 102.08 286.15 99.65 283.14 96.65C276.85 90.39 272.14 81.38 272.14 72.2L272.41 64.42C273.08 58.42 273.11 61.57 269.96 55.26C268.91 53.17 268.1 51.49 267.27 49.15C263.93 39.75 262.12 30.14 267.53 21.06C269.39 17.94 272.16 14.81 275.41 13.1C274.84 10.68 273.98 8.69 273.57 6.13C272.03 -3.45 273.47 -14.05 280.62 -21.16C282.2 -22.73 283.53 -24.17 285.41 -25.43C287.35 -26.72 288.98 -27.63 291.17 -28.73C292.5 -29.4 296.18 -31.13 297.79 -31.16L297.8 -31.11Z" fill="#98CCA5"/>
</g>
<defs>
<clipPath id="clip0_339_703">
<rect width="1920" height="292" fill="white"/>
</clipPath>
</defs>
</svg>
