<svg width="720" height="292" viewBox="0 0 720 292" fill="none" xmlns="http://www.w3.org/2000/svg">
<path opacity="0.5" fill-rule="evenodd" clip-rule="evenodd" d="M305.18 278.54C305.18 288.35 303.83 296.41 301.66 305.19L299.49 313.08C295.46 326.65 289.38 339.43 283.13 352.05L276.17 365.21C270.5 376.56 254.77 397.51 267.62 407.87C270.19 409.94 274.77 412.06 279.27 412.06H523.49C526.8 412.06 532.3 408.26 534.01 405.73C538.12 399.62 538.33 396.58 538.33 388.93C538.33 383.79 536.68 378.86 537.6 373.87C538.03 371.52 539.77 369.62 540.85 367.56C542.38 364.63 543.44 362.16 544.19 358.33C546.32 347.49 536.42 327.98 550.75 324.41C551.56 324.21 552.59 323.96 553.23 323.87C554.22 323.74 555.07 323.86 556.09 323.7C564.68 322.37 586.83 330.33 595.28 332C609.53 334.82 624.34 335.75 638.4 331.07C641.5 330.04 644.47 328.86 647.41 327.5C648.2 327.13 648.58 326.82 649.34 326.41C664.77 317.98 671.89 305.08 671.89 286.85C671.89 268.62 661.83 256.78 670.95 252.98C673.36 251.98 675.3 250.46 676.78 248.53C679.67 244.75 681.45 240.65 681.45 235.56C681.45 229.71 676.93 228.08 680.66 225.72C683.58 223.87 684.67 223.79 686.97 220.21C692.93 210.92 685.71 199.44 681.53 190.97C680.6 189.08 679.44 187.2 679.44 184.77C679.44 181.91 682.53 182.76 684.47 182.76C697.57 182.76 713.36 177.94 718.36 164.84C723.17 152.24 714.77 139.08 708.16 129.15C707.62 128.34 707.16 127.65 706.6 126.93L691.22 107.6C690.07 106.16 689.07 104.74 687.98 103.29C686.35 101.13 684.88 98.5899 683.53 96.1699C682.1 93.5999 680.83 91.1899 679.72 88.4199C674.67 75.8299 676.92 73.2799 676.92 59.5399C676.92 38.5899 674.18 19.9599 669.01 1.81989C665.98 -8.83011 662.27 -18.7401 657.46 -28.5901C654.87 -33.8901 652.39 -39.3201 649.2 -44.2501L644.17 -52.2901C642.35 -55.0201 640.65 -57.5701 638.72 -60.1701L620.64 -81.5701C615.12 -87.0901 609.31 -92.2301 603.28 -97.1601L581.86 -111.95L571.43 -117.87C567.61 -120.16 553.7 -126.05 548.51 -128.14C535.4 -133.43 521.53 -136.95 507.55 -139.74C498.08 -141.63 482.77 -143.84 472.44 -144.11C471.15 -144.14 470.89 -144.37 469.44 -144.38L459.62 -144.62C453.73 -144.62 448.29 -144.07 442.5 -143.63C440.55 -143.48 438.59 -143.4 436.91 -143.18C434.99 -142.93 433.21 -143.02 431.3 -142.75L415.17 -140.77C398.36 -138.34 381.7 -134.78 365.44 -130.14C359.24 -128.37 353.24 -126.47 347.22 -124.21C344.36 -123.14 341.39 -122.09 338.55 -120.81L317.84 -111.34C317 -110.92 316.7 -110.67 315.92 -110.25L302.43 -102.61C301.2 -101.88 300.02 -101.09 298.75 -100.26L284.6 -90.2701C283.42 -89.3801 282.34 -88.6001 281.23 -87.6101L270.67 -78.5501C267.01 -75.1901 262.77 -70.8401 259.47 -67.1201L253.8 -60.7201C250.05 -56.2601 246.69 -51.8001 243.31 -47.0601C237.32 -38.6401 232.45 -29.5501 227.8 -20.3201C224.4 -13.5701 221.34 -5.94012 218.95 1.24988C217.94 4.26988 216.79 7.31989 215.95 10.3199C212.43 22.9499 210.54 32.3699 208.75 45.3599C208.51 47.0999 208.2 49.1199 208.11 50.7599C208.01 52.5999 207.82 54.6499 207.64 56.3199C207.42 58.2899 207.19 66.2499 207.39 68.0599C207.59 69.8699 207.6 71.7199 207.6 73.8799C207.6 84.8199 209.04 96.2699 211.1 106.59C213.17 116.98 215.84 124.78 219.33 134.57C220.89 138.95 222.85 143.03 224.79 147.22C228.41 155.03 235.79 167.11 240.5 174.01C246.96 183.49 254.13 192.56 261.4 201.4C261.68 201.74 261.82 201.85 262.11 202.23L264.13 204.7C265.66 206.27 266.78 208.02 268.28 209.6L276.58 219.41C277.18 220.06 277.41 220.42 277.97 221.04C278.54 221.68 278.8 221.99 279.36 222.66L282.13 225.93C282.62 226.52 283.02 227.03 283.5 227.57C285.46 229.77 287.07 231.92 289.03 234.11C292.38 237.86 295.33 242.14 297.64 246.62C299.4 250.02 300.83 253.58 302.07 257.27C304.06 263.2 305.18 270.75 305.18 278.55M312.73 -31.4801C313.01 -32.6601 313.12 -34.0501 313.38 -35.3601C314.1 -38.9601 315.31 -42.2801 316.76 -45.5601C317.2 -46.5601 317.81 -47.4401 318.41 -48.4401C319.02 -49.4601 319.57 -50.2201 320.24 -51.1401C327.57 -61.1801 339.4 -65.4301 351.97 -65.4301C353.68 -68.6601 355.01 -70.6901 357.44 -73.2801C359.89 -75.9001 361.33 -77.4301 364.49 -79.5601C373.44 -85.5901 385.12 -87.3101 395.84 -85.1401C407.99 -82.6801 398.18 -82.4701 414.68 -90.7401C424.75 -95.7801 438.88 -95.4501 448.05 -89.3101C460.66 -95.9801 474.57 -93.7301 486.7 -87.2201C487.69 -86.6901 488.61 -86.1101 489.5 -85.5001C492.64 -83.3601 491.73 -83.2501 495.23 -84.1401C503.48 -86.2301 513.35 -86.1401 521.4 -83.4501C525.44 -82.1001 529.14 -80.0501 532.23 -77.4301C532.91 -76.8501 533.53 -76.4001 534.14 -75.8101L537.41 -72.2901C539.59 -69.8501 541.35 -67.0701 542.88 -64.1801C555.64 -64.1801 567.07 -60.1501 575 -50.7801C579.08 -45.9601 582.62 -37.1301 582.62 -30.9901C584.64 -30.5201 589.46 -27.5001 591.27 -26.3201C598.96 -21.3201 607.26 -12.1601 607.26 -1.57013C607.26 3.31987 606.69 7.34988 604.94 11.4699C604.19 13.2299 605.54 13.8799 606.45 15.3199C614.81 28.4299 619.14 44.2099 608.43 57.4299C607.32 58.8099 605.88 60.5999 604.48 61.5299C606.16 68.7399 606.49 69.6699 606.49 77.3699C606.49 87.6099 600.59 96.3299 592.3 101.4C590.74 102.35 589.78 102.78 588.12 103.51L583.35 105.28C583.35 114.2 578.99 122.63 574.48 127.09L571.6 129.74C569.18 131.78 566.22 133.75 563.26 134.98C560.36 136.19 557.52 137.19 554.42 137.96C551.41 138.7 548.08 139.38 544.82 139.68C542.14 139.93 544.15 141.08 540.67 147.35L537.79 151.01C534.81 153.86 531.69 155.99 527.6 157.42C518.12 160.74 505.66 159.5 496.32 157.32C495.33 157.98 494.61 158.9 493.74 159.77C487.73 165.8 477.94 170.9 469.15 170.9C462.39 170.9 456.84 170.18 450.96 167.21C445.67 164.55 447.87 164.66 442.35 166.98C433.11 170.86 420.23 171.99 411.41 166.77C407.66 164.55 404.15 161.91 401.75 158.33C394.2 160.09 384.29 159.59 376.83 158.1C370.33 156.8 363.86 154.16 358.94 149.83C356.25 147.46 353.93 145 351.95 141.98C350.76 140.18 351.35 139.66 348.44 139.71C339.75 139.84 329.06 135.89 322.97 129.72C316.52 123.19 312.7 115.83 311.16 106.58C310.83 104.57 310 105 308.09 103.87C304.45 101.71 301.08 99.2799 298.07 96.2799C291.78 90.0199 287.07 81.0099 287.07 71.8299L287.34 64.0499C288.01 58.0499 288.04 61.1999 284.89 54.8899C283.84 52.7999 283.03 51.1199 282.2 48.7799C278.86 39.3799 277.05 29.7699 282.46 20.6899C284.32 17.5699 287.09 14.4399 290.34 12.7299C289.77 10.3099 288.91 8.31987 288.5 5.75987C286.96 -3.82013 288.4 -14.4201 295.55 -21.5301C297.13 -23.1001 298.46 -24.5401 300.34 -25.8001C302.28 -27.0901 303.91 -28.0001 306.1 -29.1001C307.43 -29.7701 311.11 -31.5001 312.72 -31.5301L312.73 -31.4801Z" fill="#94C6E0"/>
<path opacity="0.75" fill-rule="evenodd" clip-rule="evenodd" d="M201.62 278.72C201.62 288.53 200.27 296.59 198.1 305.37L195.93 313.26C191.9 326.83 185.82 339.61 179.57 352.23L172.61 365.39C166.94 376.74 151.21 397.69 164.06 408.05C166.63 410.12 171.21 412.24 175.71 412.24H419.93C423.24 412.24 428.74 408.44 430.45 405.91C434.56 399.8 434.77 396.76 434.77 389.11C434.77 383.97 433.12 379.04 434.04 374.05C434.47 371.7 436.21 369.8 437.29 367.74C438.82 364.81 439.88 362.34 440.63 358.51C442.76 347.67 432.86 328.16 447.19 324.59C448 324.39 449.03 324.14 449.67 324.05C450.66 323.92 451.51 324.04 452.53 323.88C461.12 322.55 483.27 330.51 491.72 332.18C505.97 335 520.78 335.93 534.84 331.25C537.94 330.22 540.91 329.04 543.85 327.68C544.65 327.31 545.02 327 545.78 326.59C561.21 318.16 568.33 305.26 568.33 287.03C568.33 268.8 558.27 256.95 567.39 253.15C569.79 252.15 571.74 250.63 573.21 248.7C576.1 244.92 577.88 240.82 577.88 235.73C577.88 229.87 573.36 228.25 577.09 225.89C580.01 224.04 581.1 223.96 583.4 220.38C589.36 211.09 582.14 199.61 577.96 191.14C577.03 189.25 575.87 187.37 575.87 184.94C575.87 182.08 578.96 182.93 580.9 182.93C594 182.93 609.79 178.11 614.79 165.01C619.6 152.41 611.2 139.25 604.59 129.32C604.05 128.51 603.59 127.82 603.03 127.1L587.65 107.77C586.5 106.33 585.5 104.91 584.41 103.46C582.78 101.3 581.31 98.76 579.96 96.34C578.52 93.77 577.26 91.36 576.15 88.59C571.1 76 573.35 73.4501 573.35 59.7101C573.35 38.7601 570.61 20.1301 565.44 1.99005C562.41 -8.65995 558.7 -18.57 553.89 -28.42C551.3 -33.72 548.82 -39.15 545.63 -44.09L540.6 -52.13C538.78 -54.86 537.08 -57.4099 535.15 -60.0099L517.07 -81.41C511.55 -86.93 505.74 -92.0699 499.71 -96.9899L478.29 -111.78L467.86 -117.7C464.04 -119.99 450.13 -125.88 444.94 -127.97C431.83 -133.26 417.96 -136.78 403.98 -139.57C394.51 -141.46 379.2 -143.67 368.87 -143.94C367.58 -143.97 367.32 -144.21 365.87 -144.21L356.05 -144.45C350.16 -144.45 344.72 -143.9 338.93 -143.46C336.98 -143.31 335.02 -143.23 333.34 -143.01C331.42 -142.76 329.64 -142.86 327.73 -142.58L311.6 -140.6C294.79 -138.17 278.13 -134.61 261.87 -129.97C255.67 -128.2 249.67 -126.3 243.65 -124.04C240.79 -122.97 237.82 -121.92 234.98 -120.64L214.27 -111.17C213.43 -110.75 213.13 -110.5 212.35 -110.08L198.86 -102.44C197.63 -101.71 196.45 -100.92 195.18 -100.09L181.03 -90.0999C179.85 -89.2099 178.77 -88.43 177.66 -87.44L167.1 -78.3799C163.44 -75.0199 159.2 -70.67 155.9 -66.95L150.23 -60.55C146.48 -56.09 143.12 -51.63 139.74 -46.89C133.75 -38.47 128.88 -29.38 124.23 -20.16C120.83 -13.41 117.77 -5.77995 115.38 1.41005C114.37 4.43005 113.22 7.48004 112.38 10.48C108.86 23.11 106.97 32.5301 105.18 45.5201C104.94 47.2601 104.63 49.28 104.54 50.92C104.44 52.76 104.25 54.81 104.07 56.48C103.85 58.45 103.61 66.41 103.82 68.22C104.02 70.03 104.04 71.8801 104.04 74.0401C104.04 84.9801 105.48 96.42 107.54 106.75C109.61 117.14 112.28 124.94 115.77 134.73C117.33 139.11 119.29 143.19 121.23 147.38C124.85 155.19 132.23 167.27 136.94 174.17C143.4 183.65 150.57 192.72 157.84 201.56C158.12 201.9 158.26 202.01 158.55 202.39L160.57 204.86C162.1 206.43 163.22 208.18 164.72 209.76L173.02 219.57C173.62 220.22 173.85 220.58 174.41 221.2C174.98 221.84 175.24 222.15 175.8 222.82L178.57 226.09C179.06 226.68 179.46 227.19 179.94 227.73C181.9 229.93 183.51 232.08 185.47 234.27C188.82 238.02 191.77 242.3 194.08 246.78C195.84 250.18 197.27 253.74 198.51 257.43C200.5 263.36 201.62 270.91 201.62 278.71M209.17 -31.32C209.45 -32.5 209.56 -33.89 209.82 -35.2C210.54 -38.8 211.75 -42.1199 213.2 -45.3999C213.64 -46.3999 214.25 -47.28 214.85 -48.28C215.46 -49.3 216.01 -50.0599 216.68 -50.9799C224.01 -61.0199 235.84 -65.2699 248.41 -65.2699C250.12 -68.4999 251.45 -70.5299 253.88 -73.1299C256.33 -75.7499 257.77 -77.28 260.93 -79.41C269.88 -85.44 281.56 -87.1599 292.28 -84.9899C304.43 -82.5299 294.61 -82.3299 311.12 -90.5899C321.19 -95.6299 335.32 -95.3 344.49 -89.16C357.1 -95.83 371.01 -93.58 383.14 -87.07C384.13 -86.54 385.05 -85.9599 385.94 -85.3499C389.08 -83.2099 388.17 -83.0999 391.67 -83.9899C399.92 -86.0799 409.79 -85.99 417.84 -83.3C421.88 -81.95 425.58 -79.9 428.67 -77.28C429.35 -76.7 429.97 -76.25 430.57 -75.66L433.84 -72.14C436.02 -69.7 437.78 -66.92 439.31 -64.03C452.07 -64.03 463.5 -60 471.43 -50.63C475.51 -45.81 479.05 -36.98 479.05 -30.84C481.07 -30.37 485.89 -27.35 487.71 -26.17C495.4 -21.17 503.7 -12.01 503.7 -1.41995C503.7 3.47005 503.13 7.50004 501.38 11.62C500.63 13.38 501.98 14.03 502.89 15.47C511.24 28.58 515.58 44.36 504.87 57.58C503.75 58.96 502.32 60.75 500.92 61.68C502.6 68.89 502.93 69.82 502.93 77.52C502.93 87.76 497.03 96.48 488.74 101.55C487.18 102.5 486.22 102.93 484.56 103.66L479.79 105.43C479.79 114.35 475.43 122.78 470.93 127.24L468.05 129.89C465.63 131.93 462.67 133.9 459.71 135.13C456.81 136.34 453.97 137.34 450.87 138.11C447.87 138.85 444.53 139.53 441.27 139.83C438.59 140.08 440.6 141.23 437.12 147.5L434.24 151.16C431.26 154.01 428.14 156.14 424.05 157.57C414.57 160.89 402.11 159.65 392.76 157.47C391.77 158.13 391.06 159.05 390.18 159.92C384.17 165.95 374.38 171.05 365.6 171.05C358.84 171.05 353.29 170.33 347.41 167.36C342.12 164.7 344.32 164.81 338.8 167.13C329.56 171.01 316.68 172.14 307.86 166.92C304.11 164.7 300.6 162.06 298.2 158.48C290.65 160.24 280.74 159.74 273.28 158.25C266.78 156.95 260.31 154.31 255.39 149.98C252.7 147.61 250.38 145.15 248.4 142.13C247.21 140.33 247.8 139.81 244.89 139.86C236.2 139.99 225.51 136.04 219.42 129.87C212.97 123.34 209.15 115.98 207.61 106.73C207.28 104.72 206.45 105.15 204.54 104.02C200.9 101.86 197.53 99.43 194.52 96.43C188.23 90.17 183.52 81.1601 183.52 71.9801L183.79 64.2001C184.46 58.2001 184.49 61.35 181.34 55.04C180.29 52.95 179.48 51.27 178.65 48.93C175.31 39.53 173.5 29.92 178.91 20.84C180.77 17.72 183.54 14.5901 186.79 12.8801C186.22 10.4601 185.36 8.47005 184.95 5.91005C183.41 -3.66995 184.85 -14.27 192 -21.38C193.58 -22.95 194.91 -24.3899 196.79 -25.6499C198.73 -26.9399 200.36 -27.85 202.55 -28.95C203.88 -29.62 207.56 -31.35 209.17 -31.38V-31.32Z" fill="#96D1CC"/>
<path opacity="0.7" fill-rule="evenodd" clip-rule="evenodd" d="M98.2301 278.89C98.2301 288.7 96.8801 296.76 94.7101 305.54L92.5401 313.43C88.5101 327 82.4301 339.78 76.1901 352.4L69.2301 365.56C63.5601 376.91 47.8301 397.86 60.6801 408.22C63.2501 410.29 67.8301 412.41 72.3301 412.41H316.55C319.86 412.41 325.36 408.61 327.07 406.08C331.18 399.97 331.39 396.93 331.39 389.28C331.39 384.14 329.74 379.21 330.66 374.22C331.09 371.87 332.83 369.97 333.91 367.91C335.44 364.98 336.5 362.51 337.25 358.68C339.38 347.84 329.48 328.33 343.81 324.76C344.62 324.56 345.65 324.31 346.29 324.22C347.28 324.09 348.13 324.21 349.15 324.05C357.74 322.72 379.89 330.68 388.34 332.35C402.59 335.17 417.4 336.1 431.46 331.42C434.56 330.39 437.53 329.21 440.47 327.85C441.27 327.48 441.64 327.17 442.4 326.76C457.83 318.33 464.95 305.43 464.95 287.2C464.95 268.97 454.89 257.13 464.01 253.33C466.41 252.33 468.36 250.81 469.83 248.88C472.72 245.1 474.5 241 474.5 235.91C474.5 230.06 469.98 228.43 473.71 226.07C476.63 224.22 477.72 224.14 480.02 220.56C485.98 211.27 478.76 199.79 474.58 191.32C473.65 189.43 472.49 187.55 472.49 185.12C472.49 182.26 475.58 183.11 477.52 183.11C490.62 183.11 506.41 178.29 511.41 165.19C516.22 152.59 507.82 139.43 501.21 129.5C500.67 128.69 500.21 128 499.65 127.29L484.27 107.96C483.12 106.52 482.12 105.1 481.03 103.65C479.4 101.49 477.93 98.95 476.58 96.53C475.14 93.96 473.88 91.55 472.77 88.78C467.72 76.19 469.97 73.64 469.97 59.9C469.97 38.95 467.23 20.32 462.06 2.17999C459.03 -8.47001 455.32 -18.38 450.51 -28.23C447.92 -33.53 445.44 -38.96 442.25 -43.89L437.22 -51.93C435.4 -54.66 433.7 -57.21 431.78 -59.81L413.7 -81.21C408.18 -86.73 402.37 -91.87 396.34 -96.79L374.92 -111.58L364.49 -117.5C360.67 -119.79 346.76 -125.68 341.57 -127.77C328.46 -133.06 314.59 -136.58 300.61 -139.37C291.14 -141.26 275.83 -143.47 265.5 -143.74C264.21 -143.77 263.95 -144 262.5 -144.01L252.68 -144.25C246.79 -144.25 241.35 -143.7 235.56 -143.26C233.61 -143.11 231.65 -143.03 229.97 -142.81C228.06 -142.56 226.27 -142.65 224.36 -142.38L208.23 -140.4C191.42 -137.97 174.77 -134.41 158.5 -129.77C152.31 -128 146.3 -126.1 140.28 -123.84C137.42 -122.77 134.45 -121.72 131.61 -120.44L110.9 -110.97C110.06 -110.55 109.76 -110.3 108.98 -109.88L95.4901 -102.24C94.2601 -101.51 93.0801 -100.72 91.8101 -99.89L77.6601 -89.9C76.4801 -89.01 75.4001 -88.23 74.2901 -87.24L63.7301 -78.18C60.0701 -74.82 55.8301 -70.47 52.5301 -66.75L46.8601 -60.35C43.1101 -55.89 39.7501 -51.43 36.3701 -46.69C30.3801 -38.27 25.5101 -29.18 20.8601 -19.95C17.4601 -13.2 14.4001 -5.57 12.0101 1.62C11.0001 4.64 9.85008 7.69 9.01008 10.69C5.49008 23.32 3.60008 32.74 1.81008 45.73C1.57008 47.47 1.26008 49.49 1.17008 51.13C1.07008 52.97 0.88008 55.02 0.70008 56.69C0.48008 58.66 0.24008 66.62 0.45008 68.43C0.65008 70.24 0.670082 72.09 0.670082 74.25C0.670082 85.19 2.11008 96.63 4.17008 106.96C6.24008 117.35 8.91008 125.15 12.4001 134.94C13.9601 139.32 15.9201 143.4 17.8601 147.59C21.4801 155.4 28.8601 167.48 33.5701 174.38C40.0301 183.86 47.2001 192.93 54.4701 201.77C54.7501 202.11 54.8901 202.22 55.1801 202.6L57.2001 205.07C58.7301 206.64 59.8501 208.39 61.3501 209.97L69.6501 219.78C70.2501 220.43 70.4801 220.79 71.0401 221.41C71.6101 222.05 71.8701 222.36 72.4301 223.03L75.2001 226.3C75.6901 226.89 76.0901 227.4 76.5701 227.94C78.5301 230.14 80.1401 232.29 82.1001 234.48C85.4501 238.23 88.4001 242.51 90.7101 246.99C92.4701 250.39 93.9001 253.95 95.1401 257.64C97.1301 263.57 98.2501 271.12 98.2501 278.92M105.8 -31.11C106.07 -32.29 106.19 -33.68 106.45 -34.99C107.17 -38.59 108.38 -41.91 109.83 -45.19C110.27 -46.19 110.88 -47.07 111.48 -48.07C112.09 -49.09 112.64 -49.85 113.31 -50.77C120.64 -60.81 132.47 -65.06 145.04 -65.06C146.75 -68.29 148.08 -70.32 150.51 -72.91C152.96 -75.53 154.4 -77.06 157.56 -79.19C166.51 -85.22 178.19 -86.94 188.91 -84.77C201.06 -82.31 191.25 -82.1 207.75 -90.37C217.82 -95.41 231.95 -95.08 241.12 -88.94C253.73 -95.61 267.64 -93.36 279.77 -86.85C280.76 -86.32 281.68 -85.74 282.57 -85.13C285.71 -82.99 284.8 -82.88 288.3 -83.77C296.55 -85.86 306.42 -85.77 314.47 -83.08C318.51 -81.73 322.21 -79.68 325.3 -77.06C325.98 -76.48 326.6 -76.03 327.2 -75.44L330.47 -71.92C332.65 -69.48 334.41 -66.7 335.94 -63.81C348.7 -63.81 360.13 -59.78 368.06 -50.41C372.14 -45.59 375.68 -36.76 375.68 -30.62C377.7 -30.15 382.52 -27.13 384.33 -25.95C392.02 -20.95 400.32 -11.79 400.32 -1.2C400.32 3.69 399.75 7.72 398 11.84C397.25 13.6 398.6 14.25 399.51 15.69C407.86 28.8 412.2 44.58 401.49 57.8C400.37 59.18 398.94 60.97 397.54 61.9C399.22 69.11 399.55 70.04 399.55 77.74C399.55 87.98 393.65 96.7 385.36 101.77C383.8 102.72 382.84 103.15 381.18 103.88L376.41 105.65C376.41 114.57 372.05 123 367.55 127.46L364.67 130.11C362.25 132.15 359.29 134.12 356.33 135.35C353.43 136.56 350.59 137.56 347.49 138.33C344.48 139.07 341.15 139.75 337.89 140.05C335.21 140.3 337.21 141.45 333.74 147.72L330.86 151.38C327.88 154.23 324.76 156.36 320.67 157.79C311.19 161.11 298.73 159.87 289.39 157.69C288.4 158.35 287.68 159.27 286.81 160.14C280.8 166.17 271.01 171.27 262.22 171.27C255.46 171.27 249.91 170.55 244.03 167.58C238.74 164.92 240.94 165.03 235.42 167.35C226.18 171.23 213.3 172.36 204.48 167.14C200.73 164.92 197.22 162.28 194.82 158.7C187.27 160.46 177.36 159.96 169.9 158.47C163.4 157.17 156.93 154.53 152.01 150.2C149.32 147.83 147 145.37 145.02 142.35C143.83 140.55 144.42 140.03 141.51 140.08C132.82 140.21 122.13 136.26 116.04 130.09C109.59 123.56 105.77 116.2 104.23 106.95C103.9 104.94 103.07 105.37 101.16 104.24C97.5201 102.08 94.1501 99.65 91.1401 96.65C84.8501 90.39 80.1401 81.38 80.1401 72.2L80.4101 64.42C81.0801 58.42 81.1101 61.57 77.9601 55.26C76.9101 53.17 76.1001 51.49 75.2701 49.15C71.9301 39.75 70.1201 30.14 75.5301 21.06C77.3901 17.94 80.1601 14.81 83.4101 13.1C82.8401 10.68 81.9801 8.69 81.5701 6.13C80.0301 -3.45 81.4701 -14.05 88.6201 -21.16C90.2001 -22.73 91.5301 -24.17 93.4101 -25.43C95.3501 -26.72 96.9801 -27.63 99.1701 -28.73C100.5 -29.4 104.18 -31.13 105.79 -31.16L105.8 -31.11Z" fill="#98CCA5"/>
</svg>
