<svg width="308" height="216" viewBox="0 0 308 216" fill="none" xmlns="http://www.w3.org/2000/svg">
<path d="M172.304 105.973C189.443 88.711 211.798 81.5089 236.016 77.7364C238.375 77.3935 238.375 76.2503 238.5 74.6499C240.859 54.3012 243.343 34.0669 245.703 13.7182C245.703 13.3752 245.703 12.918 245.703 12.2321C235.022 16.8048 224.59 21.2632 214.157 25.7216C215.648 22.8637 216.393 20.0057 219.746 18.4052C231.048 12.8036 242.101 7.08773 253.279 1.37182C254.024 1.02886 254.769 0.571591 256.135 0C255.638 3.88682 255.39 7.20205 254.893 10.6316C252.782 27.4364 250.795 44.3555 248.684 61.1603C247.69 68.7053 246.821 76.2503 245.951 83.9096C245.827 85.3958 245.206 85.9674 243.467 86.196C232.787 88.2537 221.982 90.3115 211.301 92.7121C197.764 95.913 185.344 101.515 173.67 108.488C172.676 109.06 171.683 109.746 170.441 110.431C169.944 109.174 169.572 108.031 169.199 106.888C159.263 75.1071 146.223 44.4698 128.712 15.6616C127.345 13.3752 125.731 11.3175 124.365 9.14546C123.495 7.77364 122.378 5.94455 123.992 4.80137C125.607 3.65819 127.345 5.14432 128.587 6.28751C135.791 13.0323 142.87 19.7771 150.073 26.5218C161.251 36.9248 178.762 36.6962 190.436 27.3221C197.888 21.2632 204.595 14.2898 211.674 7.77364C212.667 6.8591 213.909 6.17319 215.151 5.6016C216.766 4.91569 217.759 5.48728 217.387 7.08773C217.138 8.34524 216.766 9.71706 216.02 10.7459C200.62 33.7239 189.443 58.531 179.88 83.9096C177.396 90.6544 175.036 97.3992 172.552 104.144C172.677 104.944 172.428 105.516 172.304 105.973Z" fill="#97C5D2"/>
<path d="M67.4837 62.5327C68.2288 62.8757 68.8498 63.1043 69.595 63.4473C86.7338 72.1355 102.382 82.9957 117.782 93.9702C130.078 102.658 142.125 111.575 154.171 120.606C158.27 123.693 162.12 126.894 164.728 131.581C171.186 128.723 178.017 128.609 184.972 129.066C198.385 130.095 211.053 133.639 223.224 138.783C228.564 141.069 233.78 143.699 239.245 146.328C256.135 131.467 273.274 116.377 290.661 101.172C282.589 98.543 274.764 96.028 266.94 93.513C267.313 91.1123 268.431 90.8837 270.666 91.2266C282.589 93.513 294.511 95.5707 307.179 97.7427C284.203 117.748 261.6 137.526 238.872 157.303C237.382 156.502 235.892 155.816 234.525 155.131C222.354 148.957 210.183 142.784 196.894 138.554C187.207 135.468 177.272 133.524 167.212 132.496C165.101 132.267 163.362 131.695 161.623 130.323C154.792 124.836 146.596 121.75 138.026 119.235C121.632 114.205 104.618 111.575 87.479 110.089C75.4321 108.946 63.261 108.603 51.2142 109.175C38.7947 109.86 26.4994 108.603 14.7009 105.059C12.0929 104.259 9.48478 103.23 7.12508 101.973C6.00733 101.63 5.51055 100.372 4.76538 99.4575C5.88313 99.1146 6.87669 98.543 7.99444 98.543C15.6945 98.4287 23.3946 98.6573 30.9704 98.543C42.6447 98.3143 53.2013 94.4275 62.5159 88.14C66.6143 85.3964 69.8434 81.7382 71.0853 76.9368C72.203 72.1355 70.4643 67.9057 67.8562 63.9045C67.6078 63.5616 67.3595 63.2186 67.2353 62.99C67.3595 62.7613 67.3595 62.647 67.4837 62.5327Z" fill="#33435E"/>
<path d="M274.516 55.6736C266.816 55.6736 259.489 55.6736 252.037 55.6736C251.788 52.4727 251.788 52.3584 254.893 52.0155C265.574 50.6436 276.255 49.2718 286.811 47.9C287.308 47.7857 287.805 47.9 288.674 47.7857C288.302 48.4716 288.178 49.0432 287.805 49.6148C274.144 74.0789 260.358 98.4287 246.697 122.893C245.827 124.493 244.834 124.493 243.343 124.15C227.695 121.635 212.046 119.006 196.025 119.349C186.338 119.578 176.899 120.949 167.46 122.893C166.964 123.007 166.467 123.121 165.846 123.121C164.852 120.949 163.983 118.892 162.989 116.834C159.139 109.746 153.799 103.687 147.713 98.0857C128.091 79.9091 105.86 64.9334 80.8967 53.5016C68.3531 47.7857 56.803 40.698 47.6126 30.7523C46.2464 29.3804 45.1287 27.78 44.1351 26.1795C43.7625 25.4936 44.0109 24.3504 44.0109 23.4359C44.8803 23.5502 45.998 23.4359 46.7432 23.7788C52.0836 26.5225 57.4239 29.2661 62.6401 32.1241C71.0853 36.6968 80.0274 39.2118 89.8387 39.6691C94.9307 39.8977 99.8985 39.7834 104.866 38.2973C114.305 35.5536 118.776 29.4948 118.155 20.3493C118.155 20.0063 118.155 19.5491 118.031 19.0918C127.221 27.3227 164.48 105.402 167.088 121.521C168.578 120.492 169.944 119.578 171.435 118.663C177.272 115.348 183.854 113.633 190.561 112.604C207.203 109.861 223.845 110.432 240.363 113.747C241.605 113.976 242.35 113.862 243.095 112.718C253.403 94.0846 263.835 75.4507 274.144 56.9311C274.144 56.5882 274.268 56.2452 274.516 55.6736Z" fill="#2375A9"/>
<path d="M63.3854 78.0803C63.3854 83.9105 58.2934 88.4832 51.8353 88.4832C45.6256 88.3689 40.782 83.6819 40.782 77.7373C40.782 72.1357 45.874 67.6773 52.2079 67.563C58.4176 67.563 63.3854 72.25 63.3854 78.0803Z" fill="#33435E"/>
<path d="M97.0422 36.1249C90.5841 36.1249 85.4921 31.6665 85.4921 26.0649C85.4921 19.7774 90.3357 15.2047 96.918 15.319C103.376 15.4333 108.22 19.8917 108.22 26.0649C108.22 31.6665 103.252 36.1249 97.0422 36.1249Z" fill="#2375A9"/>
<path d="M170.441 10.1738C176.899 10.1738 181.743 14.6322 181.743 20.4625C181.743 26.2927 176.775 30.8654 170.441 30.8654C164.48 30.8654 159.263 26.0641 159.263 20.6911C159.388 14.7466 164.231 10.1738 170.441 10.1738Z" fill="#97C5D2"/>
<path d="M293.246 185.359C293.246 194.907 293.246 204.456 293.246 214.095C291.665 214.095 290.084 214.095 288.405 214.095C288.405 202.364 288.405 190.724 288.405 178.903C291.27 178.903 293.937 178.812 296.605 178.994C297 178.994 297.593 179.903 297.691 180.449C299.272 189.542 300.754 198.636 302.137 207.002C302.137 198.181 302.137 188.633 302.137 178.994C303.817 178.994 305.299 178.994 306.978 178.994C306.978 190.633 306.978 202.182 306.978 214.186C304.311 214.186 301.643 214.277 298.976 214.095C298.581 214.095 297.988 213.367 297.889 212.822C296.605 205.092 295.32 197.363 294.036 189.724C293.839 188.178 293.641 186.723 293.443 185.177C293.443 185.359 293.345 185.359 293.246 185.359Z" fill="#2375A9"/>
<path d="M192.576 179.084C194.75 179.084 196.528 179.084 198.504 179.084C198.504 179.811 198.603 180.448 198.603 181.176C198.603 190.178 198.603 199.181 198.603 208.184C198.603 211.821 197.516 213.549 194.651 214.549C191.095 215.822 186.155 215.186 184.179 213.003C183.389 212.094 182.697 210.912 182.697 209.82C182.598 199.636 182.598 189.542 182.598 179.175C184.673 179.175 186.55 179.175 188.724 179.175C188.724 179.993 188.724 180.721 188.724 181.448C188.724 190.087 188.724 198.726 188.724 207.365C188.724 208.093 188.526 208.82 188.822 209.457C189.119 210.002 189.909 210.73 190.502 210.73C191.095 210.73 191.885 210.093 192.28 209.548C192.576 209.002 192.478 208.184 192.478 207.456C192.478 198.817 192.478 190.178 192.478 181.539C192.576 180.721 192.576 179.993 192.576 179.084Z" fill="#2375A9"/>
<path d="M35.6945 179.084C35.6945 183.54 35.6945 187.814 35.6945 192.179C35.6945 197.635 35.6945 203.091 35.6945 208.456C35.6945 212.276 33.9162 214.367 29.767 214.822C27.8899 215.004 25.8153 214.822 23.9382 214.367C21.5672 213.822 19.8877 212.185 19.8877 209.82C19.7889 199.545 19.7889 189.36 19.7889 178.993C21.7648 178.993 23.6418 178.993 25.9141 178.993C25.9141 179.812 25.9141 180.63 25.9141 181.448C25.9141 189.996 25.9141 198.453 25.9141 207.001C25.9141 207.729 25.7165 208.456 26.0128 209.093C26.3092 209.73 27.1984 210.73 27.5935 210.639C28.3839 210.457 29.0754 209.73 29.4706 209.093C29.7669 208.547 29.5694 207.729 29.5694 207.001C29.5694 198.453 29.5694 189.996 29.5694 181.448C29.5694 180.721 29.5694 179.903 29.5694 178.993C31.644 179.084 33.5211 179.084 35.6945 179.084Z" fill="#2375A9"/>
<path d="M217.769 191.814C215.694 191.814 213.916 191.814 211.742 191.814C211.742 189.541 211.742 187.268 211.742 184.994C211.742 183.721 211.643 182.448 209.865 182.448C207.988 182.448 208.087 183.812 208.087 184.994C208.087 192.724 208.087 200.453 208.087 208.183C208.087 209.456 208.186 210.729 209.964 210.638C211.643 210.547 211.742 209.365 211.742 208.183C211.742 205.819 211.742 203.454 211.742 200.908C213.817 200.908 215.694 200.908 217.67 200.908C217.67 204.091 217.67 207.092 217.67 210.183C217.67 210.456 217.571 210.729 217.472 211.002C216.484 213.73 213.224 215.094 208.68 214.821C204.926 214.548 202.554 213.003 201.962 210.183C201.764 209.456 201.764 208.638 201.764 207.91C201.764 200.271 201.764 192.724 201.764 185.085C201.764 182.266 202.456 179.811 205.716 178.72C209.272 177.447 214.212 177.992 216.188 180.084C216.978 180.902 217.571 181.993 217.67 182.994C217.867 185.995 217.769 188.814 217.769 191.814Z" fill="#2375A9"/>
<path d="M256.199 191.815C254.125 191.815 252.248 191.815 249.975 191.815C249.975 189.541 249.975 187.268 249.975 184.995C249.975 183.721 249.975 182.448 248.098 182.539C246.419 182.63 246.32 183.812 246.32 184.995C246.32 192.815 246.32 200.636 246.32 208.456C246.32 209.638 246.419 210.82 248.098 210.911C249.975 211.002 249.975 209.729 249.975 208.456C249.975 206.092 249.975 203.727 249.975 201.181C252.05 201.181 254.026 201.181 256.002 201.181C256.002 204.364 256.002 207.365 256.002 210.366C256.002 210.729 255.903 211.093 255.705 211.366C254.619 214.094 250.864 215.549 246.419 215.003C242.566 214.549 240.294 212.639 240.294 209.456C240.195 200.999 240.195 192.451 240.294 183.903C240.294 181.084 241.973 179.266 244.937 178.72C246.913 178.356 248.987 178.356 250.963 178.629C254.421 179.175 256.1 181.084 256.199 184.267C256.298 186.722 256.199 189.178 256.199 191.815Z" fill="#2375A9"/>
<path d="M7.04439 136.162C7.04439 139.345 7.04439 142.164 7.04439 145.256C9.4154 145.256 11.5888 145.256 13.9599 145.256C13.9599 146.893 13.9599 148.257 13.9599 149.894C11.7864 149.894 9.5142 149.894 7.14319 149.894C7.14319 154.168 7.14319 158.169 7.14319 162.352C9.5142 162.352 11.7864 162.352 14.355 162.352C14.355 163.989 14.355 165.353 14.355 166.899C9.90936 166.899 5.4637 166.899 0.91925 166.899C0.91925 155.168 0.91925 143.528 0.91925 131.797C5.36491 131.797 9.71177 131.797 14.2562 131.797C14.2562 133.252 14.2562 134.616 14.2562 136.162C11.8852 136.162 9.61299 136.162 7.04439 136.162Z" fill="#2375A9"/>
<path d="M160.963 192.634C160.963 194.361 160.963 195.725 160.963 197.271C158.592 197.271 156.419 197.271 154.048 197.271C154.048 201.454 154.048 205.365 154.048 209.548C156.419 209.548 158.691 209.548 161.26 209.548C161.26 211.185 161.26 212.549 161.26 214.094C156.814 214.094 152.467 214.094 147.922 214.094C147.922 202.364 147.922 190.815 147.922 178.993C152.368 178.993 156.715 178.993 161.26 178.993C161.26 180.448 161.26 181.812 161.26 183.449C158.888 183.449 156.616 183.449 154.146 183.449C154.146 186.541 154.146 189.451 154.146 192.543C156.32 192.634 158.493 192.634 160.963 192.634Z" fill="#2375A9"/>
<path d="M39.3497 179.084C43.7954 179.084 48.1423 179.084 52.5879 179.084C52.5879 180.539 52.5879 181.994 52.5879 183.54C50.2169 183.54 47.8459 183.54 45.4749 183.54C45.4749 186.632 45.4749 189.542 45.4749 192.633C47.7471 192.633 50.0193 192.633 52.3903 192.633C52.3903 194.27 52.3903 195.725 52.3903 197.271C50.1181 197.271 47.8459 197.271 45.4749 197.271C45.4749 201.454 45.4749 205.365 45.4749 209.548C47.8459 209.548 50.2169 209.548 52.7855 209.548C52.7855 211.184 52.7855 212.548 52.7855 214.185C48.3398 214.185 43.993 214.185 39.4485 214.185C39.3497 202.455 39.3497 190.906 39.3497 179.084Z" fill="#2375A9"/>
<path d="M129.745 214.185C127.769 214.185 125.892 214.185 123.521 214.185C125.694 201.909 120.557 190.815 117.593 179.175C119.668 179.175 121.644 179.175 123.916 179.175C125.003 183.449 125.991 187.814 127.077 192.179C128.164 187.814 129.251 183.449 130.338 179.084C132.313 179.084 134.092 179.084 136.166 179.084C134.487 184.995 133.104 190.815 131.128 196.544C129.053 202.364 130.338 208.274 129.745 214.185Z" fill="#2375A9"/>
<path d="M56.0456 166.899C53.7734 166.899 51.8963 166.899 49.8217 166.899C49.8217 156.714 49.8217 146.711 49.8217 136.435C48.0434 136.435 46.364 136.435 44.5857 136.435C44.5857 134.798 44.5857 133.343 44.5857 131.797C50.0193 131.797 55.4528 131.797 60.9852 131.797C60.9852 133.252 60.9852 134.616 60.9852 136.253C59.4045 136.253 57.8238 136.253 56.0456 136.253C56.0456 146.529 56.0456 156.532 56.0456 166.899Z" fill="#2375A9"/>
<path d="M130.93 131.707C132.906 131.707 134.783 131.707 136.858 131.707C136.858 141.891 136.858 151.985 136.858 162.261C139.525 162.261 141.995 162.261 144.564 162.261C144.564 163.898 144.564 165.262 144.564 166.717C140.019 166.717 135.475 166.717 130.93 166.717C130.93 155.168 130.93 143.528 130.93 131.707Z" fill="#2375A9"/>
<path d="M80.3483 209.729C83.1145 209.729 85.5843 209.729 88.0541 209.729C88.0541 211.275 88.0541 212.639 88.0541 214.185C83.6084 214.185 79.1628 214.185 74.5195 214.185C74.5195 202.545 74.5195 190.905 74.5195 179.174C76.3966 179.174 78.1748 179.174 80.3483 179.174C80.3483 189.177 80.3483 199.271 80.3483 209.729Z" fill="#2375A9"/>
<path d="M259.656 179.084C261.632 179.084 263.509 179.084 265.485 179.084C265.485 190.815 265.485 202.364 265.485 214.094C263.509 214.094 261.632 214.094 259.656 214.094C259.656 202.455 259.656 190.906 259.656 179.084Z" fill="#2375A9"/>
<path d="M108.01 131.707C108.01 143.437 108.01 154.986 108.01 166.717C106.133 166.717 104.256 166.717 102.182 166.717C102.182 155.077 102.182 143.437 102.182 131.707C104.059 131.707 105.936 131.707 108.01 131.707Z" fill="#2375A9"/>
<path d="M41.9186 166.808C39.9427 166.808 38.0657 166.808 36.0898 166.808C36.0898 155.077 36.0898 143.528 36.0898 131.707C37.9669 131.707 39.9427 131.707 41.9186 131.707C41.9186 143.437 41.9186 154.986 41.9186 166.808Z" fill="#2375A9"/>
<path d="M273.29 176.629C274.969 174.082 276.352 171.536 278.13 169.172C278.526 168.626 279.909 168.444 280.897 168.353C281.786 168.262 282.675 168.353 284.256 168.353C282.774 169.99 281.687 171.172 280.6 172.446C279.711 173.446 278.723 174.264 277.933 175.265C276.747 176.72 275.364 177.265 273.29 176.629Z" fill="#2375A9"/>
<path d="M65.8264 195.725C68.395 194.816 70.6673 193.997 70.7661 191.269C70.8649 188.905 70.8649 186.541 70.7661 184.176C70.5685 181.357 68.4938 179.266 65.4313 179.084C62.0723 178.902 58.6146 178.993 55.1569 178.993C55.1569 190.724 55.1569 202.454 55.1569 214.094C55.6508 214.185 56.046 214.276 56.4412 214.185C59.1086 214.185 61.776 214.276 64.3446 214.094C67.9011 213.912 70.2721 211.912 70.7661 208.638C71.0624 206.728 70.9636 204.728 70.9636 202.818C71.0624 199.545 70.8649 196.362 65.8264 195.725ZM61.282 183.085C64.147 182.994 64.5421 183.358 64.6409 185.722C64.7397 187.45 64.7397 189.178 64.6409 190.906C64.5421 193.179 64.0482 193.543 61.282 193.543C61.282 190.087 61.282 186.632 61.282 183.085ZM64.7397 207.092C64.7397 209.638 64.147 210.093 61.1832 209.911C61.1832 205.91 61.1832 201.909 61.1832 197.908C64.147 197.817 64.6409 198.271 64.7397 200.818C64.8385 202.909 64.8385 205.001 64.7397 207.092Z" fill="#2375A9"/>
<path d="M98.5261 154.804C98.5261 151.621 98.1309 148.893 93.7841 148.075C96.3527 147.347 98.3285 146.347 98.4273 143.801C98.5261 141.254 98.5261 138.799 98.4273 136.253C98.3285 134.07 96.9454 132.343 94.6732 132.07C90.7215 131.615 86.7698 131.615 82.8181 131.342C82.8181 143.437 82.8181 155.077 82.8181 166.716C84.8928 166.716 86.7698 166.716 88.8445 166.716C88.8445 161.26 88.8445 155.895 88.8445 150.621C91.8082 150.621 92.4998 151.257 92.4998 153.622C92.5986 157.532 92.6974 161.442 92.9937 165.352C92.9937 165.898 93.7841 166.716 94.278 166.807C95.8587 166.989 97.5382 166.898 99.1189 166.898C98.9213 162.715 98.6249 158.714 98.5261 154.804ZM92.4998 143.164C92.4998 145.71 92.0058 146.165 88.9433 146.165C88.9433 142.709 88.9433 139.436 88.9433 136.162C91.907 135.525 92.4998 135.98 92.4998 138.617C92.5986 140.163 92.5986 141.709 92.4998 143.164Z" fill="#2375A9"/>
<path d="M79.4595 136.981C79.4595 133.707 77.8788 131.888 74.4211 131.252C72.3464 130.888 70.173 130.979 68.1972 131.343C65.2334 131.888 63.6527 133.798 63.6527 136.617C63.5539 145.074 63.5539 153.44 63.6527 161.897C63.6527 164.807 65.3322 166.626 68.3948 167.262C70.2718 167.626 72.3465 167.626 74.2235 167.353C77.9776 166.808 79.5583 164.898 79.5583 161.442C79.5583 157.441 79.5583 153.349 79.5583 149.348C79.4595 145.165 79.4595 141.073 79.4595 136.981ZM73.4332 160.988C73.4332 162.261 73.2356 163.534 71.4573 163.443C69.7778 163.352 69.7779 162.17 69.7779 160.988C69.7779 157.077 69.7779 153.167 69.7779 149.257C69.7779 145.347 69.7779 141.436 69.7779 137.526C69.7779 136.344 69.7778 135.162 71.4573 135.071C73.2356 134.98 73.4332 136.253 73.4332 137.526C73.4332 145.438 73.4332 153.167 73.4332 160.988Z" fill="#2375A9"/>
<path d="M106.133 184.085C106.133 181.084 104.454 179.175 101.293 178.629C99.4155 178.265 97.3408 178.265 95.4638 178.538C91.9073 179.084 90.2278 180.993 90.2278 184.358C90.2278 188.359 90.2278 192.451 90.2278 196.453C90.2278 200.727 90.2278 204.91 90.2278 209.184C90.2278 212.003 91.7097 213.912 94.6734 214.458C96.8469 214.822 99.2179 214.822 101.391 214.458C104.454 213.912 106.133 212.003 106.133 209.093C106.133 200.818 106.133 192.451 106.133 184.085ZM99.9094 208.365C99.9094 209.547 99.9094 210.73 98.1311 210.73C96.3529 210.73 96.1553 209.456 96.1553 208.274C96.1553 204.364 96.1553 200.454 96.1553 196.544C96.1553 193.634 96.0565 190.724 96.1553 187.814C96.1553 186.813 96.1553 185.904 96.2541 184.904C96.2541 184.085 97.0444 182.812 97.8348 182.63C99.5142 182.176 99.9094 183.449 99.9094 184.813C99.9094 189.087 99.9094 193.452 99.9094 197.726C99.9094 201.272 99.9094 204.819 99.9094 208.365Z" fill="#2375A9"/>
<path d="M284.948 184.085C284.948 181.357 283.367 179.357 280.502 178.72C278.625 178.356 276.55 178.266 274.673 178.447C270.721 178.993 269.042 180.903 269.042 184.631C269.042 188.632 269.042 192.542 269.042 196.544C269.042 200.727 269.042 204.91 269.042 209.093C269.042 212.094 270.623 214.003 273.784 214.549C275.859 214.913 278.131 214.913 280.206 214.549C283.268 214.003 284.849 212.003 284.849 209.184C285.046 200.818 285.046 192.452 284.948 184.085ZM277.044 210.73C274.871 210.73 275.068 209.093 275.068 207.82C275.068 200.272 275.068 192.815 275.068 185.268C275.068 183.994 274.871 182.54 276.847 182.449C278.921 182.358 278.724 183.904 278.724 185.177C278.724 188.996 278.724 192.815 278.724 196.635C278.724 200.363 278.724 204.182 278.724 207.911C278.822 209.184 279.119 210.73 277.044 210.73Z" fill="#2375A9"/>
<path d="M32.4342 137.344C32.4342 134.798 31.1499 132.525 28.1861 132.07C24.432 131.615 20.5791 131.615 16.7262 131.434C16.7262 143.528 16.7262 155.077 16.7262 166.808C20.2827 166.808 23.5429 166.99 26.9018 166.717C29.9644 166.535 32.533 164.171 32.533 161.352C32.533 153.44 32.533 145.347 32.4342 137.344ZM26.5066 160.078C26.5066 162.443 25.9139 162.807 22.9501 162.534C22.9501 153.622 22.9501 144.892 22.9501 136.162C25.8151 135.617 26.5066 136.071 26.5066 138.527C26.5066 145.711 26.5066 152.895 26.5066 160.078Z" fill="#2375A9"/>
<path d="M179.339 184.722C179.24 182.176 178.054 179.902 175.09 179.448C171.336 178.993 167.484 178.993 163.631 178.811C163.631 190.815 163.631 202.454 163.631 214.276C166.298 214.276 168.669 214.276 171.04 214.276C171.929 214.276 172.818 214.276 173.806 214.185C176.869 213.821 179.437 211.639 179.437 208.729C179.536 200.727 179.536 192.724 179.339 184.722ZM173.411 207.456C173.411 209.82 172.818 210.184 169.855 209.911C169.855 201.09 169.855 192.361 169.855 183.358C172.818 183.176 173.411 183.54 173.411 185.904C173.411 193.088 173.411 200.272 173.411 207.456Z" fill="#2375A9"/>
<path d="M124.114 131.707C120.952 131.707 118.087 131.707 114.926 131.707C113.345 143.528 111.863 155.077 110.283 166.808C112.258 166.808 113.938 166.808 115.815 166.808C116.309 163.716 116.704 160.624 117.198 157.532C121.446 156.987 121.446 156.987 121.841 160.533C122.039 162.625 122.434 164.625 122.632 166.717C124.706 166.717 126.682 166.717 128.757 166.717C127.176 154.986 125.595 143.437 124.114 131.707ZM117.692 152.622C118.186 147.984 118.581 143.528 119.075 138.981C119.273 138.981 119.371 138.981 119.569 138.981C119.964 143.437 120.359 147.984 120.755 152.622C119.569 152.622 118.779 152.622 117.692 152.622Z" fill="#2375A9"/>
<path d="M233.674 179.084C230.513 179.084 227.549 179.084 224.486 179.084C222.906 190.815 221.424 202.455 219.843 214.185C221.819 214.185 223.597 214.185 225.376 214.185C225.573 212.548 225.771 211.093 226.067 209.548C226.265 208.002 226.561 206.456 226.857 204.819C228.24 204.819 229.426 204.819 231.105 204.819C231.402 207.456 231.599 210.093 232.093 212.548C232.192 213.185 232.884 214.094 233.476 214.185C234.958 214.458 236.638 214.276 238.515 214.276C236.737 202.364 235.156 190.724 233.674 179.084ZM227.253 199.908C227.747 195.271 228.142 190.724 228.636 186.177C228.833 186.177 228.932 186.177 229.13 186.177C229.525 190.724 229.92 195.18 230.414 199.908C229.228 199.908 228.339 199.908 227.253 199.908Z" fill="#2375A9"/>
<path d="M16.5288 184.903C16.43 181.812 14.7505 179.902 11.3916 179.356C7.93387 178.902 4.37733 178.902 0.820801 178.72C0.820801 190.814 0.820801 202.454 0.820801 214.003C2.89544 214.003 4.67371 214.003 6.74835 214.003C6.74835 209.547 6.74835 205.273 6.74835 200.635C7.93386 200.635 8.72421 200.635 9.51455 200.635C13.8614 200.544 16.3312 198.362 16.5288 194.452C16.6276 191.36 16.6276 188.177 16.5288 184.903ZM10.4037 194.634C10.3049 196.725 8.52661 196.543 6.74835 196.452C6.74835 192.087 6.74835 187.813 6.74835 183.539C9.31695 183.085 10.1073 183.539 10.3049 185.722C10.5025 188.632 10.6013 191.633 10.4037 194.634Z" fill="#2375A9"/>
</svg>
