<svg width="179" height="97" viewBox="0 0 179 97" fill="none" xmlns="http://www.w3.org/2000/svg">
<g clip-path="url(#clip0_38_26)">
<path d="M58.0933 3.34521H40.5671C46.1603 6.37702 50.7667 11.0059 53.7838 16.6264H58.0933V60.7434H72.3274V16.6264H83.8937C85.4175 16.6264 86.6531 15.3847 86.6531 13.8534V3.34521H58.0933Z" fill="#1B478E"/>
<path d="M24.7437 3.34521H0V16.6264H3.92529V47.4578H0V60.739H24.7437C40.5147 60.739 53.3036 47.8922 53.3036 32.0399C53.3036 16.1876 40.5191 3.34521 24.7437 3.34521ZM23.7264 47.4622H18.1594V16.6264H23.7264C32.2013 16.6264 39.0695 23.528 39.0695 32.0443C39.0695 40.5606 32.2013 47.4622 23.7264 47.4622Z" fill="#1B478E"/>
<path d="M8.30465 65.4951C9.11241 65.4951 9.83722 65.5829 10.4878 65.7584C11.134 65.9339 11.6842 66.184 12.1339 66.513C12.5836 66.8421 12.9285 67.2458 13.1731 67.7196C13.4176 68.1935 13.5398 68.7288 13.5398 69.3211C13.5398 70.2863 13.3521 71.1068 12.9809 71.7737C12.6098 72.445 12.0989 72.9847 11.444 73.3971C10.7891 73.8096 10.0206 74.1035 9.13424 74.2834C8.25226 74.4677 7.29167 74.5555 6.2525 74.5555H5.5015L4.42739 79.0395H1.44086L4.57585 65.8461C5.27009 65.7189 5.92503 65.6267 6.54504 65.5785C7.16505 65.5258 7.7545 65.4995 8.30465 65.4995V65.4951ZM8.05577 68.0267C7.83746 68.0267 7.65408 68.0311 7.50126 68.0443C7.34407 68.0575 7.19125 68.0662 7.03843 68.0838L6.11714 72.0238H6.86814C7.4052 72.0238 7.89859 71.9843 8.33958 71.901C8.78058 71.8176 9.16044 71.6772 9.47482 71.4842C9.78919 71.2911 10.0337 71.0454 10.204 70.7427C10.3786 70.4399 10.466 70.0714 10.466 69.6326C10.466 69.0534 10.2564 68.641 9.84158 68.3997C9.42679 68.154 8.83297 68.0311 8.06451 68.0311L8.05577 68.0267Z" fill="#1B478E"/>
<path d="M22.5868 65.4951C23.4469 65.4951 24.1936 65.6004 24.8354 65.8066C25.4729 66.0129 26.0056 66.2893 26.4291 66.6403C26.8526 66.9913 27.167 67.3949 27.3722 67.8644C27.5774 68.3339 27.6822 68.8297 27.6822 69.343C27.6822 69.7686 27.6342 70.1854 27.5381 70.5979C27.4421 71.0103 27.263 71.4052 27.0011 71.7737C26.7391 72.1467 26.3854 72.4933 25.9444 72.8092C25.4991 73.1251 24.9358 73.3927 24.2416 73.6121C24.5996 74.2834 24.9707 75.0951 25.3462 76.0472C25.7217 77.0037 26.0798 77.9997 26.4116 79.0439H23.2024C22.9055 78.1533 22.6086 77.2757 22.3073 76.407C22.006 75.5383 21.6698 74.788 21.2987 74.1562H19.8011L18.6309 79.0439H15.6487L18.7837 65.8505C19.478 65.7233 20.1504 65.6311 20.801 65.5829C21.4559 65.5302 22.0497 65.5039 22.5868 65.5039V65.4951ZM22.4907 68.0487C22.2724 68.0487 22.0497 68.0531 21.8183 68.0662C21.5869 68.0794 21.3948 68.0882 21.2419 68.1057L20.3774 71.7737H21.3948C22.006 71.7737 22.53 71.7167 22.9492 71.6026C23.3727 71.4842 23.7133 71.3306 23.9665 71.1375C24.2197 70.9445 24.4075 70.7207 24.5167 70.475C24.6258 70.2249 24.6782 69.9704 24.6782 69.7116C24.6782 69.4922 24.6476 69.286 24.5821 69.0842C24.5167 68.8823 24.4031 68.7068 24.2372 68.5533C24.0713 68.3997 23.8442 68.2768 23.5648 68.1847C23.2854 68.0926 22.923 68.0487 22.4907 68.0487Z" fill="#1B478E"/>
<path d="M36.2925 79.3074C35.5109 79.3074 34.7949 79.1758 34.1399 78.9213C33.485 78.6624 32.9217 78.2939 32.4458 77.8069C31.9699 77.3242 31.6031 76.7363 31.3411 76.0387C31.0792 75.3411 30.9482 74.5601 30.9482 73.6826C30.9482 72.6778 31.1185 71.6818 31.4678 70.6858C31.8127 69.6943 32.3105 68.8036 32.961 68.0138C33.6072 67.2197 34.3975 66.5791 35.3319 66.0789C36.2663 65.5787 37.323 65.3374 38.5018 65.3374C39.2834 65.3374 40.0039 65.469 40.6588 65.7235C41.3137 65.978 41.877 66.3509 42.3485 66.8336C42.8245 67.3162 43.1912 67.9041 43.4576 68.6017C43.7196 69.2994 43.8505 70.0848 43.8505 70.9579C43.8505 71.9626 43.6803 72.963 43.3397 73.9634C42.9991 74.9593 42.5057 75.8544 41.8595 76.6486C41.2133 77.4383 40.4186 78.0833 39.4843 78.5703C38.5499 79.0573 37.4889 79.303 36.2925 79.303V79.3074ZM38.1962 67.9305C37.6068 67.9305 37.0566 68.0884 36.5501 68.3955C36.0436 68.7027 35.5983 69.1151 35.2228 69.6284C34.8473 70.1418 34.5504 70.7385 34.3408 71.4054C34.1268 72.0723 34.022 72.7656 34.022 73.472C34.022 74.4372 34.2229 75.2182 34.6246 75.8193C35.0307 76.4204 35.6856 76.7144 36.5938 76.7144C37.1832 76.7144 37.7334 76.5608 38.2399 76.2537C38.7464 75.9465 39.1874 75.5297 39.5672 75.0208C39.9427 74.503 40.2396 73.9151 40.4492 73.2526C40.6632 72.5901 40.768 71.8968 40.768 71.1773C40.768 70.212 40.5671 69.431 40.161 68.8299C39.7593 68.2288 39.1 67.9305 38.1918 67.9305H38.1962Z" fill="#1B478E"/>
<path d="M59.5517 70.8655C59.5517 72.1642 59.3378 73.3313 58.9186 74.3624C58.4951 75.3891 57.8881 76.2622 57.1022 76.9774C56.3119 77.6926 55.3557 78.2454 54.2248 78.6315C53.0983 79.0176 51.8234 79.2107 50.4 79.2107C49.8629 79.2107 49.2385 79.18 48.5356 79.1141C47.8326 79.0483 47.1515 78.9474 46.4965 78.8026L49.5922 65.8812C50.3214 65.7408 51.0244 65.6399 51.6968 65.5829C52.3692 65.5214 52.9761 65.4951 53.5131 65.4951C54.465 65.4951 55.312 65.6267 56.063 65.8812C56.814 66.1401 57.4472 66.5087 57.9667 66.9825C58.4863 67.4564 58.8793 68.0267 59.15 68.6805C59.4207 69.3386 59.5561 70.067 59.5561 70.8655H59.5517ZM49.9983 76.622C50.138 76.6352 50.2865 76.6439 50.4305 76.6527C50.579 76.6615 50.7798 76.6615 51.0375 76.6615C51.8714 76.6615 52.6224 76.5342 53.2992 76.2754C53.9716 76.0209 54.5392 75.648 55.0108 75.1653C55.478 74.6827 55.8404 74.0904 56.098 73.3884C56.3512 72.6863 56.4822 71.8966 56.4822 71.0235C56.4822 70.5715 56.4254 70.1635 56.3076 69.7993C56.194 69.4308 56.0063 69.1149 55.7399 68.8516C55.4736 68.5884 55.1374 68.3821 54.7226 68.2417C54.3034 68.1013 53.8013 68.0311 53.2119 68.0311C52.8276 68.0311 52.4347 68.0487 52.0417 68.0882L50.0026 76.6264L49.9983 76.622Z" fill="#1B478E"/>
<path d="M73.6242 74.1696C73.1876 75.986 72.4802 77.2979 71.5022 78.1009C70.5198 78.9082 69.223 79.3074 67.6118 79.3074C66.7779 79.3074 66.0749 79.2065 65.5073 79.0091C64.9353 78.8116 64.4725 78.5308 64.1144 78.1798C63.752 77.8244 63.4944 77.3988 63.3329 76.903C63.1713 76.4072 63.0927 75.8676 63.0927 75.2884C63.0927 74.6215 63.1888 73.9063 63.3809 73.1429L65.1711 65.6489H68.1663L66.2845 73.5685C66.1535 74.0336 66.0923 74.503 66.0923 74.9769C66.0923 75.2358 66.1229 75.4683 66.1797 75.6745C66.2408 75.8807 66.3412 76.065 66.4897 76.2186C66.6381 76.3721 66.8346 76.4906 67.0879 76.574C67.3411 76.6573 67.6467 76.6968 68.0222 76.6968C68.7907 76.6968 69.3714 76.4555 69.7731 75.9729C70.1705 75.4902 70.4761 74.8058 70.6944 73.9151L72.6549 65.6489H75.6545L73.6373 74.1652L73.6242 74.1696Z" fill="#1B478E"/>
<path d="M87.6355 78.4562C87.1116 78.7151 86.5265 78.9213 85.8847 79.0749C85.2428 79.2328 84.4613 79.3074 83.54 79.3074C82.7453 79.3074 82.0161 79.1758 81.3568 78.9125C80.6975 78.6493 80.1343 78.272 79.6627 77.7805C79.1955 77.2935 78.8331 76.6968 78.5755 75.9948C78.3179 75.2928 78.1913 74.5074 78.1913 73.6299C78.1913 72.6252 78.3659 71.6292 78.7196 70.6332C79.0733 69.6416 79.5885 68.7553 80.2784 67.9743C80.9639 67.1977 81.8022 66.5615 82.7977 66.0745C83.7932 65.5875 84.9328 65.3418 86.2296 65.3418C86.8453 65.3418 87.4478 65.412 88.046 65.5524C88.6442 65.6972 89.2685 65.9473 89.9191 66.3071L88.845 68.6413C88.308 68.3604 87.8277 68.1674 87.4041 68.0621C86.9806 67.9568 86.5265 67.9041 86.0375 67.9041C85.3083 67.9041 84.649 68.0533 84.0683 68.3473C83.4832 68.6456 82.9855 69.0493 82.5663 69.5539C82.1515 70.0628 81.8328 70.6508 81.6144 71.3221C81.3961 71.989 81.287 72.6997 81.287 73.4456C81.287 74.582 81.5315 75.4025 82.0249 75.9202C82.5183 76.438 83.2256 76.6924 84.1469 76.6924C84.7625 76.6924 85.3301 76.631 85.8497 76.4994C86.3693 76.3678 86.854 76.201 87.2993 75.9948L87.6268 78.4475L87.6355 78.4562Z" fill="#1B478E"/>
<path d="M101.437 78.4562C100.913 78.7151 100.328 78.9213 99.6865 79.0749C99.0447 79.2328 98.2631 79.3074 97.3419 79.3074C96.5472 79.3074 95.818 79.1758 95.1587 78.9125C94.4994 78.6493 93.9362 78.272 93.4646 77.7805C92.9974 77.2935 92.635 76.6968 92.3774 75.9948C92.1198 75.2928 91.9932 74.5074 91.9932 73.6299C91.9932 72.6252 92.1678 71.6292 92.5215 70.6332C92.8751 69.6416 93.3904 68.7553 94.0802 67.9743C94.7658 67.1977 95.6041 66.5615 96.5996 66.0745C97.5951 65.5875 98.7347 65.3418 100.031 65.3418C100.647 65.3418 101.25 65.412 101.848 65.5524C102.446 65.6972 103.07 65.9473 103.721 66.3071L102.647 68.6413C102.11 68.3604 101.63 68.1674 101.206 68.0621C100.782 67.9568 100.328 67.9041 99.8394 67.9041C99.1102 67.9041 98.4509 68.0533 97.8702 68.3473C97.2851 68.6456 96.7873 69.0493 96.3682 69.5539C95.9534 70.0628 95.6346 70.6508 95.4163 71.3221C95.198 71.989 95.0889 72.6997 95.0889 73.4456C95.0889 74.582 95.3334 75.4025 95.8268 75.9202C96.3201 76.438 97.0275 76.6924 97.9488 76.6924C98.5644 76.6924 99.132 76.631 99.6516 76.4994C100.171 76.3678 100.656 76.201 101.101 75.9948L101.429 78.4475L101.437 78.4562Z" fill="#1B478E"/>
<path d="M108.454 65.6489H111.454L108.244 79.0354H105.262L108.454 65.6489Z" fill="#1B478E"/>
<path d="M119.448 79.3074C118.667 79.3074 117.951 79.1758 117.296 78.9213C116.641 78.6624 116.078 78.2939 115.602 77.8069C115.126 77.3242 114.759 76.7363 114.497 76.0387C114.235 75.3411 114.104 74.5601 114.104 73.6826C114.104 72.6778 114.274 71.6818 114.624 70.6858C114.969 69.6943 115.466 68.8036 116.117 68.0138C116.763 67.2197 117.553 66.5791 118.488 66.0789C119.422 65.5787 120.479 65.3374 121.658 65.3374C122.439 65.3374 123.16 65.469 123.815 65.7235C124.47 65.978 125.033 66.3509 125.504 66.8336C125.98 67.3162 126.347 67.9041 126.613 68.6017C126.88 69.2994 127.006 70.0848 127.006 70.9579C127.006 71.9626 126.836 72.963 126.496 73.9634C126.155 74.9593 125.662 75.8544 125.015 76.6486C124.369 77.4427 123.574 78.0833 122.64 78.5703C121.706 79.0573 120.645 79.303 119.448 79.303V79.3074ZM121.352 67.9305C120.763 67.9305 120.212 68.0884 119.706 68.3955C119.199 68.7027 118.754 69.1151 118.379 69.6284C118.003 70.1418 117.706 70.7385 117.497 71.4054C117.283 72.0723 117.178 72.7656 117.178 73.472C117.178 74.4372 117.379 75.2182 117.78 75.8193C118.186 76.4204 118.841 76.7144 119.75 76.7144C120.339 76.7144 120.889 76.5608 121.396 76.2537C121.902 75.9465 122.343 75.5297 122.723 75.0208C123.099 74.503 123.395 73.9151 123.605 73.2526C123.819 72.5901 123.924 71.8968 123.924 71.1773C123.924 70.212 123.723 69.431 123.317 68.8299C122.915 68.2288 122.256 67.9305 121.348 67.9305H121.352Z" fill="#1B478E"/>
<path d="M138.656 79.0354C138.114 77.5129 137.516 75.9992 136.857 74.4767C136.197 72.9542 135.481 71.5239 134.713 70.1681L132.6 79.0354H129.657L132.848 65.6489H135.136C135.429 66.1008 135.748 66.6317 136.088 67.2416C136.429 67.8515 136.774 68.514 137.136 69.2204C137.494 69.9268 137.852 70.6683 138.21 71.4317C138.568 72.1996 138.909 72.9542 139.228 73.7045L141.131 65.6489H144.113L140.9 79.0354H138.651H138.656Z" fill="#1B478E"/>
<path d="M145.842 79.0354L149.034 65.6489H157.741L157.129 68.1235H151.418L150.803 70.8306H155.841L155.243 73.2657H150.209L149.436 76.5476H155.588L154.972 79.0398H145.842V79.0354Z" fill="#1B478E"/>
<path d="M162.915 76.7977C163.207 76.7977 163.504 76.7758 163.797 76.7275C164.093 76.6837 164.355 76.6047 164.587 76.4862C164.814 76.3677 165.006 76.2054 165.154 75.9904C165.303 75.7798 165.377 75.5078 165.377 75.1699C165.377 74.9155 165.307 74.6917 165.163 74.503C165.019 74.3144 164.844 74.1476 164.626 73.9941C164.408 73.8361 164.163 73.6957 163.897 73.5685C163.626 73.4412 163.356 73.3008 163.089 73.1429C162.744 72.9367 162.417 72.7173 162.111 72.4847C161.801 72.2566 161.539 71.9933 161.321 71.7038C161.103 71.4142 160.928 71.0939 160.801 70.7385C160.67 70.3875 160.609 69.9751 160.609 69.5144C160.609 68.922 160.723 68.3692 160.945 67.8603C161.168 67.3513 161.504 66.9125 161.945 66.5352C162.386 66.1623 162.941 65.8683 163.609 65.6577C164.272 65.4427 165.058 65.3374 165.953 65.3374C166.36 65.3374 166.761 65.3725 167.145 65.4427C167.53 65.5129 167.888 65.6007 168.22 65.706C168.551 65.8113 168.857 65.9297 169.132 66.0613C169.407 66.1974 169.639 66.329 169.835 66.4562L168.586 68.6763C168.268 68.4306 167.875 68.2288 167.416 68.0621C166.953 67.8954 166.456 67.812 165.914 67.812C165.622 67.812 165.338 67.8383 165.071 67.8866C164.801 67.9392 164.565 68.027 164.36 68.1498C164.155 68.2727 163.993 68.4306 163.871 68.6237C163.749 68.8167 163.687 69.0537 163.687 69.3389C163.687 69.5977 163.735 69.8127 163.831 69.9882C163.928 70.1637 164.054 70.3129 164.207 70.4401C164.36 70.5718 164.539 70.6858 164.744 70.7868C164.949 70.8921 165.168 71.0018 165.399 71.1158C165.796 71.322 166.181 71.5414 166.552 71.774C166.923 72.0065 167.25 72.2741 167.534 72.5769C167.814 72.8796 168.041 73.2219 168.206 73.608C168.372 73.9985 168.455 74.4504 168.455 74.9813C168.455 75.7184 168.32 76.3546 168.054 76.8943C167.783 77.4339 167.403 77.8858 166.918 78.2456C166.434 78.6054 165.853 78.8731 165.181 79.0486C164.508 79.2241 163.762 79.3118 162.941 79.3118C162.399 79.3118 161.902 79.2679 161.434 79.1758C160.963 79.088 160.544 78.9827 160.164 78.8555C159.784 78.737 159.461 78.6054 159.181 78.4606C158.906 78.3202 158.684 78.193 158.518 78.0745L159.788 75.7754C159.941 75.8807 160.129 75.986 160.343 76.1045C160.561 76.2186 160.81 76.3283 161.085 76.4336C161.36 76.5389 161.653 76.6222 161.958 76.6924C162.268 76.7626 162.587 76.8021 162.919 76.8021L162.915 76.7977Z" fill="#1B478E"/>
<path d="M7.23058 84.3486C7.30044 84.6645 7.39213 85.1077 7.50129 85.6825C7.61481 86.2572 7.72834 86.8934 7.85059 87.5867C7.97285 88.2799 8.0951 88.9907 8.22609 89.719C8.35271 90.4474 8.4706 91.1143 8.57103 91.7197C8.96399 91.1143 9.39625 90.4605 9.85908 89.7629C10.3263 89.0653 10.7847 88.3764 11.2345 87.7007C11.6842 87.025 12.1164 86.3932 12.5225 85.8053C12.9286 85.2174 13.2779 84.7304 13.5661 84.3486H15.9631C15.8802 85.1516 15.7754 86.0554 15.6444 87.0558C15.509 88.0561 15.3606 89.096 15.1903 90.1622C15.0244 91.2327 14.8454 92.3121 14.662 93.3958C14.4786 94.4795 14.2909 95.4974 14.1075 96.4539H11.4659C11.7104 95.2649 11.968 93.9793 12.2387 92.6017C12.5094 91.2196 12.7627 89.8287 12.9941 88.4159C12.6928 88.8942 12.3566 89.4251 11.9855 90.0174C11.6143 90.6053 11.2432 91.1976 10.8721 91.7987C10.5009 92.3998 10.1429 92.9702 9.79359 93.5187C9.44865 94.0671 9.14301 94.5322 8.88977 94.9183H6.90747C6.85071 94.5673 6.78085 94.1285 6.69789 93.5889C6.61493 93.0536 6.52761 92.4876 6.42719 91.8865C6.32676 91.2854 6.22634 90.6799 6.12155 90.07C6.01675 89.4602 5.9207 88.9073 5.82464 88.4203C5.37491 89.8287 4.96448 91.224 4.60208 92.606C4.23531 93.9837 3.89911 95.2693 3.58474 96.4583H0.956238C1.22258 95.5018 1.51512 94.4839 1.83386 93.4002C2.1526 92.3165 2.48007 91.2371 2.825 90.1622C3.16557 89.0872 3.50614 88.043 3.84235 87.0426C4.17855 86.0422 4.49729 85.1472 4.79856 84.353H7.23058V84.3486Z" fill="#D54628"/>
<path d="M18.3035 96.4539L21.1896 84.3486H29.0664L28.5118 86.5819H23.3465L22.792 89.0258H27.346L26.809 91.2283H22.255L21.5607 94.1987H27.1234L26.5688 96.4539H18.3078H18.3035Z" fill="#D54628"/>
<path d="M41.912 84.3486L41.3574 86.6346H37.8295L35.4804 96.4539H32.769L35.1136 86.6346H31.5857L32.1402 84.3486H41.912Z" fill="#D54628"/>
<path d="M47.9287 96.6997C47.2214 96.6997 46.5752 96.5812 45.9814 96.3487C45.3919 96.1161 44.8811 95.7827 44.4532 95.3439C44.0253 94.9096 43.6934 94.3743 43.4533 93.7468C43.2175 93.1194 43.0996 92.4043 43.0996 91.6145C43.0996 90.7063 43.2568 89.8024 43.5712 88.9074C43.8855 88.0123 44.3309 87.205 44.916 86.4898C45.5011 85.7746 46.2171 85.1911 47.0642 84.7436C47.9069 84.296 48.8675 84.0679 49.9328 84.0679C50.6402 84.0679 51.2864 84.1863 51.8802 84.4189C52.474 84.6514 52.9805 84.9893 53.4084 85.4236C53.8363 85.858 54.1681 86.3933 54.4083 87.0207C54.6441 87.6481 54.7619 88.3633 54.7619 89.1531C54.7619 90.0613 54.6091 90.9651 54.3035 91.869C53.9935 92.7728 53.5481 93.5801 52.963 94.2953C52.378 95.0105 51.6619 95.594 50.8148 96.0328C49.9721 96.4759 49.0072 96.6953 47.9287 96.6953V96.6997ZM49.649 86.4108C49.1163 86.4108 48.6186 86.5512 48.1645 86.832C47.706 87.1128 47.3043 87.4858 46.9638 87.9509C46.6232 88.4203 46.3569 88.9512 46.1647 89.5567C45.9726 90.1622 45.8766 90.7852 45.8766 91.4258C45.8766 92.2989 46.0599 93.0053 46.4223 93.5494C46.7891 94.0935 47.3829 94.3611 48.2038 94.3611C48.7365 94.3611 49.2342 94.2207 49.6927 93.9399C50.1468 93.6591 50.5485 93.2862 50.8891 92.8211C51.2296 92.356 51.496 91.8207 51.6881 91.2196C51.8802 90.6185 51.9763 89.9955 51.9763 89.3417C51.9763 88.4686 51.7929 87.7622 51.4261 87.2181C51.0593 86.6741 50.4655 86.4064 49.6447 86.4064L49.649 86.4108Z" fill="#D54628"/>
<path d="M68.9654 89.065C68.9654 90.2409 68.7733 91.2939 68.3891 92.2241C68.0092 93.1586 67.4591 93.944 66.7473 94.589C66.0356 95.2384 65.1668 95.7341 64.1494 96.0851C63.1277 96.4362 61.975 96.6117 60.687 96.6117C60.2023 96.6117 59.639 96.5809 59.0016 96.5239C58.3641 96.4669 57.7484 96.3747 57.159 96.2475L59.9578 84.559C60.6171 84.4318 61.2546 84.3396 61.8615 84.287C62.4684 84.2343 63.0185 84.208 63.5032 84.208C64.3634 84.208 65.1275 84.3265 65.8086 84.559C66.4854 84.7916 67.0574 85.125 67.5289 85.555C67.9961 85.985 68.3541 86.4983 68.5987 87.0906C68.8432 87.6873 68.9654 88.3411 68.9654 89.065ZM60.3246 94.2687C60.4555 94.2819 60.5822 94.2906 60.7175 94.295C60.8529 94.3038 61.0319 94.3038 61.2677 94.3038C62.0187 94.3038 62.6998 94.1853 63.3111 93.9528C63.9224 93.7203 64.4332 93.3868 64.8567 92.948C65.2803 92.5137 65.6077 91.9784 65.8392 91.3422C66.0749 90.7104 66.1885 89.9952 66.1885 89.2011C66.1885 88.793 66.1361 88.4245 66.0313 88.091C65.9265 87.7619 65.7562 87.4767 65.5161 87.2354C65.2759 86.9985 64.9703 86.8142 64.5948 86.687C64.2193 86.5554 63.7608 86.4939 63.2281 86.4939C62.8788 86.4939 62.5252 86.5115 62.1671 86.5466L60.3246 94.2643V94.2687Z" fill="#D54628"/>
<path d="M77.0474 96.6997C76.34 96.6997 75.6938 96.5812 75.1 96.3487C74.5106 96.1161 73.9997 95.7827 73.5718 95.3439C73.1439 94.9096 72.8121 94.3743 72.5719 93.7468C72.3362 93.1194 72.2183 92.4043 72.2183 91.6145C72.2183 90.7063 72.3754 89.8024 72.6898 88.9074C73.0042 88.0123 73.4496 87.205 74.0346 86.4898C74.6197 85.7746 75.3358 85.1911 76.1828 84.7436C77.0255 84.296 77.9861 84.0679 79.0515 84.0679C79.7588 84.0679 80.405 84.1863 80.9989 84.4189C81.5927 84.6514 82.0992 84.9893 82.5271 85.4236C82.9549 85.858 83.2868 86.3933 83.5269 87.0207C83.7627 87.6481 83.8806 88.3633 83.8806 89.1531C83.8806 90.0613 83.7278 90.9651 83.4221 91.869C83.1121 92.7728 82.6668 93.5801 82.0817 94.2953C81.4966 95.0105 80.7805 95.594 79.9335 96.0328C79.0908 96.4759 78.1258 96.6953 77.0474 96.6953V96.6997ZM78.7677 86.4108C78.235 86.4108 77.7372 86.5512 77.2832 86.832C76.8247 87.1128 76.423 87.4858 76.0824 87.9509C75.7419 88.4203 75.4755 88.9512 75.2834 89.5567C75.0913 90.1622 74.9952 90.7852 74.9952 91.4258C74.9952 92.2989 75.1786 93.0053 75.541 93.5494C75.9078 94.0935 76.5016 94.3611 77.3224 94.3611C77.8551 94.3611 78.3529 94.2207 78.8113 93.9399C79.2654 93.6591 79.6671 93.2862 80.0077 92.8211C80.3483 92.356 80.6146 91.8207 80.8067 91.2196C80.9989 90.6185 81.0949 89.9955 81.0949 89.3417C81.0949 88.4686 80.9115 87.7622 80.5448 87.2181C80.178 86.6741 79.5842 86.4064 78.7633 86.4064L78.7677 86.4108Z" fill="#D54628"/>
<path d="M94.8662 94.1461L94.3117 96.4539H86.2777L89.1638 84.3486H91.8753L89.5306 94.1461H94.8662Z" fill="#D54628"/>
<path d="M102.446 96.6996C101.739 96.6996 101.092 96.5811 100.499 96.3486C99.9092 96.116 99.3984 95.7826 98.9705 95.3438C98.5426 94.9095 98.2108 94.3742 97.9706 93.7468C97.7348 93.1193 97.6169 92.4042 97.6169 91.6144C97.6169 90.7062 97.7741 89.8023 98.0885 88.9073C98.4029 88.0122 98.8482 87.2049 99.4333 86.4897C100.018 85.7745 100.734 85.191 101.582 84.7435C102.424 84.2959 103.385 84.0678 104.45 84.0678C105.158 84.0678 105.804 84.1862 106.398 84.4188C106.991 84.6513 107.498 84.9892 107.926 85.4235C108.354 85.8579 108.685 86.3932 108.926 87.0206C109.161 87.648 109.279 88.3632 109.279 89.153C109.279 90.0612 109.126 90.965 108.821 91.8689C108.511 92.7727 108.065 93.58 107.48 94.2952C106.895 95.0104 106.179 95.5939 105.332 96.0327C104.489 96.4758 103.525 96.6952 102.446 96.6952V96.6996ZM104.166 86.4107C103.634 86.4107 103.136 86.5511 102.682 86.8319C102.223 87.1128 101.822 87.4857 101.481 87.9508C101.141 88.4203 100.874 88.9511 100.682 89.5566C100.49 90.1621 100.394 90.7851 100.394 91.4257C100.394 92.2989 100.577 93.0053 100.94 93.5493C101.306 94.0934 101.9 94.361 102.721 94.361C103.254 94.361 103.752 94.2206 104.21 93.9398C104.664 93.659 105.066 93.2861 105.406 92.821C105.747 92.3559 106.013 91.8206 106.205 91.2195C106.398 90.6184 106.494 89.9954 106.494 89.3416C106.494 88.4685 106.31 87.7621 105.943 87.2181C105.577 86.674 104.983 86.4064 104.162 86.4064L104.166 86.4107ZM106.812 81.2246L103.734 83.5983L102.691 82.519L105.472 79.7065L106.812 81.229V81.2246Z" fill="#D54628"/>
<path d="M117.833 94.3611C118.064 94.3611 118.274 94.3523 118.457 94.3348C118.645 94.3172 118.811 94.2953 118.964 94.2734L119.972 90.0657H122.684L121.225 96.1293C120.902 96.2565 120.431 96.3794 119.819 96.5023C119.204 96.6251 118.422 96.6865 117.47 96.6865C116.658 96.6865 115.942 96.5681 115.327 96.3267C114.707 96.0898 114.187 95.7476 113.772 95.3044C113.353 94.8613 113.043 94.326 112.833 93.6986C112.624 93.0712 112.519 92.3604 112.519 91.5662C112.519 90.658 112.681 89.7542 112.995 88.8591C113.314 87.964 113.785 87.1611 114.414 86.4547C115.038 85.7527 115.816 85.1779 116.741 84.7348C117.671 84.2916 118.732 84.0723 119.942 84.0723C120.496 84.0723 121.086 84.1556 121.706 84.318C122.326 84.4803 122.885 84.726 123.382 85.0507L122.409 87.1655C122.003 86.911 121.57 86.718 121.112 86.5907C120.653 86.4635 120.204 86.3977 119.767 86.3977C119.06 86.3977 118.431 86.5337 117.881 86.7969C117.331 87.0646 116.863 87.4288 116.484 87.8895C116.104 88.3501 115.811 88.881 115.615 89.4865C115.418 90.092 115.318 90.7326 115.318 91.4083C115.318 92.4306 115.527 93.1809 115.951 93.6547C116.374 94.1242 117.003 94.3611 117.837 94.3611H117.833Z" fill="#D54628"/>
<path d="M128.264 84.3486H130.975L128.072 96.4539H125.373L128.259 84.3486H128.264Z" fill="#D54628"/>
<path d="M141.913 95.9319C141.437 96.1688 140.909 96.3531 140.332 96.4935C139.752 96.6339 139.044 96.7041 138.21 96.7041C137.49 96.7041 136.835 96.5856 136.237 96.3487C135.638 96.1074 135.132 95.7695 134.708 95.3264C134.285 94.8832 133.957 94.3436 133.726 93.7118C133.495 93.0756 133.377 92.3648 133.377 91.5706C133.377 90.6624 133.538 89.7586 133.853 88.8635C134.171 87.9684 134.643 87.1655 135.259 86.4591C135.879 85.7571 136.638 85.1823 137.538 84.7392C138.437 84.296 139.472 84.0767 140.642 84.0767C141.197 84.0767 141.747 84.1425 142.288 84.2697C142.825 84.4013 143.393 84.6251 143.982 84.9498L143.009 87.0646C142.524 86.8101 142.088 86.6346 141.703 86.5381C141.323 86.4459 140.913 86.3977 140.468 86.3977C139.808 86.3977 139.214 86.5337 138.686 86.797C138.158 87.0646 137.704 87.4288 137.328 87.8895C136.953 88.3502 136.665 88.8811 136.468 89.4865C136.272 90.092 136.171 90.7326 136.171 91.4083C136.171 92.4306 136.394 93.1765 136.839 93.6416C137.285 94.1066 137.926 94.3436 138.76 94.3436C139.315 94.3436 139.83 94.2821 140.302 94.1681C140.773 94.0496 141.21 93.9004 141.616 93.7118L141.913 95.9319Z" fill="#D54628"/>
<path d="M153.488 96.4539C153.466 96.002 153.44 95.5545 153.409 95.1201C153.379 94.6857 153.348 94.2514 153.313 93.817H148.794C148.558 94.247 148.318 94.6814 148.065 95.1201C147.812 95.5545 147.567 96.002 147.336 96.4539H144.502C145.257 95.1508 145.96 93.9442 146.615 92.8386C147.27 91.7329 147.903 90.6887 148.51 89.7102C149.117 88.7318 149.711 87.8017 150.292 86.9241C150.872 86.0422 151.462 85.1867 152.064 84.3486H154.483C154.667 85.1867 154.846 86.1168 155.012 87.1347C155.178 88.1527 155.335 89.1925 155.483 90.2631C155.627 91.3293 155.758 92.391 155.881 93.4616C156.003 94.5278 156.116 95.5282 156.221 96.4583H153.492L153.488 96.4539ZM152.684 87.0031C152.2 87.7841 151.72 88.5563 151.252 89.3285C150.785 90.0963 150.327 90.8817 149.89 91.6846H153.139C153.077 90.9739 153.021 90.2192 152.955 89.4119C152.894 88.609 152.802 87.806 152.684 87.0031Z" fill="#D54628"/>
<path d="M163.067 94.4269C163.334 94.4269 163.6 94.4094 163.866 94.3655C164.133 94.326 164.369 94.2514 164.578 94.1461C164.788 94.0408 164.958 93.896 165.093 93.703C165.229 93.5099 165.294 93.2598 165.294 92.9615C165.294 92.7289 165.229 92.5271 165.102 92.3604C164.971 92.1893 164.81 92.0357 164.617 91.8997C164.421 91.7593 164.198 91.632 163.958 91.5136C163.714 91.3995 163.473 91.2679 163.229 91.1319C162.915 90.9432 162.622 90.7501 162.343 90.5351C162.063 90.3245 161.827 90.092 161.631 89.8287C161.434 89.5655 161.277 89.2759 161.159 88.9556C161.046 88.6353 160.985 88.2668 160.985 87.8456C160.985 87.3103 161.089 86.8101 161.29 86.3494C161.491 85.8887 161.792 85.4894 162.194 85.1516C162.591 84.8138 163.094 84.5461 163.696 84.3575C164.299 84.1644 165.006 84.0679 165.818 84.0679C166.189 84.0679 166.547 84.0986 166.892 84.1644C167.242 84.2302 167.565 84.3092 167.866 84.4013C168.167 84.4935 168.442 84.6032 168.691 84.726C168.94 84.8489 169.15 84.9673 169.324 85.0858L168.193 87.0909C167.901 86.8715 167.547 86.6829 167.132 86.5337C166.718 86.3845 166.264 86.3099 165.779 86.3099C165.513 86.3099 165.259 86.3319 165.015 86.3801C164.77 86.424 164.556 86.503 164.369 86.6171C164.181 86.7311 164.032 86.8715 163.923 87.0426C163.814 87.2181 163.757 87.4331 163.757 87.692C163.757 87.9245 163.801 88.1176 163.888 88.2756C163.976 88.4335 164.085 88.5695 164.229 88.6836C164.369 88.8021 164.53 88.9074 164.713 88.9995C164.897 89.0916 165.093 89.1925 165.303 89.2978C165.665 89.4865 166.01 89.6796 166.346 89.8946C166.683 90.1052 166.98 90.3465 167.233 90.6185C167.486 90.8905 167.691 91.2021 167.84 91.5531C167.988 91.9041 168.067 92.3165 168.067 92.7947C168.067 93.4573 167.945 94.0364 167.7 94.5234C167.456 95.0105 167.115 95.4185 166.674 95.7476C166.233 96.0723 165.709 96.318 165.102 96.4759C164.495 96.6339 163.818 96.7128 163.076 96.7128C162.591 96.7128 162.133 96.6734 161.709 96.59C161.286 96.5066 160.902 96.4145 160.561 96.3004C160.221 96.1863 159.924 96.0723 159.675 95.9406C159.426 95.8134 159.225 95.6949 159.072 95.594L160.221 93.5143C160.36 93.6064 160.531 93.7074 160.723 93.8127C160.919 93.918 161.142 94.0145 161.395 94.111C161.644 94.2031 161.91 94.2821 162.185 94.3479C162.465 94.4138 162.753 94.4445 163.054 94.4445L163.067 94.4269Z" fill="#D54628"/>
<path d="M114.191 47.4578H105.288V38.6783H117.444L117.732 37.9017L122.038 25.3971H105.288V16.6176H125.561L130.08 3.33643H93.1284C91.9844 3.33643 91.0544 4.27098 91.0544 5.42052V60.7302H109.271L114.191 47.449V47.4578Z" fill="#1B478E"/>
<path d="M146.917 50.4679C149.803 50.7662 152.719 50.56 155.536 49.8624L174.04 0.699707C169.953 1.87119 165.713 2.41525 161.465 2.30117C149.986 2.0072 139.446 -2.32333 132.508 12.0152C132.569 11.7739 132.656 11.5458 132.765 11.322L114.383 60.9235C114.772 61.0814 115.182 61.156 115.602 61.1472C116.021 61.1385 116.431 61.0463 116.811 60.8708C118.09 60.2829 126.391 52.6968 140.385 57.9794C140.385 57.9794 155.509 63.2357 160.841 60.7831L179.004 11.7739L173.935 13.3666L158.439 55.3293C158.439 55.3293 155.317 58.1593 141.184 54.0043C133.822 51.8149 123.937 53.4119 121.007 55.5794C129.591 46.4708 138.8 50.0204 146.917 50.4679Z" fill="#D54628"/>
</g>
<defs>
<clipPath id="clip0_38_26">
<rect width="179" height="96" fill="white" transform="translate(0 0.699707)"/>
</clipPath>
</defs>
</svg>
